{
copyright = "Copyright (c) 2015, Cadson Demak (info@cadsondemak.com)";
customParameters = (
{
name = vendorID;
value = CDK;
},
{
name = description;
value = "Copyright (c) 2015, Cadson Demak (info@cadsondemak.com)";
},
{
name = license;

glyphs = (
{
glyphname = A;
lastChange = "2015-11-29 23:18:22 +0000";
layers = (
{
layerId = "B4CEBB5F-E069-4C92-9919-8A70C4320291";
name = Light;
paths = (
{
closed = 1;
nodes = (
"88 0 LINE",
"174 215 LINE",
"526 215 LINE",
"612 0 LINE",
"640 0 LINE",
"361 699 LINE",
"339 699 LINE",
"60 0 LINE"
);
},
{
closed = 1;
nodes = (
"350 657 LINE",
"516 239 LINE",
"184 239 LINE"
);
}
);
width = 700;
}
);
leftKerningGroup = A;
note = A;
rightKerningGroup = A;
unicode = 0041;
},
{
glyphname = Aacute;
lastChange = "2015-11-29 23:18:22 +0000";
layers = (
{
layerId = "B4CEBB5F-E069-4C92-9919-8A70C4320291";
name = Light;
paths = (
{
closed = 1;
nodes = (
"88 0 LINE",
"174 215 LINE",
"526 215 LINE",
"612 0 LINE",
"640 0 LINE",
"361 699 LINE",
"339 699 LINE",
"60 0 LINE"
);
},
{
closed = 1;
nodes = (
"350 657 LINE",
"516 239 LINE",
"184 239 LINE"
);
},
{
closed = 1;
nodes = (
"367 768 LINE",
"444 935 LINE",
"416 935 LINE",
"345 768 LINE"
);
}
);
width = 700;
}
);
leftKerningGroup = A;
note = Aacute;
rightKerningGroup = A;
unicode = 00C1;
},
{
glyphname = Abreve;
lastChange = "2015-11-29 23:18:23 +0000";
layers = (
{
layerId = "B4CEBB5F-E069-4C92-9919-8A70C4320291";
name = Light;
paths = (
{
closed = 1;
nodes = (
"88 0 LINE",
"174 215 LINE",
"526 215 LINE",
"612 0 LINE",
"640 0 LINE",
"361 699 LINE",
"339 699 LINE",
"60 0 LINE"
);
},
{
closed = 1;
nodes = (
"350 657 LINE",
"516 239 LINE",
"184 239 LINE"
);
},
{
closed = 1;
nodes = (
"420 770 OFFCURVE",
"468 818 OFFCURVE",
"468 878 CURVE",
"444 878 LINE",
"444 830 OFFCURVE",
"409 793 OFFCURVE",
"350 793 CURVE SMOOTH",
"292 793 OFFCURVE",
"256 830 OFFCURVE",
"256 878 CURVE",
"232 878 LINE",
"232 818 OFFCURVE",
"280 770 OFFCURVE",
"350 770 CURVE SMOOTH"
);
}
);
width = 700;
}
);
leftKerningGroup = A;
note = Abreve;
rightKerningGroup = A;
unicode = 0102;
},
{
glyphname = Abreveacute;
lastChange = "2015-11-29 23:18:22 +0000";
layers = (
{
layerId = "B4CEBB5F-E069-4C92-9919-8A70C4320291";
name = Light;
paths = (
{
closed = 1;
nodes = (
"88 0 LINE",
"174 215 LINE",
"526 215 LINE",
"612 0 LINE",
"640 0 LINE",
"361 699 LINE",
"339 699 LINE",
"60 0 LINE"
);
},
{
closed = 1;
nodes = (
"350 657 LINE",
"516 239 LINE",
"184 239 LINE"
);
},
{
closed = 1;
nodes = (
"420 751 OFFCURVE",
"468 799 OFFCURVE",
"468 859 CURVE",
"444 859 LINE",
"444 811 OFFCURVE",
"409 774 OFFCURVE",
"350 774 CURVE SMOOTH",
"292 774 OFFCURVE",
"256 811 OFFCURVE",
"256 859 CURVE",
"232 859 LINE",
"232 799 OFFCURVE",
"280 751 OFFCURVE",
"350 751 CURVE SMOOTH"
);
},
{
closed = 1;
nodes = (
"345 825 LINE",
"405 945 LINE",
"377 945 LINE",
"323 825 LINE"
);
}
);
width = 700;
}
);
leftKerningGroup = A;
note = Abreveacute;
rightKerningGroup = A;
unicode = 1EAE;
},
{
glyphname = Abrevedotbelow;
lastChange = "2015-11-29 23:18:24 +0000";
layers = (
{
layerId = "B4CEBB5F-E069-4C92-9919-8A70C4320291";
name = Light;
paths = (
{
closed = 1;
nodes = (
"88 0 LINE",
"174 215 LINE",
"526 215 LINE",
"612 0 LINE",
"640 0 LINE",
"361 699 LINE",
"339 699 LINE",
"60 0 LINE"
);
},
{
closed = 1;
nodes = (
"365 -121 OFFCURVE",
"378 -108 OFFCURVE",
"378 -93 CURVE SMOOTH",
"378 -78 OFFCURVE",
"365 -65 OFFCURVE",
"350 -65 CURVE SMOOTH",
"335 -65 OFFCURVE",
"322 -78 OFFCURVE",
"322 -93 CURVE SMOOTH",
"322 -108 OFFCURVE",
"335 -121 OFFCURVE",
"350 -121 CURVE SMOOTH"
);
},
{
closed = 1;
nodes = (
"350 657 LINE",
"516 239 LINE",
"184 239 LINE"
);
},
{
closed = 1;
nodes = (
"420 783 OFFCURVE",
"468 831 OFFCURVE",
"468 891 CURVE",
"444 891 LINE",
"444 843 OFFCURVE",
"409 806 OFFCURVE",
"350 806 CURVE SMOOTH",
"292 806 OFFCURVE",
"256 843 OFFCURVE",
"256 891 CURVE",
"232 891 LINE",
"232 831 OFFCURVE",
"280 783 OFFCURVE",
"350 783 CURVE SMOOTH"
);
}
);
width = 700;
}
);
leftKerningGroup = A;
note = Abrevedotbelow;
rightKerningGroup = A;
unicode = 1EB6;
},
{
glyphname = Abrevegrave;
lastChange = "2015-11-29 23:18:23 +0000";
layers = (
{
layerId = "B4CEBB5F-E069-4C92-9919-8A70C4320291";
name = Light;
paths = (
{
closed = 1;
nodes = (
"88 0 LINE",
"174 215 LINE",
"526 215 LINE",
"612 0 LINE",
"640 0 LINE",
"361 699 LINE",
"339 699 LINE",
"60 0 LINE"
);
},
{
closed = 1;
nodes = (
"350 657 LINE",
"516 239 LINE",
"184 239 LINE"
);
},
{
closed = 1;
nodes = (
"420 751 OFFCURVE",
"468 799 OFFCURVE",
"468 859 CURVE",
"444 859 LINE",
"444 811 OFFCURVE",
"408 774 OFFCURVE",
"350 774 CURVE SMOOTH",
"291 774 OFFCURVE",
"256 811 OFFCURVE",
"256 859 CURVE",
"232 859 LINE",
"232 799 OFFCURVE",
"280 751 OFFCURVE",
"350 751 CURVE SMOOTH"
);
},
{
closed = 1;
nodes = (
"377 825 LINE",
"323 945 LINE",
"295 945 LINE",
"355 825 LINE"
);
}
);
width = 700;
}
);
leftKerningGroup = A;
note = Abrevegrave;
rightKerningGroup = A;
unicode = 1EB0;
},
{
glyphname = Abrevehookabove;
lastChange = "2015-11-29 23:18:24 +0000";
layers = (
{
layerId = "B4CEBB5F-E069-4C92-9919-8A70C4320291";
name = Light;
paths = (
{
closed = 1;
nodes = (
"88 0 LINE",
"174 215 LINE",
"526 215 LINE",
"612 0 LINE",
"640 0 LINE",
"361 699 LINE",
"339 699 LINE",
"60 0 LINE"
);
},
{
closed = 1;
nodes = (
"350 657 LINE",
"516 239 LINE",
"184 239 LINE"
);
},
{
closed = 1;
nodes = (
"420 750 OFFCURVE",
"468 798 OFFCURVE",
"468 858 CURVE",
"444 858 LINE",
"444 810 OFFCURVE",
"409 773 OFFCURVE",
"350 773 CURVE SMOOTH",
"292 773 OFFCURVE",
"256 810 OFFCURVE",
"256 858 CURVE",
"232 858 LINE",
"232 798 OFFCURVE",
"280 750 OFFCURVE",
"350 750 CURVE SMOOTH"
);
},
{
closed = 1;
nodes = (
"353 809 LINE",
"353 841 LINE",
"397 843 OFFCURVE",
"423 866 OFFCURVE",
"423 901 CURVE SMOOTH",
"423 938 OFFCURVE",
"402 963 OFFCURVE",
"353 963 CURVE SMOOTH",
"335 963 OFFCURVE",
"315 959 OFFCURVE",
"304 955 CURVE",
"304 932 LINE",
"315 937 OFFCURVE",
"336 941 OFFCURVE",
"353 941 CURVE SMOOTH",
"383 941 OFFCURVE",
"399 931 OFFCURVE",
"399 901 CURVE SMOOTH",
"399 870 OFFCURVE",
"380 859 OFFCURVE",
"332 859 CURVE",
"332 809 LINE"
);
}
);
width = 700;
}
);
leftKerningGroup = A;
note = Abrevehookabove;
rightKerningGroup = A;
unicode = 1EB2;
},
{
glyphname = Abrevetilde;
lastChange = "2015-11-29 23:18:22 +0000";
layers = (
{
layerId = "B4CEBB5F-E069-4C92-9919-8A70C4320291";
name = Light;
paths = (
{
closed = 1;
nodes = (
"88 0 LINE",
"174 215 LINE",
"526 215 LINE",
"612 0 LINE",
"640 0 LINE",
"361 699 LINE",
"339 699 LINE",
"60 0 LINE"
);
},
{
closed = 1;
nodes = (
"350 657 LINE",
"516 239 LINE",
"184 239 LINE"
);
},
{
closed = 1;
nodes = (
"420 750 OFFCURVE",
"468 798 OFFCURVE",
"468 858 CURVE",
"444 858 LINE",
"444 810 OFFCURVE",
"409 773 OFFCURVE",
"350 773 CURVE SMOOTH",
"292 773 OFFCURVE",
"256 810 OFFCURVE",
"256 858 CURVE",
"232 858 LINE",
"232 798 OFFCURVE",
"280 750 OFFCURVE",
"350 750 CURVE SMOOTH"
);
},
{
closed = 1;
nodes = (
"455 886 OFFCURVE",
"476 897 OFFCURVE",
"490 923 CURVE",
"490 953 LINE",
"471 918 OFFCURVE",
"451 908 OFFCURVE",
"421 908 CURVE SMOOTH",
"379 908 OFFCURVE",
"324 954 OFFCURVE",
"279 954 CURVE SMOOTH",
"245 954 OFFCURVE",
"224 943 OFFCURVE",
"210 917 CURVE",
"210 887 LINE",
"231 922 OFFCURVE",
"249 932 OFFCURVE",
"279 932 CURVE SMOOTH",
"320 932 OFFCURVE",
"372 886 OFFCURVE",
"421 886 CURVE SMOOTH"
);
}
);
width = 700;
}
);
leftKerningGroup = A;
note = Abrevetilde;
rightKerningGroup = A;
unicode = 1EB4;
},
{
glyphname = Acaron;
lastChange = "2015-11-29 23:18:24 +0000";
layers = (
{
layerId = "B4CEBB5F-E069-4C92-9919-8A70C4320291";
name = Light;
paths = (
{
closed = 1;
nodes = (
"88 0 LINE",
"174 215 LINE",
"526 215 LINE",
"612 0 LINE",
"640 0 LINE",
"361 699 LINE",
"339 699 LINE",
"60 0 LINE"
);
},
{
closed = 1;
nodes = (
"350 657 LINE",
"516 239 LINE",
"184 239 LINE"
);
},
{
closed = 1;
nodes = (
"361 784 LINE",
"489 935 LINE",
"458 935 LINE",
"350 806 LINE",
"242 935 LINE",
"211 935 LINE",
"339 784 LINE"
);
}
);
width = 700;
}
);
leftKerningGroup = A;
note = Acaron;
rightKerningGroup = A;
unicode = 01CD;
},
{
glyphname = Acircumflex;
lastChange = "2015-11-29 23:18:22 +0000";
layers = (
{
layerId = "B4CEBB5F-E069-4C92-9919-8A70C4320291";
name = Light;
paths = (
{
closed = 1;
nodes = (
"88 0 LINE",
"174 215 LINE",
"526 215 LINE",
"612 0 LINE",
"640 0 LINE",
"361 699 LINE",
"339 699 LINE",
"60 0 LINE"
);
},
{
closed = 1;
nodes = (
"350 657 LINE",
"516 239 LINE",
"184 239 LINE"
);
},
{
closed = 1;
nodes = (
"242 774 LINE",
"350 903 LINE",
"458 774 LINE",
"489 774 LINE",
"361 925 LINE",
"339 925 LINE",
"211 774 LINE"
);
}
);
width = 700;
}
);
leftKerningGroup = A;
note = Acircumflex;
rightKerningGroup = A;
unicode = 00C2;
},
{
glyphname = Acircumflexacute;
lastChange = "2015-11-29 23:18:23 +0000";
layers = (
{
layerId = "B4CEBB5F-E069-4C92-9919-8A70C4320291";
name = Light;
paths = (
{
closed = 1;
nodes = (
"88 0 LINE",
"174 215 LINE",
"526 215 LINE",
"612 0 LINE",
"640 0 LINE",
"361 699 LINE",
"339 699 LINE",
"60 0 LINE"
);
},
{
closed = 1;
nodes = (
"350 657 LINE",
"516 239 LINE",
"184 239 LINE"
);
},
{
closed = 1;
nodes = (
"242 747 LINE",
"350 849 LINE",
"458 747 LINE",
"489 747 LINE",
"361 868 LINE",
"339 868 LINE",
"211 747 LINE"
);
},
{
closed = 1;
nodes = (
"454 830 LINE",
"525 938 LINE",
"497 938 LINE",
"432 830 LINE"
);
}
);
width = 700;
}
);
leftKerningGroup = A;
note = Acircumflexacute;
rightKerningGroup = A;
unicode = 1EA4;
},
{
glyphname = Acircumflexdotbelow;
lastChange = "2015-11-29 23:18:22 +0000";
layers = (
{
layerId = "B4CEBB5F-E069-4C92-9919-8A70C4320291";
name = Light;
paths = (
{
closed = 1;
nodes = (
"88 0 LINE",
"174 215 LINE",
"526 215 LINE",
"612 0 LINE",
"640 0 LINE",
"361 699 LINE",
"339 699 LINE",
"60 0 LINE"
);
},
{
closed = 1;
nodes = (
"365 -121 OFFCURVE",
"378 -108 OFFCURVE",
"378 -93 CURVE SMOOTH",
"378 -78 OFFCURVE",
"365 -65 OFFCURVE",
"350 -65 CURVE SMOOTH",
"335 -65 OFFCURVE",
"322 -78 OFFCURVE",
"322 -93 CURVE SMOOTH",
"322 -108 OFFCURVE",
"335 -121 OFFCURVE",
"350 -121 CURVE SMOOTH"
);
},
{
closed = 1;
nodes = (
"350 657 LINE",
"516 239 LINE",
"184 239 LINE"
);
},
{
closed = 1;
nodes = (
"242 784 LINE",
"350 913 LINE",
"458 784 LINE",
"489 784 LINE",
"361 935 LINE",
"339 935 LINE",
"211 784 LINE"
);
}
);
width = 700;
}
);
leftKerningGroup = A;
note = Acircumflexdotbelow;
rightKerningGroup = A;
unicode = 1EAC;
},
{
glyphname = Acircumflexgrave;
lastChange = "2015-11-29 23:18:24 +0000";
layers = (
{
layerId = "B4CEBB5F-E069-4C92-9919-8A70C4320291";
name = Light;
paths = (
{
closed = 1;
nodes = (
"88 0 LINE",
"174 215 LINE",
"526 215 LINE",
"612 0 LINE",
"640 0 LINE",
"361 699 LINE",
"339 699 LINE",
"60 0 LINE"
);
},
{
closed = 1;
nodes = (
"350 657 LINE",
"516 239 LINE",
"184 239 LINE"
);
},
{
closed = 1;
nodes = (
"269 830 LINE",
"204 938 LINE",
"176 938 LINE",
"247 830 LINE"
);
},
{
closed = 1;
nodes = (
"243 747 LINE",
"351 849 LINE",
"459 747 LINE",
"490 747 LINE",
"362 868 LINE",
"340 868 LINE",
"212 747 LINE"
);
}
);
width = 700;
}
);
leftKerningGroup = A;
note = Acircumflexgrave;
rightKerningGroup = A;
unicode = 1EA6;
},
{
glyphname = Acircumflexhookabove;
lastChange = "2015-11-29 23:18:22 +0000";
layers = (
{
layerId = "B4CEBB5F-E069-4C92-9919-8A70C4320291";
name = Light;
paths = (
{
closed = 1;
nodes = (
"88 0 LINE",
"174 215 LINE",
"526 215 LINE",
"612 0 LINE",
"640 0 LINE",
"361 699 LINE",
"339 699 LINE",
"60 0 LINE"
);
},
{
closed = 1;
nodes = (
"350 657 LINE",
"516 239 LINE",
"184 239 LINE"
);
},
{
closed = 1;
nodes = (
"244 747 LINE",
"352 849 LINE",
"460 747 LINE",
"491 747 LINE",
"363 868 LINE",
"341 868 LINE",
"213 747 LINE"
);
},
{
closed = 1;
nodes = (
"457 820 LINE",
"457 847 LINE",
"501 849 OFFCURVE",
"527 872 OFFCURVE",
"527 907 CURVE SMOOTH",
"527 944 OFFCURVE",
"506 969 OFFCURVE",
"457 969 CURVE SMOOTH",
"439 969 OFFCURVE",
"419 965 OFFCURVE",
"408 961 CURVE",
"408 938 LINE",
"419 943 OFFCURVE",
"440 947 OFFCURVE",
"457 947 CURVE SMOOTH",
"487 947 OFFCURVE",
"503 937 OFFCURVE",
"503 907 CURVE SMOOTH",
"503 876 OFFCURVE",
"484 865 OFFCURVE",
"436 865 CURVE",
"436 820 LINE"
);
}
);
width = 700;
}
);
leftKerningGroup = A;
note = Acircumflexhookabove;
rightKerningGroup = A;
unicode = 1EA8;
},
{
glyphname = Acircumflextilde;
lastChange = "2015-11-29 23:18:24 +0000";
layers = (
{
layerId = "B4CEBB5F-E069-4C92-9919-8A70C4320291";
name = Light;
paths = (
{
closed = 1;
nodes = (
"88 0 LINE",
"174 215 LINE",
"526 215 LINE",
"612 0 LINE",
"640 0 LINE",
"361 699 LINE",
"339 699 LINE",
"60 0 LINE"
);
},
{
closed = 1;
nodes = (
"350 657 LINE",
"516 239 LINE",
"184 239 LINE"
);
},
{
closed = 1;
nodes = (
"242 747 LINE",
"350 849 LINE",
"458 747 LINE",
"489 747 LINE",
"361 868 LINE",
"339 868 LINE",
"211 747 LINE"
);
},
{
closed = 1;
nodes = (
"455 881 OFFCURVE",
"476 892 OFFCURVE",
"490 918 CURVE",
"490 948 LINE",
"471 913 OFFCURVE",
"451 903 OFFCURVE",
"421 903 CURVE SMOOTH",
"379 903 OFFCURVE",
"324 949 OFFCURVE",
"279 949 CURVE SMOOTH",
"245 949 OFFCURVE",
"224 938 OFFCURVE",
"210 912 CURVE",
"210 882 LINE",
"231 917 OFFCURVE",
"249 927 OFFCURVE",
"279 927 CURVE SMOOTH",
"320 927 OFFCURVE",
"372 881 OFFCURVE",
"421 881 CURVE SMOOTH"
);
}
);
width = 700;
}
);
leftKerningGroup = A;
note = Acircumflextilde;
rightKerningGroup = A;
unicode = 1EAA;
},
{
glyphname = Adieresis;
lastChange = "2015-11-29 23:18:22 +0000";
layers = (
{
layerId = "B4CEBB5F-E069-4C92-9919-8A70C4320291";
name = Light;
paths = (
{
closed = 1;
nodes = (
"88 0 LINE",
"174 215 LINE",
"526 215 LINE",
"612 0 LINE",
"640 0 LINE",
"361 699 LINE",
"339 699 LINE",
"60 0 LINE"
);
},
{
closed = 1;
nodes = (
"350 657 LINE",
"516 239 LINE",
"184 239 LINE"
);
},
{
closed = 1;
nodes = (
"266 778 OFFCURVE",
"279 791 OFFCURVE",
"279 806 CURVE SMOOTH",
"279 821 OFFCURVE",
"266 834 OFFCURVE",
"251 834 CURVE SMOOTH",
"236 834 OFFCURVE",
"223 821 OFFCURVE",
"223 806 CURVE SMOOTH",
"223 791 OFFCURVE",
"236 778 OFFCURVE",
"251 778 CURVE SMOOTH"
);
},
{
closed = 1;
nodes = (
"464 778 OFFCURVE",
"477 791 OFFCURVE",
"477 806 CURVE SMOOTH",
"477 821 OFFCURVE",
"464 834 OFFCURVE",
"449 834 CURVE SMOOTH",
"434 834 OFFCURVE",
"421 821 OFFCURVE",
"421 806 CURVE SMOOTH",
"421 791 OFFCURVE",
"434 778 OFFCURVE",
"449 778 CURVE SMOOTH"
);
}
);
width = 700;
}
);
leftKerningGroup = A;
note = Adieresis;
rightKerningGroup = A;
unicode = 00C4;
},
{
glyphname = Adotbelow;
lastChange = "2015-11-29 23:18:24 +0000";
layers = (
{
layerId = "B4CEBB5F-E069-4C92-9919-8A70C4320291";
name = Light;
paths = (
{
closed = 1;
nodes = (
"88 0 LINE",
"174 215 LINE",
"526 215 LINE",
"612 0 LINE",
"640 0 LINE",
"361 699 LINE",
"339 699 LINE",
"60 0 LINE"
);
},
{
closed = 1;
nodes = (
"365 -121 OFFCURVE",
"378 -108 OFFCURVE",
"378 -93 CURVE SMOOTH",
"378 -78 OFFCURVE",
"365 -65 OFFCURVE",
"350 -65 CURVE SMOOTH",
"335 -65 OFFCURVE",
"322 -78 OFFCURVE",
"322 -93 CURVE SMOOTH",
"322 -108 OFFCURVE",
"335 -121 OFFCURVE",
"350 -121 CURVE SMOOTH"
);
},
{
closed = 1;
nodes = (
"350 657 LINE",
"516 239 LINE",
"184 239 LINE"
);
}
);
width = 700;
}
);
leftKerningGroup = A;
note = Adotbelow;
rightKerningGroup = A;
unicode = 1EA0;
},
{
glyphname = Agrave;
lastChange = "2015-11-29 23:18:23 +0000";
layers = (
{
layerId = "B4CEBB5F-E069-4C92-9919-8A70C4320291";
name = Light;
paths = (
{
closed = 1;
nodes = (
"88 0 LINE",
"174 215 LINE",
"526 215 LINE",
"612 0 LINE",
"640 0 LINE",
"361 699 LINE",
"339 699 LINE",
"60 0 LINE"
);
},
{
closed = 1;
nodes = (
"350 657 LINE",
"516 239 LINE",
"184 239 LINE"
);
},
{
closed = 1;
nodes = (
"344 768 LINE",
"273 935 LINE",
"245 935 LINE",
"322 768 LINE"
);
}
);
width = 700;
}
);
leftKerningGroup = A;
note = Agrave;
rightKerningGroup = A;
unicode = 00C0;
},
{
glyphname = Ahookabove;
lastChange = "2015-11-29 23:18:24 +0000";
layers = (
{
layerId = "B4CEBB5F-E069-4C92-9919-8A70C4320291";
name = Light;
paths = (
{
closed = 1;
nodes = (
"88 0 LINE",
"174 215 LINE",
"526 215 LINE",
"612 0 LINE",
"640 0 LINE",
"361 699 LINE",
"339 699 LINE",
"60 0 LINE"
);
},
{
closed = 1;
nodes = (
"350 657 LINE",
"516 239 LINE",
"184 239 LINE"
);
},
{
closed = 1;
nodes = (
"362 744 LINE",
"362 788 LINE",
"427 791 OFFCURVE",
"459 826 OFFCURVE",
"459 875 CURVE SMOOTH",
"459 925 OFFCURVE",
"425 961 OFFCURVE",
"356 961 CURVE SMOOTH",
"336 961 OFFCURVE",
"312 957 OFFCURVE",
"301 953 CURVE",
"301 929 LINE",
"313 934 OFFCURVE",
"338 937 OFFCURVE",
"356 937 CURVE SMOOTH",
"404 937 OFFCURVE",
"433 918 OFFCURVE",
"433 874 CURVE SMOOTH",
"433 830 OFFCURVE",
"411 807 OFFCURVE",
"339 807 CURVE",
"339 744 LINE"
);
}
);
width = 700;
}
);
leftKerningGroup = A;
note = Ahookabove;
rightKerningGroup = A;
unicode = 1EA2;
},
{
glyphname = Amacron;
lastChange = "2015-11-29 23:18:24 +0000";
layers = (
{
layerId = "B4CEBB5F-E069-4C92-9919-8A70C4320291";
name = Light;
paths = (
{
closed = 1;
nodes = (
"88 0 LINE",
"174 215 LINE",
"526 215 LINE",
"612 0 LINE",
"640 0 LINE",
"361 699 LINE",
"339 699 LINE",
"60 0 LINE"
);
},
{
closed = 1;
nodes = (
"350 657 LINE",
"516 239 LINE",
"184 239 LINE"
);
},
{
closed = 1;
nodes = (
"489 825 LINE",
"489 849 LINE",
"211 849 LINE",
"211 825 LINE"
);
}
);
width = 700;
}
);
leftKerningGroup = A;
note = Amacron;
rightKerningGroup = A;
unicode = 0100;
},
{
glyphname = Aogonek;
lastChange = "2015-11-29 23:18:22 +0000";
layers = (
{
layerId = "B4CEBB5F-E069-4C92-9919-8A70C4320291";
name = Light;
paths = (
{
closed = 1;
nodes = (
"88 0 LINE",
"174 215 LINE",
"526 215 LINE",
"612 0 LINE",
"640 0 LINE",
"361 699 LINE",
"339 699 LINE",
"60 0 LINE"
);
},
{
closed = 1;
nodes = (
"637 -206 OFFCURVE",
"652 -203 OFFCURVE",
"663 -198 CURVE",
"663 -174 LINE",
"651 -179 OFFCURVE",
"635 -182 OFFCURVE",
"617 -182 CURVE SMOOTH",
"586 -182 OFFCURVE",
"561 -164 OFFCURVE",
"561 -125 CURVE SMOOTH",
"561 -76 OFFCURVE",
"593 -36 OFFCURVE",
"640 0 CURVE",
"612 0 LINE",
"570 -27 OFFCURVE",
"535 -73 OFFCURVE",
"535 -125 CURVE SMOOTH",
"535 -179 OFFCURVE",
"574 -206 OFFCURVE",
"617 -206 CURVE SMOOTH"
);
},
{
closed = 1;
nodes = (
"350 657 LINE",
"516 239 LINE",
"184 239 LINE"
);
}
);
width = 706;
}
);
leftKerningGroup = A;
note = Aogonek;
rightKerningGroup = A;
unicode = 0104;
},
{
glyphname = Aring;
lastChange = "2015-11-29 23:18:23 +0000";
layers = (
{
layerId = "B4CEBB5F-E069-4C92-9919-8A70C4320291";
name = Light;
paths = (
{
closed = 1;
nodes = (
"88 0 LINE",
"174 215 LINE",
"526 215 LINE",
"612 0 LINE",
"640 0 LINE",
"368 680 LINE",
"409 688 OFFCURVE",
"441 725 OFFCURVE",
"441 769 CURVE SMOOTH",
"441 819 OFFCURVE",
"400 860 OFFCURVE",
"350 860 CURVE SMOOTH",
"300 860 OFFCURVE",
"259 819 OFFCURVE",
"259 769 CURVE SMOOTH",
"259 725 OFFCURVE",
"290 688 OFFCURVE",
"331 680 CURVE",
"60 0 LINE"
);
},
{
closed = 1;
nodes = (
"350 657 LINE",
"516 239 LINE",
"184 239 LINE"
);
},
{
closed = 1;
nodes = (
"309 702 OFFCURVE",
"281 733 OFFCURVE",
"281 769 CURVE SMOOTH",
"281 807 OFFCURVE",
"311 839 OFFCURVE",
"350 839 CURVE SMOOTH",
"389 839 OFFCURVE",
"419 807 OFFCURVE",
"419 769 CURVE SMOOTH",
"419 733 OFFCURVE",
"392 702 OFFCURVE",
"356 699 CURVE",
"344 699 LINE"
);
}
);
width = 700;
}
);
leftKerningGroup = A;
note = Aring;
rightKerningGroup = A;
unicode = 00C5;
},
{
glyphname = Aringacute;
lastChange = "2015-11-29 23:18:22 +0000";
layers = (
{
layerId = "B4CEBB5F-E069-4C92-9919-8A70C4320291";
name = Light;
paths = (
{
closed = 1;
nodes = (
"88 0 LINE",
"174 215 LINE",
"526 215 LINE",
"612 0 LINE",
"640 0 LINE",
"368 680 LINE",
"409 688 OFFCURVE",
"441 725 OFFCURVE",
"441 769 CURVE SMOOTH",
"441 819 OFFCURVE",
"400 860 OFFCURVE",
"350 860 CURVE SMOOTH",
"300 860 OFFCURVE",
"259 819 OFFCURVE",
"259 769 CURVE SMOOTH",
"259 725 OFFCURVE",
"290 688 OFFCURVE",
"331 680 CURVE",
"60 0 LINE"
);
},
{
closed = 1;
nodes = (
"350 657 LINE",
"516 239 LINE",
"184 239 LINE"
);
},
{
closed = 1;
nodes = (
"309 702 OFFCURVE",
"281 733 OFFCURVE",
"281 769 CURVE SMOOTH",
"281 807 OFFCURVE",
"311 839 OFFCURVE",
"350 839 CURVE SMOOTH",
"389 839 OFFCURVE",
"419 807 OFFCURVE",
"419 769 CURVE SMOOTH",
"419 733 OFFCURVE",
"392 702 OFFCURVE",
"356 699 CURVE",
"344 699 LINE"
);
},
{
closed = 1;
nodes = (
"358 894 LINE",
"435 1027 LINE",
"407 1027 LINE",
"336 894 LINE"
);
}
);
width = 700;
}
);
leftKerningGroup = A;
note = Aringacute;
rightKerningGroup = A;
unicode = 01FA;
},
{
glyphname = Atilde;
lastChange = "2015-11-29 23:18:23 +0000";
layers = (
{
layerId = "B4CEBB5F-E069-4C92-9919-8A70C4320291";
name = Light;
paths = (
{
closed = 1;
nodes = (
"88 0 LINE",
"174 215 LINE",
"526 215 LINE",
"612 0 LINE",
"640 0 LINE",
"361 699 LINE",
"339 699 LINE",
"60 0 LINE"
);
},
{
closed = 1;
nodes = (
"350 657 LINE",
"516 239 LINE",
"184 239 LINE"
);
},
{
closed = 1;
nodes = (
"201 829 OFFCURVE",
"230 840 OFFCURVE",
"263 840 CURVE SMOOTH",
"327 840 OFFCURVE",
"364 790 OFFCURVE",
"437 790 CURVE SMOOTH",
"474 790 OFFCURVE",
"507 802 OFFCURVE",
"527 835 CURVE",
"527 868 LINE",
"501 825 OFFCURVE",
"470 814 OFFCURVE",
"437 814 CURVE SMOOTH",
"372 814 OFFCURVE",
"331 864 OFFCURVE",
"263 864 CURVE SMOOTH",
"226 864 OFFCURVE",
"193 852 OFFCURVE",
"173 819 CURVE",
"173 786 LINE"
);
}
);
width = 700;
}
);
leftKerningGroup = A;
note = Atilde;
rightKerningGroup = A;
unicode = 00C3;
},
{
glyphname = AE;
lastChange = "2015-11-29 23:18:23 +0000";
layers = (
{
layerId = "B4CEBB5F-E069-4C92-9919-8A70C4320291";
name = Light;
paths = (
{
closed = 1;
nodes = (
"88 0 LINE",
"205 215 LINE",
"480 215 LINE",
"480 0 LINE",
"857 0 LINE",
"857 24 LINE",
"508 24 LINE",
"508 338 LINE",
"761 338 LINE",
"761 362 LINE",
"508 362 LINE",
"508 675 LINE",
"857 675 LINE",
"857 699 LINE",
"441 699 LINE",
"60 0 LINE"
);
},
{
closed = 1;
nodes = (
"456 675 LINE",
"480 675 LINE",
"480 239 LINE",
"218 239 LINE"
);
}
);
width = 917;
}
);
leftKerningGroup = A;
note = AE;
rightKerningGroup = E;
unicode = 00C6;
},
{
glyphname = AEacute;
lastChange = "2015-11-29 23:18:22 +0000";
layers = (
{
layerId = "B4CEBB5F-E069-4C92-9919-8A70C4320291";
name = Light;
paths = (
{
closed = 1;
nodes = (
"88 0 LINE",
"205 215 LINE",
"480 215 LINE",
"480 0 LINE",
"857 0 LINE",
"857 24 LINE",
"508 24 LINE",
"508 338 LINE",
"761 338 LINE",
"761 362 LINE",
"508 362 LINE",
"508 675 LINE",
"857 675 LINE",
"857 699 LINE",
"441 699 LINE",
"60 0 LINE"
);
},
{
closed = 1;
nodes = (
"456 675 LINE",
"480 675 LINE",
"480 239 LINE",
"218 239 LINE"
);
},
{
closed = 1;
nodes = (
"514 784 LINE",
"591 951 LINE",
"563 951 LINE",
"492 784 LINE"
);
}
);
width = 917;
}
);
leftKerningGroup = A;
note = AEacute;
rightKerningGroup = E;
unicode = 01FC;
},
{
glyphname = B;
lastChange = "2015-11-29 23:18:22 +0000";
layers = (
{
layerId = "B4CEBB5F-E069-4C92-9919-8A70C4320291";
name = Light;
paths = (
{
closed = 1;
nodes = (
"386 0 LINE SMOOTH",
"486 0 OFFCURVE",
"565 67 OFFCURVE",
"565 184 CURVE SMOOTH",
"565 285 OFFCURVE",
"512 343 OFFCURVE",
"437 358 CURVE",
"492 380 OFFCURVE",
"540 438 OFFCURVE",
"540 521 CURVE SMOOTH",
"540 642 OFFCURVE",
"484 699 OFFCURVE",
"368 699 CURVE SMOOTH",
"80 699 LINE",
"80 0 LINE"
);
},
{
closed = 1;
nodes = (
"108 346 LINE",
"372 346 LINE SMOOTH",
"470 346 OFFCURVE",
"539 298 OFFCURVE",
"539 184 CURVE SMOOTH",
"539 67 OFFCURVE",
"467 24 OFFCURVE",
"386 24 CURVE SMOOTH",
"108 24 LINE"
);
},
{
closed = 1;
nodes = (
"108 675 LINE",
"372 675 LINE SMOOTH",
"454 675 OFFCURVE",
"514 641 OFFCURVE",
"514 521 CURVE SMOOTH",
"514 424 OFFCURVE",
"450 370 OFFCURVE",
"383 370 CURVE SMOOTH",
"108 370 LINE"
);
}
);
width = 625;
}
);
note = B;
unicode = 0042;
},
{
glyphname = C;
lastChange = "2015-11-29 23:18:18 +0000";
layers = (
{
layerId = "B4CEBB5F-E069-4C92-9919-8A70C4320291";
name = Light;
paths = (
{
closed = 1;
nodes = (
"520 -15 OFFCURVE",
"605 9 OFFCURVE",
"668 72 CURVE",
"668 102 LINE",
"600 33 OFFCURVE",
"519 9 OFFCURVE",
"421 9 CURVE SMOOTH",
"237 9 OFFCURVE",
"86 139 OFFCURVE",
"86 349 CURVE SMOOTH",
"86 558 OFFCURVE",
"234 690 OFFCURVE",
"421 690 CURVE SMOOTH",
"512 690 OFFCURVE",
"596 663 OFFCURVE",
"659 602 CURVE",
"659 632 LINE",
"596 687 OFFCURVE",
"515 714 OFFCURVE",
"421 714 CURVE SMOOTH",
"216 714 OFFCURVE",
"60 568 OFFCURVE",
"60 349 CURVE SMOOTH",
"60 131 OFFCURVE",
"216 -15 OFFCURVE",
"421 -15 CURVE SMOOTH"
);
}
);
width = 728;
}
);
leftKerningGroup = C;
note = C;
rightKerningGroup = C;
unicode = 0043;
},
{
glyphname = Cacute;
lastChange = "2015-11-29 23:18:23 +0000";
layers = (
{
layerId = "B4CEBB5F-E069-4C92-9919-8A70C4320291";
name = Light;
paths = (
{
closed = 1;
nodes = (
"520 -15 OFFCURVE",
"605 9 OFFCURVE",
"668 72 CURVE",
"668 102 LINE",
"600 33 OFFCURVE",
"519 9 OFFCURVE",
"421 9 CURVE SMOOTH",
"237 9 OFFCURVE",
"86 139 OFFCURVE",
"86 349 CURVE SMOOTH",
"86 558 OFFCURVE",
"234 690 OFFCURVE",
"421 690 CURVE SMOOTH",
"512 690 OFFCURVE",
"596 663 OFFCURVE",
"659 602 CURVE",
"659 632 LINE",
"596 687 OFFCURVE",
"515 714 OFFCURVE",
"421 714 CURVE SMOOTH",
"216 714 OFFCURVE",
"60 568 OFFCURVE",
"60 349 CURVE SMOOTH",
"60 131 OFFCURVE",
"216 -15 OFFCURVE",
"421 -15 CURVE SMOOTH"
);
},
{
closed = 1;
nodes = (
"401 792 LINE",
"478 959 LINE",
"450 959 LINE",
"379 792 LINE"
);
}
);
width = 728;
}
);
leftKerningGroup = C;
note = Cacute;
rightKerningGroup = C;
unicode = 0106;
},
{
glyphname = Ccaron;
lastChange = "2015-11-29 23:18:22 +0000";
layers = (
{
layerId = "B4CEBB5F-E069-4C92-9919-8A70C4320291";
name = Light;
paths = (
{
closed = 1;
nodes = (
"520 -15 OFFCURVE",
"605 9 OFFCURVE",
"668 72 CURVE",
"668 102 LINE",
"600 33 OFFCURVE",
"519 9 OFFCURVE",
"421 9 CURVE SMOOTH",
"237 9 OFFCURVE",
"86 139 OFFCURVE",
"86 349 CURVE SMOOTH",
"86 558 OFFCURVE",
"234 690 OFFCURVE",
"421 690 CURVE SMOOTH",
"512 690 OFFCURVE",
"596 663 OFFCURVE",
"659 602 CURVE",
"659 632 LINE",
"596 687 OFFCURVE",
"515 714 OFFCURVE",
"421 714 CURVE SMOOTH",
"216 714 OFFCURVE",
"60 568 OFFCURVE",
"60 349 CURVE SMOOTH",
"60 131 OFFCURVE",
"216 -15 OFFCURVE",
"421 -15 CURVE SMOOTH"
);
},
{
closed = 1;
nodes = (
"428 798 LINE",
"556 949 LINE",
"525 949 LINE",
"417 820 LINE",
"309 949 LINE",
"278 949 LINE",
"406 798 LINE"
);
}
);
width = 728;
}
);
leftKerningGroup = C;
note = Ccaron;
rightKerningGroup = C;
unicode = 010C;
},
{
glyphname = Ccedilla;
lastChange = "2015-11-29 23:18:23 +0000";
layers = (
{
layerId = "B4CEBB5F-E069-4C92-9919-8A70C4320291";
name = Light;
paths = (
{
closed = 1;
nodes = (
"520 -15 OFFCURVE",
"605 9 OFFCURVE",
"668 72 CURVE",
"668 102 LINE",
"600 33 OFFCURVE",
"519 9 OFFCURVE",
"421 9 CURVE SMOOTH",
"237 9 OFFCURVE",
"86 139 OFFCURVE",
"86 349 CURVE SMOOTH",
"86 558 OFFCURVE",
"234 690 OFFCURVE",
"421 690 CURVE SMOOTH",
"512 690 OFFCURVE",
"596 663 OFFCURVE",
"659 602 CURVE",
"659 632 LINE",
"596 687 OFFCURVE",
"515 714 OFFCURVE",
"421 714 CURVE SMOOTH",
"216 714 OFFCURVE",
"60 568 OFFCURVE",
"60 349 CURVE SMOOTH",
"60 131 OFFCURVE",
"216 -15 OFFCURVE",
"421 -15 CURVE SMOOTH"
);
},
{
closed = 1;
nodes = (
"480 -248 OFFCURVE",
"514 -212 OFFCURVE",
"514 -162 CURVE SMOOTH",
"514 -113 OFFCURVE",
"484 -77 OFFCURVE",
"417 -74 CURVE",
"446 0 LINE",
"418 0 LINE",
"382 -93 LINE",
"464 -93 OFFCURVE",
"488 -117 OFFCURVE",
"488 -161 CURVE SMOOTH",
"488 -205 OFFCURVE",
"459 -224 OFFCURVE",
"411 -224 CURVE SMOOTH",
"393 -224 OFFCURVE",
"368 -221 OFFCURVE",
"356 -216 CURVE",
"356 -240 LINE",
"367 -244 OFFCURVE",
"391 -248 OFFCURVE",
"411 -248 CURVE SMOOTH"
);
}
);
width = 728;
}
);
leftKerningGroup = C;
note = Ccedilla;
rightKerningGroup = C;
unicode = 00C7;
},
{
glyphname = Ccircumflex;
lastChange = "2015-11-29 23:18:23 +0000";
layers = (
{
layerId = "B4CEBB5F-E069-4C92-9919-8A70C4320291";
name = Light;
paths = (
{
closed = 1;
nodes = (
"520 -15 OFFCURVE",
"605 9 OFFCURVE",
"668 72 CURVE",
"668 102 LINE",
"600 33 OFFCURVE",
"519 9 OFFCURVE",
"421 9 CURVE SMOOTH",
"237 9 OFFCURVE",
"86 139 OFFCURVE",
"86 349 CURVE SMOOTH",
"86 558 OFFCURVE",
"234 690 OFFCURVE",
"421 690 CURVE SMOOTH",
"512 690 OFFCURVE",
"596 663 OFFCURVE",
"659 602 CURVE",
"659 632 LINE",
"596 687 OFFCURVE",
"515 714 OFFCURVE",
"421 714 CURVE SMOOTH",
"216 714 OFFCURVE",
"60 568 OFFCURVE",
"60 349 CURVE SMOOTH",
"60 131 OFFCURVE",
"216 -15 OFFCURVE",
"421 -15 CURVE SMOOTH"
);
},
{
closed = 1;
nodes = (
"305 786 LINE",
"413 915 LINE",
"521 786 LINE",
"552 786 LINE",
"424 937 LINE",
"402 937 LINE",
"274 786 LINE"
);
}
);
width = 728;
}
);
leftKerningGroup = C;
note = Ccircumflex;
rightKerningGroup = C;
unicode = 0108;
},
{
glyphname = Cdotaccent;
lastChange = "2015-11-29 23:18:24 +0000";
layers = (
{
layerId = "B4CEBB5F-E069-4C92-9919-8A70C4320291";
name = Light;
paths = (
{
closed = 1;
nodes = (
"520 -15 OFFCURVE",
"605 9 OFFCURVE",
"668 72 CURVE",
"668 102 LINE",
"600 33 OFFCURVE",
"519 9 OFFCURVE",
"421 9 CURVE SMOOTH",
"237 9 OFFCURVE",
"86 139 OFFCURVE",
"86 349 CURVE SMOOTH",
"86 558 OFFCURVE",
"234 690 OFFCURVE",
"421 690 CURVE SMOOTH",
"512 690 OFFCURVE",
"596 663 OFFCURVE",
"659 602 CURVE",
"659 632 LINE",
"596 687 OFFCURVE",
"515 714 OFFCURVE",
"421 714 CURVE SMOOTH",
"216 714 OFFCURVE",
"60 568 OFFCURVE",
"60 349 CURVE SMOOTH",
"60 131 OFFCURVE",
"216 -15 OFFCURVE",
"421 -15 CURVE SMOOTH"
);
},
{
closed = 1;
nodes = (
"439 802 OFFCURVE",
"452 815 OFFCURVE",
"452 830 CURVE SMOOTH",
"452 845 OFFCURVE",
"439 858 OFFCURVE",
"424 858 CURVE SMOOTH",
"409 858 OFFCURVE",
"396 845 OFFCURVE",
"396 830 CURVE SMOOTH",
"396 815 OFFCURVE",
"409 802 OFFCURVE",
"424 802 CURVE SMOOTH"
);
}
);
width = 728;
}
);
leftKerningGroup = C;
note = Cdotaccent;
rightKerningGroup = C;
unicode = 010A;
},
{
glyphname = D;
lastChange = "2015-11-29 23:18:23 +0000";
layers = (
{
layerId = "B4CEBB5F-E069-4C92-9919-8A70C4320291";
name = Light;
paths = (
{
closed = 1;
nodes = (
"257 0 LINE SMOOTH",
"495 0 OFFCURVE",
"636 117 OFFCURVE",
"636 353 CURVE SMOOTH",
"636 566 OFFCURVE",
"503 699 OFFCURVE",
"279 699 CURVE SMOOTH",
"80 699 LINE",
"80 0 LINE"
);
},
{
closed = 1;
nodes = (
"108 675 LINE",
"272 675 LINE SMOOTH",
"488 675 OFFCURVE",
"610 556 OFFCURVE",
"610 353 CURVE SMOOTH",
"610 137 OFFCURVE",
"491 24 OFFCURVE",
"246 24 CURVE SMOOTH",
"108 24 LINE"
);
}
);
width = 696;
}
);
note = D;
rightKerningGroup = D;
unicode = 0044;
},
{
glyphname = Eth;
lastChange = "2015-11-29 23:18:23 +0000";
layers = (
{
layerId = "B4CEBB5F-E069-4C92-9919-8A70C4320291";
name = Light;
paths = (
{
closed = 1;
nodes = (
"296 0 LINE SMOOTH",
"534 0 OFFCURVE",
"675 117 OFFCURVE",
"675 353 CURVE SMOOTH",
"675 566 OFFCURVE",
"542 699 OFFCURVE",
"318 699 CURVE SMOOTH",
"119 699 LINE",
"119 361 LINE",
"40 361 LINE",
"40 337 LINE",
"119 337 LINE",
"119 0 LINE"
);
},
{
closed = 1;
nodes = (
"147 337 LINE",
"373 337 LINE",
"373 361 LINE",
"147 361 LINE",
"147 675 LINE",
"311 675 LINE SMOOTH",
"527 675 OFFCURVE",
"649 556 OFFCURVE",
"649 353 CURVE SMOOTH",
"649 137 OFFCURVE",
"530 24 OFFCURVE",
"285 24 CURVE SMOOTH",
"147 24 LINE"
);
}
);
width = 715;
}
);
note = Eth;
rightKerningGroup = D;
unicode = 00D0;
},
{
glyphname = Dcaron;
lastChange = "2015-11-29 23:18:22 +0000";
layers = (
{
layerId = "B4CEBB5F-E069-4C92-9919-8A70C4320291";
name = Light;
paths = (
{
closed = 1;
nodes = (
"257 0 LINE SMOOTH",
"495 0 OFFCURVE",
"636 117 OFFCURVE",
"636 353 CURVE SMOOTH",
"636 566 OFFCURVE",
"503 699 OFFCURVE",
"279 699 CURVE SMOOTH",
"80 699 LINE",
"80 0 LINE"
);
},
{
closed = 1;
nodes = (
"108 675 LINE",
"272 675 LINE SMOOTH",
"488 675 OFFCURVE",
"610 556 OFFCURVE",
"610 353 CURVE SMOOTH",
"610 137 OFFCURVE",
"491 24 OFFCURVE",
"246 24 CURVE SMOOTH",
"108 24 LINE"
);
},
{
closed = 1;
nodes = (
"294 798 LINE",
"422 949 LINE",
"391 949 LINE",
"283 820 LINE",
"175 949 LINE",
"144 949 LINE",
"272 798 LINE"
);
}
);
width = 696;
}
);
note = Dcaron;
rightKerningGroup = D;
unicode = 010E;
},
{
glyphname = Dcroat;
lastChange = "2015-11-29 23:18:22 +0000";
layers = (
{
layerId = "B4CEBB5F-E069-4C92-9919-8A70C4320291";
name = Light;
paths = (
{
closed = 1;
nodes = (
"286 0 LINE SMOOTH",
"524 0 OFFCURVE",
"665 117 OFFCURVE",
"665 353 CURVE SMOOTH",
"665 566 OFFCURVE",
"532 699 OFFCURVE",
"308 699 CURVE SMOOTH",
"109 699 LINE",
"109 361 LINE",
"30 361 LINE",
"30 337 LINE",
"109 337 LINE",
"109 0 LINE"
);
},
{
closed = 1;
nodes = (
"137 337 LINE",
"363 337 LINE",
"363 361 LINE",
"137 361 LINE",
"137 675 LINE",
"301 675 LINE SMOOTH",
"517 675 OFFCURVE",
"639 556 OFFCURVE",
"639 353 CURVE SMOOTH",
"639 137 OFFCURVE",
"520 24 OFFCURVE",
"275 24 CURVE SMOOTH",
"137 24 LINE"
);
}
);
width = 725;
}
);
note = Dcroat;
rightKerningGroup = D;
unicode = 0110;
},
{
glyphname = Ddotbelow;
lastChange = "2015-11-29 23:18:22 +0000";
layers = (
{
layerId = "B4CEBB5F-E069-4C92-9919-8A70C4320291";
name = Light;
paths = (
{
closed = 1;
nodes = (
"257 0 LINE SMOOTH",
"495 0 OFFCURVE",
"636 117 OFFCURVE",
"636 353 CURVE SMOOTH",
"636 566 OFFCURVE",
"503 699 OFFCURVE",
"279 699 CURVE SMOOTH",
"80 699 LINE",
"80 0 LINE"
);
},
{
closed = 1;
nodes = (
"289 -121 OFFCURVE",
"302 -108 OFFCURVE",
"302 -93 CURVE SMOOTH",
"302 -78 OFFCURVE",
"289 -65 OFFCURVE",
"274 -65 CURVE SMOOTH",
"259 -65 OFFCURVE",
"246 -78 OFFCURVE",
"246 -93 CURVE SMOOTH",
"246 -108 OFFCURVE",
"259 -121 OFFCURVE",
"274 -121 CURVE SMOOTH"
);
},
{
closed = 1;
nodes = (
"108 675 LINE",
"272 675 LINE SMOOTH",
"488 675 OFFCURVE",
"610 556 OFFCURVE",
"610 353 CURVE SMOOTH",
"610 137 OFFCURVE",
"491 24 OFFCURVE",
"246 24 CURVE SMOOTH",
"108 24 LINE"
);
}
);
width = 696;
}
);
note = Ddotbelow;
rightKerningGroup = D;
unicode = 1E0C;
},
{
glyphname = Dlinebelow;
lastChange = "2015-11-29 23:18:22 +0000";
layers = (
{
layerId = "B4CEBB5F-E069-4C92-9919-8A70C4320291";
name = Light;
paths = (
{
closed = 1;
nodes = (
"257 0 LINE SMOOTH",
"495 0 OFFCURVE",
"636 117 OFFCURVE",
"636 353 CURVE SMOOTH",
"636 566 OFFCURVE",
"503 699 OFFCURVE",
"279 699 CURVE SMOOTH",
"80 699 LINE",
"80 0 LINE"
);
},
{
closed = 1;
nodes = (
"393 -110 LINE",
"393 -86 LINE",
"115 -86 LINE",
"115 -110 LINE"
);
},
{
closed = 1;
nodes = (
"108 675 LINE",
"272 675 LINE SMOOTH",
"488 675 OFFCURVE",
"610 556 OFFCURVE",
"610 353 CURVE SMOOTH",
"610 137 OFFCURVE",
"491 24 OFFCURVE",
"246 24 CURVE SMOOTH",
"108 24 LINE"
);
}
);
width = 696;
}
);
note = Dlinebelow;
rightKerningGroup = D;
unicode = 1E0E;
},
{
glyphname = E;
lastChange = "2015-11-29 23:21:45 +0000";
layers = (
{
layerId = "B4CEBB5F-E069-4C92-9919-8A70C4320291";
name = Light;
paths = (
{
closed = 1;
nodes = (
"507 0 LINE",
"507 24 LINE",
"108 24 LINE",
"108 338 LINE",
"411 338 LINE",
"411 362 LINE",
"108 362 LINE",
"108 675 LINE",
"507 675 LINE",
"507 699 LINE",
"80 699 LINE",
"80 0 LINE"
);
}
);
width = 567;
}
);
leftKerningGroup = E;
note = E;
rightKerningGroup = E;
unicode = 0045;
},
{
glyphname = Eacute;
lastChange = "2015-11-29 23:21:45 +0000";
layers = (
{
layerId = "B4CEBB5F-E069-4C92-9919-8A70C4320291";
name = Light;
paths = (
{
closed = 1;
nodes = (
"507 0 LINE",
"507 24 LINE",
"108 24 LINE",
"108 338 LINE",
"411 338 LINE",
"411 362 LINE",
"108 362 LINE",
"108 675 LINE",
"507 675 LINE",
"507 699 LINE",
"80 699 LINE",
"80 0 LINE"
);
},
{
closed = 1;
nodes = (
"263 792 LINE",
"340 959 LINE",
"312 959 LINE",
"241 792 LINE"
);
}
);
width = 567;
}
);
leftKerningGroup = E;
note = Eacute;
rightKerningGroup = E;
unicode = 00C9;
},
{
glyphname = Ebreve;
lastChange = "2015-11-29 23:18:23 +0000";
layers = (
{
layerId = "B4CEBB5F-E069-4C92-9919-8A70C4320291";
name = Light;
paths = (
{
closed = 1;
nodes = (
"507 0 LINE",
"507 24 LINE",
"108 24 LINE",
"108 338 LINE",
"411 338 LINE",
"411 362 LINE",
"108 362 LINE",
"108 675 LINE",
"507 675 LINE",
"507 699 LINE",
"80 699 LINE",
"80 0 LINE"
);
},
{
closed = 1;
nodes = (
"353 770 OFFCURVE",
"401 818 OFFCURVE",
"401 878 CURVE",
"377 878 LINE",
"377 830 OFFCURVE",
"342 793 OFFCURVE",
"283 793 CURVE SMOOTH",
"225 793 OFFCURVE",
"189 830 OFFCURVE",
"189 878 CURVE",
"165 878 LINE",
"165 818 OFFCURVE",
"213 770 OFFCURVE",
"283 770 CURVE SMOOTH"
);
}
);
width = 567;
}
);
leftKerningGroup = E;
note = Ebreve;
rightKerningGroup = E;
unicode = 0114;
},
{
glyphname = Ecaron;
lastChange = "2015-11-29 23:18:23 +0000";
layers = (
{
layerId = "B4CEBB5F-E069-4C92-9919-8A70C4320291";
name = Light;
paths = (
{
closed = 1;
nodes = (
"507 0 LINE",
"507 24 LINE",
"108 24 LINE",
"108 338 LINE",
"411 338 LINE",
"411 362 LINE",
"108 362 LINE",
"108 675 LINE",
"507 675 LINE",
"507 699 LINE",
"80 699 LINE",
"80 0 LINE"
);
},
{
closed = 1;
nodes = (
"284 798 LINE",
"412 949 LINE",
"381 949 LINE",
"273 820 LINE",
"165 949 LINE",
"134 949 LINE",
"262 798 LINE"
);
}
);
width = 567;
}
);
leftKerningGroup = E;
note = Ecaron;
rightKerningGroup = E;
unicode = 011A;
},
{
glyphname = Ecircumflex;
lastChange = "2015-11-29 23:18:24 +0000";
layers = (
{
layerId = "B4CEBB5F-E069-4C92-9919-8A70C4320291";
name = Light;
paths = (
{
closed = 1;
nodes = (
"507 0 LINE",
"507 24 LINE",
"108 24 LINE",
"108 338 LINE",
"411 338 LINE",
"411 362 LINE",
"108 362 LINE",
"108 675 LINE",
"507 675 LINE",
"507 699 LINE",
"80 699 LINE",
"80 0 LINE"
);
},
{
closed = 1;
nodes = (
"183 774 LINE",
"291 903 LINE",
"399 774 LINE",
"430 774 LINE",
"302 925 LINE",
"280 925 LINE",
"152 774 LINE"
);
}
);
width = 567;
}
);
leftKerningGroup = E;
note = Ecircumflex;
rightKerningGroup = E;
unicode = 00CA;
},
{
glyphname = Ecircumflexacute;
lastChange = "2015-11-29 23:18:23 +0000";
layers = (
{
layerId = "B4CEBB5F-E069-4C92-9919-8A70C4320291";
name = Light;
paths = (
{
closed = 1;
nodes = (
"507 0 LINE",
"507 24 LINE",
"108 24 LINE",
"108 338 LINE",
"411 338 LINE",
"411 362 LINE",
"108 362 LINE",
"108 675 LINE",
"507 675 LINE",
"507 699 LINE",
"80 699 LINE",
"80 0 LINE"
);
},
{
closed = 1;
nodes = (
"167 757 LINE",
"275 859 LINE",
"383 757 LINE",
"414 757 LINE",
"286 878 LINE",
"264 878 LINE",
"136 757 LINE"
);
},
{
closed = 1;
nodes = (
"379 840 LINE",
"450 948 LINE",
"422 948 LINE",
"357 840 LINE"
);
}
);
width = 567;
}
);
leftKerningGroup = E;
note = Ecircumflexacute;
rightKerningGroup = E;
unicode = 1EBE;
},
{
glyphname = Ecircumflexdotbelow;
lastChange = "2015-11-29 23:18:23 +0000";
layers = (
{
layerId = "B4CEBB5F-E069-4C92-9919-8A70C4320291";
name = Light;
paths = (
{
closed = 1;
nodes = (
"507 0 LINE",
"507 24 LINE",
"108 24 LINE",
"108 338 LINE",
"411 338 LINE",
"411 362 LINE",
"108 362 LINE",
"108 675 LINE",
"507 675 LINE",
"507 699 LINE",
"80 699 LINE",
"80 0 LINE"
);
},
{
closed = 1;
nodes = (
"298 -121 OFFCURVE",
"311 -108 OFFCURVE",
"311 -93 CURVE SMOOTH",
"311 -78 OFFCURVE",
"298 -65 OFFCURVE",
"283 -65 CURVE SMOOTH",
"268 -65 OFFCURVE",
"255 -78 OFFCURVE",
"255 -93 CURVE SMOOTH",
"255 -108 OFFCURVE",
"268 -121 OFFCURVE",
"283 -121 CURVE SMOOTH"
);
},
{
closed = 1;
nodes = (
"175 784 LINE",
"283 913 LINE",
"391 784 LINE",
"422 784 LINE",
"294 935 LINE",
"272 935 LINE",
"144 784 LINE"
);
}
);
width = 567;
}
);
leftKerningGroup = E;
note = Ecircumflexdotbelow;
rightKerningGroup = E;
unicode = 1EC6;
},
{
glyphname = Ecircumflexgrave;
lastChange = "2015-11-29 23:18:23 +0000";
layers = (
{
layerId = "B4CEBB5F-E069-4C92-9919-8A70C4320291";
name = Light;
paths = (
{
closed = 1;
nodes = (
"507 0 LINE",
"507 24 LINE",
"108 24 LINE",
"108 338 LINE",
"411 338 LINE",
"411 362 LINE",
"108 362 LINE",
"108 675 LINE",
"507 675 LINE",
"507 699 LINE",
"80 699 LINE",
"80 0 LINE"
);
},
{
closed = 1;
nodes = (
"212 840 LINE",
"147 948 LINE",
"119 948 LINE",
"190 840 LINE"
);
},
{
closed = 1;
nodes = (
"186 757 LINE",
"294 859 LINE",
"402 757 LINE",
"433 757 LINE",
"305 878 LINE",
"283 878 LINE",
"155 757 LINE"
);
}
);
width = 567;
}
);
leftKerningGroup = E;
note = Ecircumflexgrave;
rightKerningGroup = E;
unicode = 1EC0;
},
{
glyphname = Ecircumflexhookabove;
lastChange = "2015-11-29 23:18:23 +0000";
layers = (
{
layerId = "B4CEBB5F-E069-4C92-9919-8A70C4320291";
name = Light;
paths = (
{
closed = 1;
nodes = (
"507 0 LINE",
"507 24 LINE",
"108 24 LINE",
"108 338 LINE",
"411 338 LINE",
"411 362 LINE",
"108 362 LINE",
"108 675 LINE",
"507 675 LINE",
"507 699 LINE",
"80 699 LINE",
"80 0 LINE"
);
},
{
closed = 1;
nodes = (
"178 757 LINE",
"286 859 LINE",
"394 757 LINE",
"425 757 LINE",
"297 878 LINE",
"275 878 LINE",
"147 757 LINE"
);
},
{
closed = 1;
nodes = (
"391 830 LINE",
"391 857 LINE",
"435 859 OFFCURVE",
"461 882 OFFCURVE",
"461 917 CURVE SMOOTH",
"461 954 OFFCURVE",
"440 979 OFFCURVE",
"391 979 CURVE SMOOTH",
"373 979 OFFCURVE",
"353 975 OFFCURVE",
"342 971 CURVE",
"342 948 LINE",
"353 953 OFFCURVE",
"374 957 OFFCURVE",
"391 957 CURVE SMOOTH",
"421 957 OFFCURVE",
"437 947 OFFCURVE",
"437 917 CURVE SMOOTH",
"437 886 OFFCURVE",
"418 875 OFFCURVE",
"370 875 CURVE",
"370 830 LINE"
);
}
);
width = 567;
}
);
leftKerningGroup = E;
note = Ecircumflexhookabove;
rightKerningGroup = E;
unicode = 1EC2;
},
{
glyphname = Ecircumflextilde;
lastChange = "2015-11-29 23:18:22 +0000";
layers = (
{
layerId = "B4CEBB5F-E069-4C92-9919-8A70C4320291";
name = Light;
paths = (
{
closed = 1;
nodes = (
"507 0 LINE",
"507 24 LINE",
"108 24 LINE",
"108 338 LINE",
"411 338 LINE",
"411 362 LINE",
"108 362 LINE",
"108 675 LINE",
"507 675 LINE",
"507 699 LINE",
"80 699 LINE",
"80 0 LINE"
);
},
{
closed = 1;
nodes = (
"179 757 LINE",
"287 859 LINE",
"395 757 LINE",
"426 757 LINE",
"298 878 LINE",
"276 878 LINE",
"148 757 LINE"
);
},
{
closed = 1;
nodes = (
"392 891 OFFCURVE",
"413 902 OFFCURVE",
"427 928 CURVE",
"427 958 LINE",
"408 923 OFFCURVE",
"388 913 OFFCURVE",
"358 913 CURVE SMOOTH",
"316 913 OFFCURVE",
"261 959 OFFCURVE",
"216 959 CURVE SMOOTH",
"182 959 OFFCURVE",
"161 948 OFFCURVE",
"147 922 CURVE",
"147 892 LINE",
"168 927 OFFCURVE",
"186 937 OFFCURVE",
"216 937 CURVE SMOOTH",
"257 937 OFFCURVE",
"309 891 OFFCURVE",
"358 891 CURVE SMOOTH"
);
}
);
width = 567;
}
);
leftKerningGroup = E;
note = Ecircumflextilde;
rightKerningGroup = E;
unicode = 1EC4;
},
{
glyphname = Edieresis;
lastChange = "2015-11-29 23:18:24 +0000";
layers = (
{
layerId = "B4CEBB5F-E069-4C92-9919-8A70C4320291";
name = Light;
paths = (
{
closed = 1;
nodes = (
"507 0 LINE",
"507 24 LINE",
"108 24 LINE",
"108 338 LINE",
"411 338 LINE",
"411 362 LINE",
"108 362 LINE",
"108 675 LINE",
"507 675 LINE",
"507 699 LINE",
"80 699 LINE",
"80 0 LINE"
);
},
{
closed = 1;
nodes = (
"190 802 OFFCURVE",
"203 815 OFFCURVE",
"203 830 CURVE SMOOTH",
"203 845 OFFCURVE",
"190 858 OFFCURVE",
"175 858 CURVE SMOOTH",
"160 858 OFFCURVE",
"147 845 OFFCURVE",
"147 830 CURVE SMOOTH",
"147 815 OFFCURVE",
"160 802 OFFCURVE",
"175 802 CURVE SMOOTH"
);
},
{
closed = 1;
nodes = (
"388 802 OFFCURVE",
"401 815 OFFCURVE",
"401 830 CURVE SMOOTH",
"401 845 OFFCURVE",
"388 858 OFFCURVE",
"373 858 CURVE SMOOTH",
"358 858 OFFCURVE",
"345 845 OFFCURVE",
"345 830 CURVE SMOOTH",
"345 815 OFFCURVE",
"358 802 OFFCURVE",
"373 802 CURVE SMOOTH"
);
}
);
width = 567;
}
);
leftKerningGroup = E;
note = Edieresis;
rightKerningGroup = E;
unicode = 00CB;
},
{
glyphname = Edotaccent;
lastChange = "2015-11-29 23:18:23 +0000";
layers = (
{
layerId = "B4CEBB5F-E069-4C92-9919-8A70C4320291";
name = Light;
paths = (
{
closed = 1;
nodes = (
"507 0 LINE",
"507 24 LINE",
"108 24 LINE",
"108 338 LINE",
"411 338 LINE",
"411 362 LINE",
"108 362 LINE",
"108 675 LINE",
"507 675 LINE",
"507 699 LINE",
"80 699 LINE",
"80 0 LINE"
);
},
{
closed = 1;
nodes = (
"288 802 OFFCURVE",
"301 815 OFFCURVE",
"301 830 CURVE SMOOTH",
"301 845 OFFCURVE",
"288 858 OFFCURVE",
"273 858 CURVE SMOOTH",
"258 858 OFFCURVE",
"245 845 OFFCURVE",
"245 830 CURVE SMOOTH",
"245 815 OFFCURVE",
"258 802 OFFCURVE",
"273 802 CURVE SMOOTH"
);
}
);
width = 567;
}
);
leftKerningGroup = E;
note = Edotaccent;
rightKerningGroup = E;
unicode = 0116;
},
{
glyphname = Edotbelow;
lastChange = "2015-11-29 23:18:23 +0000";
layers = (
{
layerId = "B4CEBB5F-E069-4C92-9919-8A70C4320291";
name = Light;
paths = (
{
closed = 1;
nodes = (
"507 0 LINE",
"507 24 LINE",
"108 24 LINE",
"108 338 LINE",
"411 338 LINE",
"411 362 LINE",
"108 362 LINE",
"108 675 LINE",
"507 675 LINE",
"507 699 LINE",
"80 699 LINE",
"80 0 LINE"
);
},
{
closed = 1;
nodes = (
"281 -121 OFFCURVE",
"294 -108 OFFCURVE",
"294 -93 CURVE SMOOTH",
"294 -78 OFFCURVE",
"281 -65 OFFCURVE",
"266 -65 CURVE SMOOTH",
"251 -65 OFFCURVE",
"238 -78 OFFCURVE",
"238 -93 CURVE SMOOTH",
"238 -108 OFFCURVE",
"251 -121 OFFCURVE",
"266 -121 CURVE SMOOTH"
);
}
);
width = 567;
}
);
leftKerningGroup = E;
note = Edotbelow;
rightKerningGroup = E;
unicode = 1EB8;
},
{
glyphname = Egrave;
lastChange = "2015-11-29 23:18:22 +0000";
layers = (
{
layerId = "B4CEBB5F-E069-4C92-9919-8A70C4320291";
name = Light;
paths = (
{
closed = 1;
nodes = (
"507 0 LINE",
"507 24 LINE",
"108 24 LINE",
"108 338 LINE",
"411 338 LINE",
"411 362 LINE",
"108 362 LINE",
"108 675 LINE",
"507 675 LINE",
"507 699 LINE",
"80 699 LINE",
"80 0 LINE"
);
},
{
closed = 1;
nodes = (
"301 792 LINE",
"230 959 LINE",
"202 959 LINE",
"279 792 LINE"
);
}
);
width = 567;
}
);
leftKerningGroup = E;
note = Egrave;
rightKerningGroup = E;
unicode = 00C8;
},
{
glyphname = Ehookabove;
lastChange = "2015-11-29 23:18:23 +0000";
layers = (
{
layerId = "B4CEBB5F-E069-4C92-9919-8A70C4320291";
name = Light;
paths = (
{
closed = 1;
nodes = (
"507 0 LINE",
"507 24 LINE",
"108 24 LINE",
"108 338 LINE",
"411 338 LINE",
"411 362 LINE",
"108 362 LINE",
"108 675 LINE",
"507 675 LINE",
"507 699 LINE",
"80 699 LINE",
"80 0 LINE"
);
},
{
closed = 1;
nodes = (
"277 784 LINE",
"277 828 LINE",
"342 831 OFFCURVE",
"374 866 OFFCURVE",
"374 915 CURVE SMOOTH",
"374 965 OFFCURVE",
"340 1001 OFFCURVE",
"271 1001 CURVE SMOOTH",
"251 1001 OFFCURVE",
"227 997 OFFCURVE",
"216 993 CURVE",
"216 969 LINE",
"228 974 OFFCURVE",
"253 977 OFFCURVE",
"271 977 CURVE SMOOTH",
"319 977 OFFCURVE",
"348 958 OFFCURVE",
"348 914 CURVE SMOOTH",
"348 870 OFFCURVE",
"326 847 OFFCURVE",
"254 847 CURVE",
"254 784 LINE"
);
}
);
width = 567;
}
);
leftKerningGroup = E;
note = Ehookabove;
rightKerningGroup = E;
unicode = 1EBA;
},
{
glyphname = Emacron;
lastChange = "2015-11-29 23:18:23 +0000";
layers = (
{
layerId = "B4CEBB5F-E069-4C92-9919-8A70C4320291";
name = Light;
paths = (
{
closed = 1;
nodes = (
"507 0 LINE",
"507 24 LINE",
"108 24 LINE",
"108 338 LINE",
"411 338 LINE",
"411 362 LINE",
"108 362 LINE",
"108 675 LINE",
"507 675 LINE",
"507 699 LINE",
"80 699 LINE",
"80 0 LINE"
);
},
{
closed = 1;
nodes = (
"428 825 LINE",
"428 849 LINE",
"150 849 LINE",
"150 825 LINE"
);
}
);
width = 567;
}
);
leftKerningGroup = E;
note = Emacron;
rightKerningGroup = E;
unicode = 0112;
},
{
glyphname = Eogonek;
lastChange = "2015-11-29 23:18:22 +0000";
layers = (
{
layerId = "B4CEBB5F-E069-4C92-9919-8A70C4320291";
name = Light;
paths = (
{
closed = 1;
nodes = (
"507 0 LINE",
"507 24 LINE",
"108 24 LINE",
"108 338 LINE",
"411 338 LINE",
"411 362 LINE",
"108 362 LINE",
"108 675 LINE",
"507 675 LINE",
"507 699 LINE",
"80 699 LINE",
"80 0 LINE"
);
},
{
closed = 1;
nodes = (
"459 -206 OFFCURVE",
"474 -203 OFFCURVE",
"485 -198 CURVE",
"485 -174 LINE",
"473 -179 OFFCURVE",
"457 -182 OFFCURVE",
"439 -182 CURVE SMOOTH",
"408 -182 OFFCURVE",
"383 -164 OFFCURVE",
"383 -125 CURVE SMOOTH",
"383 -76 OFFCURVE",
"415 -36 OFFCURVE",
"462 0 CURVE",
"434 0 LINE",
"392 -27 OFFCURVE",
"357 -73 OFFCURVE",
"357 -125 CURVE SMOOTH",
"357 -179 OFFCURVE",
"396 -206 OFFCURVE",
"439 -206 CURVE SMOOTH"
);
}
);
width = 567;
}
);
leftKerningGroup = E;
note = Eogonek;
rightKerningGroup = E;
unicode = 0118;
},
{
glyphname = Etilde;
lastChange = "2015-11-29 23:18:23 +0000";
layers = (
{
layerId = "B4CEBB5F-E069-4C92-9919-8A70C4320291";
name = Light;
paths = (
{
closed = 1;
nodes = (
"507 0 LINE",
"507 24 LINE",
"108 24 LINE",
"108 338 LINE",
"411 338 LINE",
"411 362 LINE",
"108 362 LINE",
"108 675 LINE",
"507 675 LINE",
"507 699 LINE",
"80 699 LINE",
"80 0 LINE"
);
},
{
closed = 1;
nodes = (
"124 827 OFFCURVE",
"153 838 OFFCURVE",
"186 838 CURVE SMOOTH",
"250 838 OFFCURVE",
"287 788 OFFCURVE",
"360 788 CURVE SMOOTH",
"397 788 OFFCURVE",
"430 800 OFFCURVE",
"450 833 CURVE",
"450 866 LINE",
"424 823 OFFCURVE",
"393 812 OFFCURVE",
"360 812 CURVE SMOOTH",
"295 812 OFFCURVE",
"254 862 OFFCURVE",
"186 862 CURVE SMOOTH",
"149 862 OFFCURVE",
"116 850 OFFCURVE",
"96 817 CURVE",
"96 784 LINE"
);
}
);
width = 567;
}
);
leftKerningGroup = E;
note = Etilde;
rightKerningGroup = E;
unicode = 1EBC;
},
{
glyphname = F;
lastChange = "2015-11-29 23:18:18 +0000";
layers = (
{
layerId = "B4CEBB5F-E069-4C92-9919-8A70C4320291";
name = Light;
paths = (
{
closed = 1;
nodes = (
"108 0 LINE",
"108 338 LINE",
"411 338 LINE",
"411 362 LINE",
"108 362 LINE",
"108 675 LINE",
"507 675 LINE",
"507 699 LINE",
"80 699 LINE",
"80 0 LINE"
);
}
);
width = 547;
}
);
note = F;
unicode = 0046;
},
{
glyphname = G;
lastChange = "2015-11-29 23:18:18 +0000";
layers = (
{
layerId = "B4CEBB5F-E069-4C92-9919-8A70C4320291";
name = Light;
paths = (
{
closed = 1;
nodes = (
"520 -15 OFFCURVE",
"605 9 OFFCURVE",
"668 72 CURVE",
"668 363 LINE",
"463 363 LINE",
"463 339 LINE",
"640 339 LINE",
"640 77 LINE",
"578 28 OFFCURVE",
"510 9 OFFCURVE",
"421 9 CURVE SMOOTH",
"237 9 OFFCURVE",
"86 139 OFFCURVE",
"86 349 CURVE SMOOTH",
"86 558 OFFCURVE",
"234 690 OFFCURVE",
"421 690 CURVE SMOOTH",
"512 690 OFFCURVE",
"595 666 OFFCURVE",
"658 605 CURVE",
"658 635 LINE",
"595 690 OFFCURVE",
"515 714 OFFCURVE",
"421 714 CURVE SMOOTH",
"216 714 OFFCURVE",
"60 568 OFFCURVE",
"60 349 CURVE SMOOTH",
"60 131 OFFCURVE",
"216 -15 OFFCURVE",
"421 -15 CURVE SMOOTH"
);
}
);
width = 728;
}
);
leftKerningGroup = C;
note = G;
unicode = 0047;
},
{
glyphname = Gbreve;
lastChange = "2015-11-29 23:18:23 +0000";
layers = (
{
layerId = "B4CEBB5F-E069-4C92-9919-8A70C4320291";
name = Light;
paths = (
{
closed = 1;
nodes = (
"520 -15 OFFCURVE",
"605 9 OFFCURVE",
"668 72 CURVE",
"668 363 LINE",
"463 363 LINE",
"463 339 LINE",
"640 339 LINE",
"640 77 LINE",
"578 28 OFFCURVE",
"510 9 OFFCURVE",
"421 9 CURVE SMOOTH",
"237 9 OFFCURVE",
"86 139 OFFCURVE",
"86 349 CURVE SMOOTH",
"86 558 OFFCURVE",
"234 690 OFFCURVE",
"421 690 CURVE SMOOTH",
"512 690 OFFCURVE",
"595 666 OFFCURVE",
"658 605 CURVE",
"658 635 LINE",
"595 690 OFFCURVE",
"515 714 OFFCURVE",
"421 714 CURVE SMOOTH",
"216 714 OFFCURVE",
"60 568 OFFCURVE",
"60 349 CURVE SMOOTH",
"60 131 OFFCURVE",
"216 -15 OFFCURVE",
"421 -15 CURVE SMOOTH"
);
},
{
closed = 1;
nodes = (
"475 746 OFFCURVE",
"523 794 OFFCURVE",
"523 854 CURVE",
"499 854 LINE",
"499 806 OFFCURVE",
"464 769 OFFCURVE",
"405 769 CURVE SMOOTH",
"347 769 OFFCURVE",
"311 806 OFFCURVE",
"311 854 CURVE",
"287 854 LINE",
"287 794 OFFCURVE",
"335 746 OFFCURVE",
"405 746 CURVE SMOOTH"
);
}
);
width = 728;
}
);
leftKerningGroup = C;
note = Gbreve;
unicode = 011E;
},
{
glyphname = Gcaron;
lastChange = "2015-11-29 23:18:23 +0000";
layers = (
{
layerId = "B4CEBB5F-E069-4C92-9919-8A70C4320291";
name = Light;
paths = (
{
closed = 1;
nodes = (
"520 -15 OFFCURVE",
"605 9 OFFCURVE",
"668 72 CURVE",
"668 363 LINE",
"463 363 LINE",
"463 339 LINE",
"640 339 LINE",
"640 77 LINE",
"578 28 OFFCURVE",
"510 9 OFFCURVE",
"421 9 CURVE SMOOTH",
"237 9 OFFCURVE",
"86 139 OFFCURVE",
"86 349 CURVE SMOOTH",
"86 558 OFFCURVE",
"234 690 OFFCURVE",
"421 690 CURVE SMOOTH",
"512 690 OFFCURVE",
"595 666 OFFCURVE",
"658 605 CURVE",
"658 635 LINE",
"595 690 OFFCURVE",
"515 714 OFFCURVE",
"421 714 CURVE SMOOTH",
"216 714 OFFCURVE",
"60 568 OFFCURVE",
"60 349 CURVE SMOOTH",
"60 131 OFFCURVE",
"216 -15 OFFCURVE",
"421 -15 CURVE SMOOTH"
);
},
{
closed = 1;
nodes = (
"429 784 LINE",
"557 935 LINE",
"526 935 LINE",
"418 806 LINE",
"310 935 LINE",
"279 935 LINE",
"407 784 LINE"
);
}
);
width = 728;
}
);
leftKerningGroup = C;
note = Gcaron;
unicode = 01E6;
},
{
glyphname = Gcircumflex;
lastChange = "2015-11-29 23:18:23 +0000";
layers = (
{
layerId = "B4CEBB5F-E069-4C92-9919-8A70C4320291";
name = Light;
paths = (
{
closed = 1;
nodes = (
"520 -15 OFFCURVE",
"605 9 OFFCURVE",
"668 72 CURVE",
"668 363 LINE",
"463 363 LINE",
"463 339 LINE",
"640 339 LINE",
"640 77 LINE",
"578 28 OFFCURVE",
"510 9 OFFCURVE",
"421 9 CURVE SMOOTH",
"237 9 OFFCURVE",
"86 139 OFFCURVE",
"86 349 CURVE SMOOTH",
"86 558 OFFCURVE",
"234 690 OFFCURVE",
"421 690 CURVE SMOOTH",
"512 690 OFFCURVE",
"595 666 OFFCURVE",
"658 605 CURVE",
"658 635 LINE",
"595 690 OFFCURVE",
"515 714 OFFCURVE",
"421 714 CURVE SMOOTH",
"216 714 OFFCURVE",
"60 568 OFFCURVE",
"60 349 CURVE SMOOTH",
"60 131 OFFCURVE",
"216 -15 OFFCURVE",
"421 -15 CURVE SMOOTH"
);
},
{
closed = 1;
nodes = (
"307 774 LINE",
"415 903 LINE",
"523 774 LINE",
"554 774 LINE",
"426 925 LINE",
"404 925 LINE",
"276 774 LINE"
);
}
);
width = 728;
}
);
leftKerningGroup = C;
note = Gcircumflex;
unicode = 011C;
},
{
glyphname = Gcommaaccent;
lastChange = "2015-11-29 23:18:24 +0000";
layers = (
{
layerId = "B4CEBB5F-E069-4C92-9919-8A70C4320291";
name = Light;
paths = (
{
closed = 1;
nodes = (
"520 -15 OFFCURVE",
"605 9 OFFCURVE",
"668 72 CURVE",
"668 363 LINE",
"463 363 LINE",
"463 339 LINE",
"640 339 LINE",
"640 77 LINE",
"578 28 OFFCURVE",
"510 9 OFFCURVE",
"421 9 CURVE SMOOTH",
"237 9 OFFCURVE",
"86 139 OFFCURVE",
"86 349 CURVE SMOOTH",
"86 558 OFFCURVE",
"234 690 OFFCURVE",
"421 690 CURVE SMOOTH",
"512 690 OFFCURVE",
"595 666 OFFCURVE",
"658 605 CURVE",
"658 635 LINE",
"595 690 OFFCURVE",
"515 714 OFFCURVE",
"421 714 CURVE SMOOTH",
"216 714 OFFCURVE",
"60 568 OFFCURVE",
"60 349 CURVE SMOOTH",
"60 131 OFFCURVE",
"216 -15 OFFCURVE",
"421 -15 CURVE SMOOTH"
);
},
{
closed = 1;
nodes = (
"352 -259 LINE",
"437 -70 LINE",
"406 -70 LINE",
"327 -259 LINE"
);
}
);
width = 728;
}
);
leftKerningGroup = C;
note = Gcommaaccent;
unicode = 0122;
},
{
glyphname = Gdotaccent;
lastChange = "2015-11-29 23:18:22 +0000";
layers = (
{
layerId = "B4CEBB5F-E069-4C92-9919-8A70C4320291";
name = Light;
paths = (
{
closed = 1;
nodes = (
"520 -15 OFFCURVE",
"605 9 OFFCURVE",
"668 72 CURVE",
"668 363 LINE",
"463 363 LINE",
"463 339 LINE",
"640 339 LINE",
"640 77 LINE",
"578 28 OFFCURVE",
"510 9 OFFCURVE",
"421 9 CURVE SMOOTH",
"237 9 OFFCURVE",
"86 139 OFFCURVE",
"86 349 CURVE SMOOTH",
"86 558 OFFCURVE",
"234 690 OFFCURVE",
"421 690 CURVE SMOOTH",
"512 690 OFFCURVE",
"595 666 OFFCURVE",
"658 605 CURVE",
"658 635 LINE",
"595 690 OFFCURVE",
"515 714 OFFCURVE",
"421 714 CURVE SMOOTH",
"216 714 OFFCURVE",
"60 568 OFFCURVE",
"60 349 CURVE SMOOTH",
"60 131 OFFCURVE",
"216 -15 OFFCURVE",
"421 -15 CURVE SMOOTH"
);
},
{
closed = 1;
nodes = (
"430 763 OFFCURVE",
"443 776 OFFCURVE",
"443 791 CURVE SMOOTH",
"443 806 OFFCURVE",
"430 819 OFFCURVE",
"415 819 CURVE SMOOTH",
"400 819 OFFCURVE",
"387 806 OFFCURVE",
"387 791 CURVE SMOOTH",
"387 776 OFFCURVE",
"400 763 OFFCURVE",
"415 763 CURVE SMOOTH"
);
}
);
width = 728;
}
);
leftKerningGroup = C;
note = Gdotaccent;
unicode = 0120;
},
{
glyphname = Gmacron;
lastChange = "2015-11-29 23:18:24 +0000";
layers = (
{
layerId = "B4CEBB5F-E069-4C92-9919-8A70C4320291";
name = Light;
paths = (
{
closed = 1;
nodes = (
"520 -15 OFFCURVE",
"605 9 OFFCURVE",
"668 72 CURVE",
"668 363 LINE",
"463 363 LINE",
"463 339 LINE",
"640 339 LINE",
"640 77 LINE",
"578 28 OFFCURVE",
"510 9 OFFCURVE",
"421 9 CURVE SMOOTH",
"237 9 OFFCURVE",
"86 139 OFFCURVE",
"86 349 CURVE SMOOTH",
"86 558 OFFCURVE",
"234 690 OFFCURVE",
"421 690 CURVE SMOOTH",
"512 690 OFFCURVE",
"595 666 OFFCURVE",
"658 605 CURVE",
"658 635 LINE",
"595 690 OFFCURVE",
"515 714 OFFCURVE",
"421 714 CURVE SMOOTH",
"216 714 OFFCURVE",
"60 568 OFFCURVE",
"60 349 CURVE SMOOTH",
"60 131 OFFCURVE",
"216 -15 OFFCURVE",
"421 -15 CURVE SMOOTH"
);
},
{
closed = 1;
nodes = (
"571 813 LINE",
"571 837 LINE",
"293 837 LINE",
"293 813 LINE"
);
}
);
width = 728;
}
);
leftKerningGroup = C;
note = Gmacron;
unicode = 1E20;
},
{
glyphname = H;
lastChange = "2015-11-29 23:18:18 +0000";
layers = (
{
layerId = "B4CEBB5F-E069-4C92-9919-8A70C4320291";
name = Light;
paths = (
{
closed = 1;
nodes = (
"108 0 LINE",
"108 345 LINE",
"564 345 LINE",
"564 0 LINE",
"592 0 LINE",
"592 699 LINE",
"564 699 LINE",
"564 369 LINE",
"108 369 LINE",
"108 699 LINE",
"80 699 LINE",
"80 0 LINE"
);
}
);
width = 672;
}
);
note = H;
unicode = 0048;
},
{
glyphname = Hbar;
lastChange = "2015-11-29 23:18:23 +0000";
layers = (
{
layerId = "B4CEBB5F-E069-4C92-9919-8A70C4320291";
name = Light;
paths = (
{
closed = 1;
nodes = (
"117 0 LINE",
"117 345 LINE",
"573 345 LINE",
"573 0 LINE",
"601 0 LINE",
"601 519 LINE",
"664 519 LINE",
"664 543 LINE",
"601 543 LINE",
"601 699 LINE",
"573 699 LINE",
"573 543 LINE",
"117 543 LINE",
"117 699 LINE",
"89 699 LINE",
"89 543 LINE",
"40 543 LINE",
"40 519 LINE",
"89 519 LINE",
"89 0 LINE"
);
},
{
closed = 1;
nodes = (
"117 519 LINE",
"573 519 LINE",
"573 369 LINE",
"117 369 LINE"
);
}
);
width = 704;
}
);
note = Hbar;
unicode = 0126;
},
{
glyphname = Hbrevebelow;
lastChange = "2015-11-29 23:18:24 +0000";
layers = (
{
layerId = "B4CEBB5F-E069-4C92-9919-8A70C4320291";
name = Light;
paths = (
{
closed = 1;
nodes = (
"108 0 LINE",
"108 345 LINE",
"564 345 LINE",
"564 0 LINE",
"592 0 LINE",
"592 699 LINE",
"564 699 LINE",
"564 369 LINE",
"108 369 LINE",
"108 699 LINE",
"80 699 LINE",
"80 0 LINE"
);
},
{
closed = 1;
nodes = (
"413 -175 OFFCURVE",
"461 -127 OFFCURVE",
"461 -67 CURVE",
"437 -67 LINE",
"437 -115 OFFCURVE",
"402 -152 OFFCURVE",
"343 -152 CURVE SMOOTH",
"285 -152 OFFCURVE",
"249 -115 OFFCURVE",
"249 -67 CURVE",
"225 -67 LINE",
"225 -127 OFFCURVE",
"273 -175 OFFCURVE",
"343 -175 CURVE SMOOTH"
);
}
);
width = 672;
}
);
note = Hbrevebelow;
unicode = 1E2A;
},
{
glyphname = Hcircumflex;
lastChange = "2015-11-29 23:18:23 +0000";
layers = (
{
layerId = "B4CEBB5F-E069-4C92-9919-8A70C4320291";
name = Light;
paths = (
{
closed = 1;
nodes = (
"108 0 LINE",
"108 345 LINE",
"564 345 LINE",
"564 0 LINE",
"592 0 LINE",
"592 699 LINE",
"564 699 LINE",
"564 369 LINE",
"108 369 LINE",
"108 699 LINE",
"80 699 LINE",
"80 0 LINE"
);
},
{
closed = 1;
nodes = (
"228 798 LINE",
"336 927 LINE",
"444 798 LINE",
"475 798 LINE",
"347 949 LINE",
"325 949 LINE",
"197 798 LINE"
);
}
);
width = 672;
}
);
note = Hcircumflex;
unicode = 0124;
},
{
glyphname = Hdotbelow;
lastChange = "2015-11-29 23:18:23 +0000";
layers = (
{
layerId = "B4CEBB5F-E069-4C92-9919-8A70C4320291";
name = Light;
paths = (
{
closed = 1;
nodes = (
"108 0 LINE",
"108 345 LINE",
"564 345 LINE",
"564 0 LINE",
"592 0 LINE",
"592 699 LINE",
"564 699 LINE",
"564 369 LINE",
"108 369 LINE",
"108 699 LINE",
"80 699 LINE",
"80 0 LINE"
);
},
{
closed = 1;
nodes = (
"351 -121 OFFCURVE",
"364 -108 OFFCURVE",
"364 -93 CURVE SMOOTH",
"364 -78 OFFCURVE",
"351 -65 OFFCURVE",
"336 -65 CURVE SMOOTH",
"321 -65 OFFCURVE",
"308 -78 OFFCURVE",
"308 -93 CURVE SMOOTH",
"308 -108 OFFCURVE",
"321 -121 OFFCURVE",
"336 -121 CURVE SMOOTH"
);
}
);
width = 672;
}
);
note = Hdotbelow;
unicode = 1E24;
},
{
glyphname = I;
lastChange = "2015-11-29 23:18:18 +0000";
layers = (
{
layerId = "B4CEBB5F-E069-4C92-9919-8A70C4320291";
name = Light;
paths = (
{
closed = 1;
nodes = (
"108 0 LINE",
"108 699 LINE",
"80 699 LINE",
"80 0 LINE"
);
}
);
width = 188;
}
);
note = I;
unicode = 0049;
},
{
glyphname = IJ;
lastChange = "2015-11-29 23:18:23 +0000";
layers = (
{
layerId = "B4CEBB5F-E069-4C92-9919-8A70C4320291";
name = Light;
paths = (
{
closed = 1;
nodes = (
"412 -15 OFFCURVE",
"479 28 OFFCURVE",
"479 128 CURVE SMOOTH",
"479 699 LINE",
"451 699 LINE",
"451 128 LINE SMOOTH",
"451 46 OFFCURVE",
"406 8 OFFCURVE",
"328 8 CURVE SMOOTH",
"305 8 OFFCURVE",
"267 13 OFFCURVE",
"246 20 CURVE",
"246 -4 LINE",
"267 -10 OFFCURVE",
"303 -15 OFFCURVE",
"335 -15 CURVE SMOOTH"
);
},
{
closed = 1;
nodes = (
"108 0 LINE",
"108 699 LINE",
"80 699 LINE",
"80 0 LINE"
);
}
);
width = 554;
}
);
note = IJ;
rightKerningGroup = J;
unicode = 0132;
},
{
glyphname = Iacute;
lastChange = "2015-11-29 23:18:23 +0000";
layers = (
{
layerId = "B4CEBB5F-E069-4C92-9919-8A70C4320291";
name = Light;
paths = (
{
closed = 1;
nodes = (
"108 0 LINE",
"108 699 LINE",
"80 699 LINE",
"80 0 LINE"
);
},
{
closed = 1;
nodes = (
"106 768 LINE",
"183 935 LINE",
"155 935 LINE",
"84 768 LINE"
);
}
);
width = 188;
}
);
note = Iacute;
unicode = 00CD;
},
{
glyphname = Ibreve;
lastChange = "2015-11-29 23:18:22 +0000";
layers = (
{
layerId = "B4CEBB5F-E069-4C92-9919-8A70C4320291";
name = Light;
paths = (
{
closed = 1;
nodes = (
"164 777 OFFCURVE",
"212 825 OFFCURVE",
"212 885 CURVE",
"188 885 LINE",
"188 837 OFFCURVE",
"153 800 OFFCURVE",
"94 800 CURVE SMOOTH",
"36 800 OFFCURVE",
"0 837 OFFCURVE",
"0 885 CURVE",
"-24 885 LINE",
"-24 825 OFFCURVE",
"24 777 OFFCURVE",
"94 777 CURVE SMOOTH"
);
},
{
closed = 1;
nodes = (
"108 0 LINE",
"108 699 LINE",
"80 699 LINE",
"80 0 LINE"
);
}
);
width = 188;
}
);
note = Ibreve;
unicode = 012C;
},
{
glyphname = Icaron;
lastChange = "2015-11-29 23:18:23 +0000";
layers = (
{
layerId = "B4CEBB5F-E069-4C92-9919-8A70C4320291";
name = Light;
paths = (
{
closed = 1;
nodes = (
"105 784 LINE",
"233 935 LINE",
"202 935 LINE",
"94 806 LINE",
"-14 935 LINE",
"-45 935 LINE",
"83 784 LINE"
);
},
{
closed = 1;
nodes = (
"108 0 LINE",
"108 699 LINE",
"80 699 LINE",
"80 0 LINE"
);
}
);
width = 188;
}
);
note = Icaron;
unicode = 01CF;
},
{
glyphname = Icircumflex;
lastChange = "2015-11-29 23:18:23 +0000";
layers = (
{
layerId = "B4CEBB5F-E069-4C92-9919-8A70C4320291";
name = Light;
paths = (
{
closed = 1;
nodes = (
"-14 774 LINE",
"94 903 LINE",
"202 774 LINE",
"233 774 LINE",
"105 925 LINE",
"83 925 LINE",
"-45 774 LINE"
);
},
{
closed = 1;
nodes = (
"108 0 LINE",
"108 699 LINE",
"80 699 LINE",
"80 0 LINE"
);
}
);
width = 188;
}
);
note = Icircumflex;
unicode = 00CE;
},
{
glyphname = Idieresis;
lastChange = "2015-11-29 23:18:23 +0000";
layers = (
{
layerId = "B4CEBB5F-E069-4C92-9919-8A70C4320291";
name = Light;
paths = (
{
closed = 1;
nodes = (
"108 0 LINE",
"108 699 LINE",
"80 699 LINE",
"80 0 LINE"
);
},
{
closed = 1;
nodes = (
"10 802 OFFCURVE",
"23 815 OFFCURVE",
"23 830 CURVE SMOOTH",
"23 845 OFFCURVE",
"10 858 OFFCURVE",
"-5 858 CURVE SMOOTH",
"-20 858 OFFCURVE",
"-33 845 OFFCURVE",
"-33 830 CURVE SMOOTH",
"-33 815 OFFCURVE",
"-20 802 OFFCURVE",
"-5 802 CURVE SMOOTH"
);
},
{
closed = 1;
nodes = (
"208 802 OFFCURVE",
"221 815 OFFCURVE",
"221 830 CURVE SMOOTH",
"221 845 OFFCURVE",
"208 858 OFFCURVE",
"193 858 CURVE SMOOTH",
"178 858 OFFCURVE",
"165 845 OFFCURVE",
"165 830 CURVE SMOOTH",
"165 815 OFFCURVE",
"178 802 OFFCURVE",
"193 802 CURVE SMOOTH"
);
}
);
width = 188;
}
);
note = Idieresis;
unicode = 00CF;
},
{
glyphname = Idotaccent;
lastChange = "2015-11-29 23:18:23 +0000";
layers = (
{
layerId = "B4CEBB5F-E069-4C92-9919-8A70C4320291";
name = Light;
paths = (
{
closed = 1;
nodes = (
"108 0 LINE",
"108 699 LINE",
"80 699 LINE",
"80 0 LINE"
);
},
{
closed = 1;
nodes = (
"109 763 OFFCURVE",
"122 776 OFFCURVE",
"122 791 CURVE SMOOTH",
"122 806 OFFCURVE",
"109 819 OFFCURVE",
"94 819 CURVE SMOOTH",
"79 819 OFFCURVE",
"66 806 OFFCURVE",
"66 791 CURVE SMOOTH",
"66 776 OFFCURVE",
"79 763 OFFCURVE",
"94 763 CURVE SMOOTH"
);
}
);
width = 188;
}
);
note = Idotaccent;
unicode = 0130;
},
{
glyphname = Idotbelow;
lastChange = "2015-11-29 23:18:22 +0000";
layers = (
{
layerId = "B4CEBB5F-E069-4C92-9919-8A70C4320291";
name = Light;
paths = (
{
closed = 1;
nodes = (
"108 0 LINE",
"108 699 LINE",
"80 699 LINE",
"80 0 LINE"
);
},
{
closed = 1;
nodes = (
"109 -121 OFFCURVE",
"122 -108 OFFCURVE",
"122 -93 CURVE SMOOTH",
"122 -78 OFFCURVE",
"109 -65 OFFCURVE",
"94 -65 CURVE SMOOTH",
"79 -65 OFFCURVE",
"66 -78 OFFCURVE",
"66 -93 CURVE SMOOTH",
"66 -108 OFFCURVE",
"79 -121 OFFCURVE",
"94 -121 CURVE SMOOTH"
);
}
);
width = 188;
}
);
note = Idotbelow;
unicode = 1ECA;
},
{
glyphname = Igrave;
lastChange = "2015-11-29 23:18:22 +0000";
layers = (
{
layerId = "B4CEBB5F-E069-4C92-9919-8A70C4320291";
name = Light;
paths = (
{
closed = 1;
nodes = (
"108 0 LINE",
"108 699 LINE",
"80 699 LINE",
"80 0 LINE"
);
},
{
closed = 1;
nodes = (
"108 792 LINE",
"37 959 LINE",
"9 959 LINE",
"86 792 LINE"
);
}
);
width = 188;
}
);
note = Igrave;
unicode = 00CC;
},
{
glyphname = Ihookabove;
lastChange = "2015-11-29 23:18:22 +0000";
layers = (
{
layerId = "B4CEBB5F-E069-4C92-9919-8A70C4320291";
name = Light;
paths = (
{
closed = 1;
nodes = (
"106 784 LINE",
"106 828 LINE",
"171 831 OFFCURVE",
"203 866 OFFCURVE",
"203 915 CURVE SMOOTH",
"203 965 OFFCURVE",
"169 1001 OFFCURVE",
"100 1001 CURVE SMOOTH",
"80 1001 OFFCURVE",
"56 997 OFFCURVE",
"45 993 CURVE",
"45 969 LINE",
"57 974 OFFCURVE",
"82 977 OFFCURVE",
"100 977 CURVE SMOOTH",
"148 977 OFFCURVE",
"177 958 OFFCURVE",
"177 914 CURVE SMOOTH",
"177 870 OFFCURVE",
"155 847 OFFCURVE",
"83 847 CURVE",
"83 784 LINE"
);
},
{
closed = 1;
nodes = (
"108 0 LINE",
"108 699 LINE",
"80 699 LINE",
"80 0 LINE"
);
}
);
width = 188;
}
);
note = Ihookabove;
unicode = 1EC8;
},
{
glyphname = Imacron;
lastChange = "2015-11-29 23:18:23 +0000";
layers = (
{
layerId = "B4CEBB5F-E069-4C92-9919-8A70C4320291";
name = Light;
paths = (
{
closed = 1;
nodes = (
"108 0 LINE",
"108 699 LINE",
"80 699 LINE",
"80 0 LINE"
);
},
{
closed = 1;
nodes = (
"233 765 LINE",
"233 789 LINE",
"-45 789 LINE",
"-45 765 LINE"
);
}
);
width = 188;
}
);
note = Imacron;
unicode = 012A;
},
{
glyphname = Iogonek;
lastChange = "2015-11-29 23:18:23 +0000";
layers = (
{
layerId = "B4CEBB5F-E069-4C92-9919-8A70C4320291";
name = Light;
paths = (
{
closed = 1;
nodes = (
"105 -206 OFFCURVE",
"120 -203 OFFCURVE",
"131 -198 CURVE",
"131 -174 LINE",
"119 -179 OFFCURVE",
"103 -182 OFFCURVE",
"85 -182 CURVE SMOOTH",
"54 -182 OFFCURVE",
"29 -164 OFFCURVE",
"29 -125 CURVE SMOOTH",
"29 -76 OFFCURVE",
"61 -36 OFFCURVE",
"108 0 CURVE",
"80 0 LINE",
"38 -27 OFFCURVE",
"3 -73 OFFCURVE",
"3 -125 CURVE SMOOTH",
"3 -179 OFFCURVE",
"42 -206 OFFCURVE",
"85 -206 CURVE SMOOTH"
);
},
{
closed = 1;
nodes = (
"108 0 LINE",
"108 699 LINE",
"80 699 LINE",
"80 0 LINE"
);
}
);
width = 188;
}
);
note = Iogonek;
unicode = 012E;
},
{
glyphname = Itilde;
lastChange = "2015-11-29 23:18:24 +0000";
layers = (
{
layerId = "B4CEBB5F-E069-4C92-9919-8A70C4320291";
name = Light;
paths = (
{
closed = 1;
nodes = (
"-55 829 OFFCURVE",
"-26 840 OFFCURVE",
"7 840 CURVE SMOOTH",
"71 840 OFFCURVE",
"108 790 OFFCURVE",
"181 790 CURVE SMOOTH",
"218 790 OFFCURVE",
"251 802 OFFCURVE",
"271 835 CURVE",
"271 868 LINE",
"245 825 OFFCURVE",
"214 814 OFFCURVE",
"181 814 CURVE SMOOTH",
"116 814 OFFCURVE",
"75 864 OFFCURVE",
"7 864 CURVE SMOOTH",
"-30 864 OFFCURVE",
"-63 852 OFFCURVE",
"-83 819 CURVE",
"-83 786 LINE"
);
},
{
closed = 1;
nodes = (
"108 0 LINE",
"108 699 LINE",
"80 699 LINE",
"80 0 LINE"
);
}
);
width = 188;
}
);
note = Itilde;
unicode = 0128;
},
{
glyphname = J;
lastChange = "2015-11-29 23:18:18 +0000";
layers = (
{
layerId = "B4CEBB5F-E069-4C92-9919-8A70C4320291";
name = Light;
paths = (
{
closed = 1;
nodes = (
"206 -15 OFFCURVE",
"273 28 OFFCURVE",
"273 128 CURVE SMOOTH",
"273 699 LINE",
"245 699 LINE",
"245 128 LINE SMOOTH",
"245 46 OFFCURVE",
"200 8 OFFCURVE",
"122 8 CURVE SMOOTH",
"99 8 OFFCURVE",
"61 13 OFFCURVE",
"40 20 CURVE",
"40 -4 LINE",
"61 -10 OFFCURVE",
"97 -15 OFFCURVE",
"129 -15 CURVE SMOOTH"
);
}
);
width = 348;
}
);
note = J;
rightKerningGroup = J;
unicode = 004A;
},
{
glyphname = Jcircumflex;
lastChange = "2015-11-29 23:18:24 +0000";
layers = (
{
layerId = "B4CEBB5F-E069-4C92-9919-8A70C4320291";
name = Light;
paths = (
{
closed = 1;
nodes = (
"206 -15 OFFCURVE",
"273 28 OFFCURVE",
"273 128 CURVE SMOOTH",
"273 699 LINE",
"245 699 LINE",
"245 128 LINE SMOOTH",
"245 46 OFFCURVE",
"200 8 OFFCURVE",
"122 8 CURVE SMOOTH",
"99 8 OFFCURVE",
"61 13 OFFCURVE",
"40 20 CURVE",
"40 -4 LINE",
"61 -10 OFFCURVE",
"97 -15 OFFCURVE",
"129 -15 CURVE SMOOTH"
);
},
{
closed = 1;
nodes = (
"151 774 LINE",
"259 903 LINE",
"367 774 LINE",
"398 774 LINE",
"270 925 LINE",
"248 925 LINE",
"120 774 LINE"
);
}
);
width = 348;
}
);
note = Jcircumflex;
rightKerningGroup = J;
unicode = 0134;
},
{
glyphname = K;
lastChange = "2015-11-29 23:18:18 +0000";
layers = (
{
layerId = "B4CEBB5F-E069-4C92-9919-8A70C4320291";
name = Light;
paths = (
{
closed = 1;
nodes = (
"108 0 LINE",
"108 350 LINE",
"490 0 LINE",
"529 0 LINE",
"143 353 LINE",
"507 699 LINE",
"468 699 LINE",
"108 356 LINE",
"108 699 LINE",
"80 699 LINE",
"80 0 LINE"
);
}
);
width = 589;
}
);
leftKerningGroup = K;
note = K;
rightKerningGroup = K;
unicode = 004B;
},
{
glyphname = Kcommaaccent;
lastChange = "2015-11-29 23:18:23 +0000";
layers = (
{
layerId = "B4CEBB5F-E069-4C92-9919-8A70C4320291";
name = Light;
paths = (
{
closed = 1;
nodes = (
"108 0 LINE",
"108 350 LINE",
"490 0 LINE",
"529 0 LINE",
"143 353 LINE",
"507 699 LINE",
"468 699 LINE",
"108 356 LINE",
"108 699 LINE",
"80 699 LINE",
"80 0 LINE"
);
},
{
closed = 1;
nodes = (
"205 -259 LINE",
"290 -70 LINE",
"259 -70 LINE",
"180 -259 LINE"
);
}
);
width = 589;
}
);
leftKerningGroup = K;
note = Kcommaaccent;
rightKerningGroup = K;
unicode = 0136;
},
{
glyphname = L;
lastChange = "2015-11-29 23:18:18 +0000";
layers = (
{
layerId = "B4CEBB5F-E069-4C92-9919-8A70C4320291";
name = Light;
paths = (
{
closed = 1;
nodes = (
"507 0 LINE",
"507 24 LINE",
"108 24 LINE",
"108 699 LINE",
"80 699 LINE",
"80 0 LINE"
);
}
);
width = 547;
}
);
note = L;
rightKerningGroup = L;
unicode = 004C;
},
{
glyphname = Lacute;
lastChange = "2015-11-29 23:18:22 +0000";
layers = (
{
layerId = "B4CEBB5F-E069-4C92-9919-8A70C4320291";
name = Light;
paths = (
{
closed = 1;
nodes = (
"507 0 LINE",
"507 24 LINE",
"108 24 LINE",
"108 699 LINE",
"80 699 LINE",
"80 0 LINE"
);
},
{
closed = 1;
nodes = (
"106 768 LINE",
"183 935 LINE",
"155 935 LINE",
"84 768 LINE"
);
}
);
width = 547;
}
);
note = Lacute;
rightKerningGroup = L;
unicode = 0139;
},
{
glyphname = Lcaron;
lastChange = "2015-11-29 23:18:23 +0000";
layers = (
{
layerId = "B4CEBB5F-E069-4C92-9919-8A70C4320291";
name = Light;
paths = (
{
closed = 1;
nodes = (
"507 0 LINE",
"507 24 LINE",
"108 24 LINE",
"108 699 LINE",
"80 699 LINE",
"80 0 LINE"
);
},
{
closed = 1;
nodes = (
"263 504 LINE",
"348 693 LINE",
"317 693 LINE",
"238 504 LINE"
);
}
);
width = 547;
}
);
note = Lcaron;
rightKerningGroup = L;
unicode = 013D;
},
{
glyphname = Lcommaaccent;
lastChange = "2015-11-29 23:18:22 +0000";
layers = (
{
layerId = "B4CEBB5F-E069-4C92-9919-8A70C4320291";
name = Light;
paths = (
{
closed = 1;
nodes = (
"507 0 LINE",
"507 24 LINE",
"108 24 LINE",
"108 699 LINE",
"80 699 LINE",
"80 0 LINE"
);
},
{
closed = 1;
nodes = (
"227 -259 LINE",
"312 -70 LINE",
"281 -70 LINE",
"202 -259 LINE"
);
}
);
width = 547;
}
);
note = Lcommaaccent;
rightKerningGroup = L;
unicode = 013B;
},
{
glyphname = Ldot;
lastChange = "2015-11-29 23:18:23 +0000";
layers = (
{
layerId = "B4CEBB5F-E069-4C92-9919-8A70C4320291";
name = Light;
paths = (
{
closed = 1;
nodes = (
"507 0 LINE",
"507 24 LINE",
"108 24 LINE",
"108 699 LINE",
"80 699 LINE",
"80 0 LINE"
);
},
{
closed = 1;
nodes = (
"333 344 OFFCURVE",
"346 357 OFFCURVE",
"346 372 CURVE SMOOTH",
"346 387 OFFCURVE",
"333 400 OFFCURVE",
"318 400 CURVE SMOOTH",
"303 400 OFFCURVE",
"290 387 OFFCURVE",
"290 372 CURVE SMOOTH",
"290 357 OFFCURVE",
"303 344 OFFCURVE",
"318 344 CURVE SMOOTH"
);
}
);
width = 547;
}
);
note = Ldot;
rightKerningGroup = L;
unicode = 013F;
},
{
glyphname = Ldotbelow;
lastChange = "2015-11-29 23:18:24 +0000";
layers = (
{
layerId = "B4CEBB5F-E069-4C92-9919-8A70C4320291";
name = Light;
paths = (
{
closed = 1;
nodes = (
"507 0 LINE",
"507 24 LINE",
"108 24 LINE",
"108 699 LINE",
"80 699 LINE",
"80 0 LINE"
);
},
{
closed = 1;
nodes = (
"304 -121 OFFCURVE",
"317 -108 OFFCURVE",
"317 -93 CURVE SMOOTH",
"317 -78 OFFCURVE",
"304 -65 OFFCURVE",
"289 -65 CURVE SMOOTH",
"274 -65 OFFCURVE",
"261 -78 OFFCURVE",
"261 -93 CURVE SMOOTH",
"261 -108 OFFCURVE",
"274 -121 OFFCURVE",
"289 -121 CURVE SMOOTH"
);
}
);
width = 547;
}
);
note = Ldotbelow;
rightKerningGroup = L;
unicode = 1E36;
},
{
glyphname = Ldotbelowmacron;
lastChange = "2015-11-29 23:18:24 +0000";
layers = (
{
layerId = "B4CEBB5F-E069-4C92-9919-8A70C4320291";
name = Light;
paths = (
{
closed = 1;
nodes = (
"507 0 LINE",
"507 24 LINE",
"108 24 LINE",
"108 699 LINE",
"80 699 LINE",
"80 0 LINE"
);
},
{
closed = 1;
nodes = (
"307 -121 OFFCURVE",
"320 -108 OFFCURVE",
"320 -93 CURVE SMOOTH",
"320 -78 OFFCURVE",
"307 -65 OFFCURVE",
"292 -65 CURVE SMOOTH",
"277 -65 OFFCURVE",
"264 -78 OFFCURVE",
"264 -93 CURVE SMOOTH",
"264 -108 OFFCURVE",
"277 -121 OFFCURVE",
"292 -121 CURVE SMOOTH"
);
},
{
closed = 1;
nodes = (
"234 803 LINE",
"234 827 LINE",
"-44 827 LINE",
"-44 803 LINE"
);
}
);
width = 547;
}
);
note = Ldotbelowmacron;
rightKerningGroup = L;
unicode = 1E38;
},
{
glyphname = Llinebelow;
lastChange = "2015-11-29 23:18:24 +0000";
layers = (
{
layerId = "B4CEBB5F-E069-4C92-9919-8A70C4320291";
name = Light;
paths = (
{
closed = 1;
nodes = (
"507 0 LINE",
"507 24 LINE",
"108 24 LINE",
"108 699 LINE",
"80 699 LINE",
"80 0 LINE"
);
},
{
closed = 1;
nodes = (
"441 -110 LINE",
"441 -86 LINE",
"163 -86 LINE",
"163 -110 LINE"
);
}
);
width = 547;
}
);
note = Llinebelow;
rightKerningGroup = L;
unicode = 1E3A;
},
{
glyphname = Lslash;
lastChange = "2015-11-29 23:18:18 +0000";
layers = (
{
layerId = "B4CEBB5F-E069-4C92-9919-8A70C4320291";
name = Light;
paths = (
{
closed = 1;
nodes = (
"584 0 LINE",
"584 24 LINE",
"185 24 LINE",
"185 347 LINE",
"366 428 LINE",
"366 454 LINE",
"185 373 LINE",
"185 699 LINE",
"157 699 LINE",
"157 360 LINE",
"30 304 LINE",
"30 278 LINE",
"157 334 LINE",
"157 0 LINE"
);
}
);
width = 624;
}
);
note = Lslash;
rightKerningGroup = L;
unicode = 0141;
},
{
glyphname = M;
lastChange = "2015-11-29 23:18:18 +0000";
layers = (
{
layerId = "B4CEBB5F-E069-4C92-9919-8A70C4320291";
name = Light;
paths = (
{
closed = 1;
nodes = (
"108 0 LINE",
"108 642 LINE",
"400 0 LINE",
"419 0 LINE",
"711 642 LINE",
"711 0 LINE",
"739 0 LINE",
"739 699 LINE",
"707 699 LINE",
"410 46 LINE",
"112 699 LINE",
"80 699 LINE",
"80 0 LINE"
);
}
);
width = 819;
}
);
note = M;
unicode = 004D;
},
{
glyphname = Mdotbelow;
lastChange = "2015-11-29 23:18:22 +0000";
layers = (
{
layerId = "B4CEBB5F-E069-4C92-9919-8A70C4320291";
name = Light;
paths = (
{
closed = 1;
nodes = (
"108 0 LINE",
"108 642 LINE",
"400 0 LINE",
"419 0 LINE",
"711 642 LINE",
"711 0 LINE",
"739 0 LINE",
"739 699 LINE",
"707 699 LINE",
"410 46 LINE",
"112 699 LINE",
"80 699 LINE",
"80 0 LINE"
);
},
{
closed = 1;
nodes = (
"425 -121 OFFCURVE",
"438 -108 OFFCURVE",
"438 -93 CURVE SMOOTH",
"438 -78 OFFCURVE",
"425 -65 OFFCURVE",
"410 -65 CURVE SMOOTH",
"395 -65 OFFCURVE",
"382 -78 OFFCURVE",
"382 -93 CURVE SMOOTH",
"382 -108 OFFCURVE",
"395 -121 OFFCURVE",
"410 -121 CURVE SMOOTH"
);
}
);
width = 819;
}
);
note = Mdotbelow;
unicode = 1E42;
},
{
glyphname = N;
lastChange = "2015-11-29 23:18:18 +0000";
layers = (
{
layerId = "B4CEBB5F-E069-4C92-9919-8A70C4320291";
name = Light;
paths = (
{
closed = 1;
nodes = (
"108 0 LINE",
"108 649 LINE",
"559 0 LINE",
"583 0 LINE",
"583 699 LINE",
"555 699 LINE",
"555 52 LINE",
"105 699 LINE",
"80 699 LINE",
"80 0 LINE"
);
}
);
width = 663;
}
);
note = N;
unicode = 004E;
},
{
glyphname = Nacute;
lastChange = "2015-11-29 23:18:24 +0000";
layers = (
{
layerId = "B4CEBB5F-E069-4C92-9919-8A70C4320291";
name = Light;
paths = (
{
closed = 1;
nodes = (
"108 0 LINE",
"108 649 LINE",
"559 0 LINE",
"583 0 LINE",
"583 699 LINE",
"555 699 LINE",
"555 52 LINE",
"105 699 LINE",
"80 699 LINE",
"80 0 LINE"
);
},
{
closed = 1;
nodes = (
"352 780 LINE",
"429 947 LINE",
"401 947 LINE",
"330 780 LINE"
);
}
);
width = 663;
}
);
note = Nacute;
unicode = 0143;
},
{
glyphname = Ncaron;
lastChange = "2015-11-29 23:18:24 +0000";
layers = (
{
layerId = "B4CEBB5F-E069-4C92-9919-8A70C4320291";
name = Light;
paths = (
{
closed = 1;
nodes = (
"108 0 LINE",
"108 649 LINE",
"559 0 LINE",
"583 0 LINE",
"583 699 LINE",
"555 699 LINE",
"555 52 LINE",
"105 699 LINE",
"80 699 LINE",
"80 0 LINE"
);
},
{
closed = 1;
nodes = (
"343 786 LINE",
"471 937 LINE",
"440 937 LINE",
"332 808 LINE",
"224 937 LINE",
"193 937 LINE",
"321 786 LINE"
);
}
);
width = 663;
}
);
note = Ncaron;
unicode = 0147;
},
{
glyphname = Ncommaaccent;
lastChange = "2015-11-29 23:18:22 +0000";
layers = (
{
layerId = "B4CEBB5F-E069-4C92-9919-8A70C4320291";
name = Light;
paths = (
{
closed = 1;
nodes = (
"108 0 LINE",
"108 649 LINE",
"559 0 LINE",
"583 0 LINE",
"583 699 LINE",
"555 699 LINE",
"555 52 LINE",
"105 699 LINE",
"80 699 LINE",
"80 0 LINE"
);
},
{
closed = 1;
nodes = (
"293 -259 LINE",
"378 -70 LINE",
"347 -70 LINE",
"268 -259 LINE"
);
}
);
width = 663;
}
);
note = Ncommaaccent;
unicode = 0145;
},
{
glyphname = Ndotaccent;
lastChange = "2015-11-29 23:18:23 +0000";
layers = (
{
layerId = "B4CEBB5F-E069-4C92-9919-8A70C4320291";
name = Light;
paths = (
{
closed = 1;
nodes = (
"108 0 LINE",
"108 649 LINE",
"559 0 LINE",
"583 0 LINE",
"583 699 LINE",
"555 699 LINE",
"555 52 LINE",
"105 699 LINE",
"80 699 LINE",
"80 0 LINE"
);
},
{
closed = 1;
nodes = (
"366 790 OFFCURVE",
"379 803 OFFCURVE",
"379 818 CURVE SMOOTH",
"379 833 OFFCURVE",
"366 846 OFFCURVE",
"351 846 CURVE SMOOTH",
"336 846 OFFCURVE",
"323 833 OFFCURVE",
"323 818 CURVE SMOOTH",
"323 803 OFFCURVE",
"336 790 OFFCURVE",
"351 790 CURVE SMOOTH"
);
}
);
width = 663;
}
);
note = Ndotaccent;
unicode = 1E44;
},
{
glyphname = Ndotbelow;
lastChange = "2015-11-29 23:18:23 +0000";
layers = (
{
layerId = "B4CEBB5F-E069-4C92-9919-8A70C4320291";
name = Light;
paths = (
{
closed = 1;
nodes = (
"108 0 LINE",
"108 649 LINE",
"559 0 LINE",
"583 0 LINE",
"583 699 LINE",
"555 699 LINE",
"555 52 LINE",
"105 699 LINE",
"80 699 LINE",
"80 0 LINE"
);
},
{
closed = 1;
nodes = (
"356 -121 OFFCURVE",
"369 -108 OFFCURVE",
"369 -93 CURVE SMOOTH",
"369 -78 OFFCURVE",
"356 -65 OFFCURVE",
"341 -65 CURVE SMOOTH",
"326 -65 OFFCURVE",
"313 -78 OFFCURVE",
"313 -93 CURVE SMOOTH",
"313 -108 OFFCURVE",
"326 -121 OFFCURVE",
"341 -121 CURVE SMOOTH"
);
}
);
width = 663;
}
);
note = Ndotbelow;
unicode = 1E46;
},
{
glyphname = Eng;
lastChange = "2015-11-29 23:18:19 +0000";
layers = (
{
layerId = "B4CEBB5F-E069-4C92-9919-8A70C4320291";
name = Light;
paths = (
{
closed = 1;
nodes = (
"540 -231 OFFCURVE",
"583 -191 OFFCURVE",
"583 -96 CURVE SMOOTH",
"583 699 LINE",
"555 699 LINE",
"555 52 LINE",
"105 699 LINE",
"80 699 LINE",
"80 0 LINE",
"108 0 LINE",
"108 649 LINE",
"555 6 LINE",
"555 -98 LINE SMOOTH",
"555 -173 OFFCURVE",
"531 -207 OFFCURVE",
"456 -207 CURVE SMOOTH",
"439 -207 OFFCURVE",
"422 -205 OFFCURVE",
"406 -200 CURVE",
"406 -225 LINE",
"424 -229 OFFCURVE",
"444 -231 OFFCURVE",
"465 -231 CURVE SMOOTH"
);
}
);
width = 663;
}
);
note = Eng;
unicode = 014A;
},
{
glyphname = Nlinebelow;
lastChange = "2015-11-29 23:18:24 +0000";
layers = (
{
layerId = "B4CEBB5F-E069-4C92-9919-8A70C4320291";
name = Light;
paths = (
{
closed = 1;
nodes = (
"108 0 LINE",
"108 649 LINE",
"559 0 LINE",
"583 0 LINE",
"583 699 LINE",
"555 699 LINE",
"555 52 LINE",
"105 699 LINE",
"80 699 LINE",
"80 0 LINE"
);
},
{
closed = 1;
nodes = (
"489 -110 LINE",
"489 -86 LINE",
"211 -86 LINE",
"211 -110 LINE"
);
}
);
width = 663;
}
);
note = Nlinebelow;
unicode = 1E48;
},
{
glyphname = Ntilde;
lastChange = "2015-11-29 23:18:23 +0000";
layers = (
{
layerId = "B4CEBB5F-E069-4C92-9919-8A70C4320291";
name = Light;
paths = (
{
closed = 1;
nodes = (
"108 0 LINE",
"108 649 LINE",
"559 0 LINE",
"583 0 LINE",
"583 699 LINE",
"555 699 LINE",
"555 52 LINE",
"105 699 LINE",
"80 699 LINE",
"80 0 LINE"
);
},
{
closed = 1;
nodes = (
"187 853 OFFCURVE",
"216 864 OFFCURVE",
"249 864 CURVE SMOOTH",
"313 864 OFFCURVE",
"350 814 OFFCURVE",
"423 814 CURVE SMOOTH",
"460 814 OFFCURVE",
"493 826 OFFCURVE",
"513 859 CURVE",
"513 892 LINE",
"487 849 OFFCURVE",
"456 838 OFFCURVE",
"423 838 CURVE SMOOTH",
"358 838 OFFCURVE",
"317 888 OFFCURVE",
"249 888 CURVE SMOOTH",
"212 888 OFFCURVE",
"179 876 OFFCURVE",
"159 843 CURVE",
"159 810 LINE"
);
}
);
width = 663;
}
);
note = Ntilde;
unicode = 00D1;
},
{
glyphname = O;
lastChange = "2015-11-29 23:18:24 +0000";
layers = (
{
layerId = "B4CEBB5F-E069-4C92-9919-8A70C4320291";
name = Light;
paths = (
{
closed = 1;
nodes = (
"626 -15 OFFCURVE",
"782 131 OFFCURVE",
"782 349 CURVE SMOOTH",
"782 568 OFFCURVE",
"626 714 OFFCURVE",
"421 714 CURVE SMOOTH",
"216 714 OFFCURVE",
"60 568 OFFCURVE",
"60 349 CURVE SMOOTH",
"60 131 OFFCURVE",
"216 -15 OFFCURVE",
"421 -15 CURVE SMOOTH"
);
},
{
closed = 1;
nodes = (
"237 9 OFFCURVE",
"86 139 OFFCURVE",
"86 349 CURVE SMOOTH",
"86 558 OFFCURVE",
"234 690 OFFCURVE",
"421 690 CURVE SMOOTH",
"608 690 OFFCURVE",
"756 558 OFFCURVE",
"756 349 CURVE SMOOTH",
"756 139 OFFCURVE",
"605 9 OFFCURVE",
"421 9 CURVE SMOOTH"
);
}
);
width = 842;
}
);
leftKerningGroup = O;
note = O;
rightKerningGroup = O;
unicode = 004F;
},
{
glyphname = Oacute;
lastChange = "2015-11-29 23:18:23 +0000";
layers = (
{
layerId = "B4CEBB5F-E069-4C92-9919-8A70C4320291";
name = Light;
paths = (
{
closed = 1;
nodes = (
"626 -15 OFFCURVE",
"782 131 OFFCURVE",
"782 349 CURVE SMOOTH",
"782 568 OFFCURVE",
"626 714 OFFCURVE",
"421 714 CURVE SMOOTH",
"216 714 OFFCURVE",
"60 568 OFFCURVE",
"60 349 CURVE SMOOTH",
"60 131 OFFCURVE",
"216 -15 OFFCURVE",
"421 -15 CURVE SMOOTH"
);
},
{
closed = 1;
nodes = (
"237 9 OFFCURVE",
"86 139 OFFCURVE",
"86 349 CURVE SMOOTH",
"86 558 OFFCURVE",
"234 690 OFFCURVE",
"421 690 CURVE SMOOTH",
"608 690 OFFCURVE",
"756 558 OFFCURVE",
"756 349 CURVE SMOOTH",
"756 139 OFFCURVE",
"605 9 OFFCURVE",
"421 9 CURVE SMOOTH"
);
},
{
closed = 1;
nodes = (
"414 792 LINE",
"491 959 LINE",
"463 959 LINE",
"392 792 LINE"
);
}
);
width = 842;
}
);
leftKerningGroup = O;
note = Oacute;
rightKerningGroup = O;
unicode = 00D3;
},
{
glyphname = Obreve;
lastChange = "2015-11-29 23:18:23 +0000";
layers = (
{
layerId = "B4CEBB5F-E069-4C92-9919-8A70C4320291";
name = Light;
paths = (
{
closed = 1;
nodes = (
"626 -15 OFFCURVE",
"782 131 OFFCURVE",
"782 349 CURVE SMOOTH",
"782 568 OFFCURVE",
"626 714 OFFCURVE",
"421 714 CURVE SMOOTH",
"216 714 OFFCURVE",
"60 568 OFFCURVE",
"60 349 CURVE SMOOTH",
"60 131 OFFCURVE",
"216 -15 OFFCURVE",
"421 -15 CURVE SMOOTH"
);
},
{
closed = 1;
nodes = (
"237 9 OFFCURVE",
"86 139 OFFCURVE",
"86 349 CURVE SMOOTH",
"86 558 OFFCURVE",
"234 690 OFFCURVE",
"421 690 CURVE SMOOTH",
"608 690 OFFCURVE",
"756 558 OFFCURVE",
"756 349 CURVE SMOOTH",
"756 139 OFFCURVE",
"605 9 OFFCURVE",
"421 9 CURVE SMOOTH"
);
},
{
closed = 1;
nodes = (
"491 758 OFFCURVE",
"539 806 OFFCURVE",
"539 866 CURVE",
"515 866 LINE",
"515 818 OFFCURVE",
"480 781 OFFCURVE",
"421 781 CURVE SMOOTH",
"363 781 OFFCURVE",
"327 818 OFFCURVE",
"327 866 CURVE",
"303 866 LINE",
"303 806 OFFCURVE",
"351 758 OFFCURVE",
"421 758 CURVE SMOOTH"
);
}
);
width = 842;
}
);
leftKerningGroup = O;
note = Obreve;
rightKerningGroup = O;
unicode = 014E;
},
{
glyphname = Ocaron;
lastChange = "2015-11-29 23:18:23 +0000";
layers = (
{
layerId = "B4CEBB5F-E069-4C92-9919-8A70C4320291";
name = Light;
paths = (
{
closed = 1;
nodes = (
"626 -15 OFFCURVE",
"782 131 OFFCURVE",
"782 349 CURVE SMOOTH",
"782 568 OFFCURVE",
"626 714 OFFCURVE",
"421 714 CURVE SMOOTH",
"216 714 OFFCURVE",
"60 568 OFFCURVE",
"60 349 CURVE SMOOTH",
"60 131 OFFCURVE",
"216 -15 OFFCURVE",
"421 -15 CURVE SMOOTH"
);
},
{
closed = 1;
nodes = (
"237 9 OFFCURVE",
"86 139 OFFCURVE",
"86 349 CURVE SMOOTH",
"86 558 OFFCURVE",
"234 690 OFFCURVE",
"421 690 CURVE SMOOTH",
"608 690 OFFCURVE",
"756 558 OFFCURVE",
"756 349 CURVE SMOOTH",
"756 139 OFFCURVE",
"605 9 OFFCURVE",
"421 9 CURVE SMOOTH"
);
},
{
closed = 1;
nodes = (
"432 784 LINE",
"560 935 LINE",
"529 935 LINE",
"421 806 LINE",
"313 935 LINE",
"282 935 LINE",
"410 784 LINE"
);
}
);
width = 842;
}
);
leftKerningGroup = O;
note = Ocaron;
rightKerningGroup = O;
unicode = 01D1;
},
{
glyphname = Ocircumflex;
lastChange = "2015-11-29 23:18:24 +0000";
layers = (
{
layerId = "B4CEBB5F-E069-4C92-9919-8A70C4320291";
name = Light;
paths = (
{
closed = 1;
nodes = (
"626 -15 OFFCURVE",
"782 131 OFFCURVE",
"782 349 CURVE SMOOTH",
"782 568 OFFCURVE",
"626 714 OFFCURVE",
"421 714 CURVE SMOOTH",
"216 714 OFFCURVE",
"60 568 OFFCURVE",
"60 349 CURVE SMOOTH",
"60 131 OFFCURVE",
"216 -15 OFFCURVE",
"421 -15 CURVE SMOOTH"
);
},
{
closed = 1;
nodes = (
"237 9 OFFCURVE",
"86 139 OFFCURVE",
"86 349 CURVE SMOOTH",
"86 558 OFFCURVE",
"234 690 OFFCURVE",
"421 690 CURVE SMOOTH",
"608 690 OFFCURVE",
"756 558 OFFCURVE",
"756 349 CURVE SMOOTH",
"756 139 OFFCURVE",
"605 9 OFFCURVE",
"421 9 CURVE SMOOTH"
);
},
{
closed = 1;
nodes = (
"308 798 LINE",
"416 927 LINE",
"524 798 LINE",
"555 798 LINE",
"427 949 LINE",
"405 949 LINE",
"277 798 LINE"
);
}
);
width = 842;
}
);
leftKerningGroup = O;
note = Ocircumflex;
rightKerningGroup = O;
unicode = 00D4;
},
{
glyphname = Ocircumflexacute;
lastChange = "2015-11-29 23:18:23 +0000";
layers = (
{
layerId = "B4CEBB5F-E069-4C92-9919-8A70C4320291";
name = Light;
paths = (
{
closed = 1;
nodes = (
"626 -15 OFFCURVE",
"782 131 OFFCURVE",
"782 349 CURVE SMOOTH",
"782 568 OFFCURVE",
"626 714 OFFCURVE",
"421 714 CURVE SMOOTH",
"216 714 OFFCURVE",
"60 568 OFFCURVE",
"60 349 CURVE SMOOTH",
"60 131 OFFCURVE",
"216 -15 OFFCURVE",
"421 -15 CURVE SMOOTH"
);
},
{
closed = 1;
nodes = (
"237 9 OFFCURVE",
"86 139 OFFCURVE",
"86 349 CURVE SMOOTH",
"86 558 OFFCURVE",
"234 690 OFFCURVE",
"421 690 CURVE SMOOTH",
"608 690 OFFCURVE",
"756 558 OFFCURVE",
"756 349 CURVE SMOOTH",
"756 139 OFFCURVE",
"605 9 OFFCURVE",
"421 9 CURVE SMOOTH"
);
},
{
closed = 1;
nodes = (
"313 757 LINE",
"421 859 LINE",
"529 757 LINE",
"560 757 LINE",
"432 878 LINE",
"410 878 LINE",
"282 757 LINE"
);
},
{
closed = 1;
nodes = (
"525 840 LINE",
"596 948 LINE",
"568 948 LINE",
"503 840 LINE"
);
}
);
width = 842;
}
);
leftKerningGroup = O;
note = Ocircumflexacute;
rightKerningGroup = O;
unicode = 1ED0;
},
{
glyphname = Ocircumflexdotbelow;
lastChange = "2015-11-29 23:18:22 +0000";
layers = (
{
layerId = "B4CEBB5F-E069-4C92-9919-8A70C4320291";
name = Light;
paths = (
{
closed = 1;
nodes = (
"626 -15 OFFCURVE",
"782 131 OFFCURVE",
"782 349 CURVE SMOOTH",
"782 568 OFFCURVE",
"626 714 OFFCURVE",
"421 714 CURVE SMOOTH",
"216 714 OFFCURVE",
"60 568 OFFCURVE",
"60 349 CURVE SMOOTH",
"60 131 OFFCURVE",
"216 -15 OFFCURVE",
"421 -15 CURVE SMOOTH"
);
},
{
closed = 1;
nodes = (
"436 -121 OFFCURVE",
"449 -108 OFFCURVE",
"449 -93 CURVE SMOOTH",
"449 -78 OFFCURVE",
"436 -65 OFFCURVE",
"421 -65 CURVE SMOOTH",
"406 -65 OFFCURVE",
"393 -78 OFFCURVE",
"393 -93 CURVE SMOOTH",
"393 -108 OFFCURVE",
"406 -121 OFFCURVE",
"421 -121 CURVE SMOOTH"
);
},
{
closed = 1;
nodes = (
"237 9 OFFCURVE",
"86 139 OFFCURVE",
"86 349 CURVE SMOOTH",
"86 558 OFFCURVE",
"234 690 OFFCURVE",
"421 690 CURVE SMOOTH",
"608 690 OFFCURVE",
"756 558 OFFCURVE",
"756 349 CURVE SMOOTH",
"756 139 OFFCURVE",
"605 9 OFFCURVE",
"421 9 CURVE SMOOTH"
);
},
{
closed = 1;
nodes = (
"313 784 LINE",
"421 913 LINE",
"529 784 LINE",
"560 784 LINE",
"432 935 LINE",
"410 935 LINE",
"282 784 LINE"
);
}
);
width = 842;
}
);
leftKerningGroup = O;
note = Ocircumflexdotbelow;
rightKerningGroup = O;
unicode = 1ED8;
},
{
glyphname = Ocircumflexgrave;
lastChange = "2015-11-29 23:18:22 +0000";
layers = (
{
layerId = "B4CEBB5F-E069-4C92-9919-8A70C4320291";
name = Light;
paths = (
{
closed = 1;
nodes = (
"626 -15 OFFCURVE",
"782 131 OFFCURVE",
"782 349 CURVE SMOOTH",
"782 568 OFFCURVE",
"626 714 OFFCURVE",
"421 714 CURVE SMOOTH",
"216 714 OFFCURVE",
"60 568 OFFCURVE",
"60 349 CURVE SMOOTH",
"60 131 OFFCURVE",
"216 -15 OFFCURVE",
"421 -15 CURVE SMOOTH"
);
},
{
closed = 1;
nodes = (
"237 9 OFFCURVE",
"86 139 OFFCURVE",
"86 349 CURVE SMOOTH",
"86 558 OFFCURVE",
"234 690 OFFCURVE",
"421 690 CURVE SMOOTH",
"608 690 OFFCURVE",
"756 558 OFFCURVE",
"756 349 CURVE SMOOTH",
"756 139 OFFCURVE",
"605 9 OFFCURVE",
"421 9 CURVE SMOOTH"
);
},
{
closed = 1;
nodes = (
"325 840 LINE",
"260 948 LINE",
"232 948 LINE",
"303 840 LINE"
);
},
{
closed = 1;
nodes = (
"299 757 LINE",
"407 859 LINE",
"515 757 LINE",
"546 757 LINE",
"418 878 LINE",
"396 878 LINE",
"268 757 LINE"
);
}
);
width = 842;
}
);
leftKerningGroup = O;
note = Ocircumflexgrave;
rightKerningGroup = O;
unicode = 1ED2;
},
{
glyphname = Ocircumflexhookabove;
lastChange = "2015-11-29 23:18:22 +0000";
layers = (
{
layerId = "B4CEBB5F-E069-4C92-9919-8A70C4320291";
name = Light;
paths = (
{
closed = 1;
nodes = (
"626 -15 OFFCURVE",
"782 131 OFFCURVE",
"782 349 CURVE SMOOTH",
"782 568 OFFCURVE",
"626 714 OFFCURVE",
"421 714 CURVE SMOOTH",
"216 714 OFFCURVE",
"60 568 OFFCURVE",
"60 349 CURVE SMOOTH",
"60 131 OFFCURVE",
"216 -15 OFFCURVE",
"421 -15 CURVE SMOOTH"
);
},
{
closed = 1;
nodes = (
"237 9 OFFCURVE",
"86 139 OFFCURVE",
"86 349 CURVE SMOOTH",
"86 558 OFFCURVE",
"234 690 OFFCURVE",
"421 690 CURVE SMOOTH",
"608 690 OFFCURVE",
"756 558 OFFCURVE",
"756 349 CURVE SMOOTH",
"756 139 OFFCURVE",
"605 9 OFFCURVE",
"421 9 CURVE SMOOTH"
);
},
{
closed = 1;
nodes = (
"309 757 LINE",
"417 859 LINE",
"525 757 LINE",
"556 757 LINE",
"428 878 LINE",
"406 878 LINE",
"278 757 LINE"
);
},
{
closed = 1;
nodes = (
"522 830 LINE",
"522 857 LINE",
"566 859 OFFCURVE",
"592 882 OFFCURVE",
"592 917 CURVE SMOOTH",
"592 954 OFFCURVE",
"571 979 OFFCURVE",
"522 979 CURVE SMOOTH",
"504 979 OFFCURVE",
"484 975 OFFCURVE",
"473 971 CURVE",
"473 948 LINE",
"484 953 OFFCURVE",
"505 957 OFFCURVE",
"522 957 CURVE SMOOTH",
"552 957 OFFCURVE",
"568 947 OFFCURVE",
"568 917 CURVE SMOOTH",
"568 886 OFFCURVE",
"549 875 OFFCURVE",
"501 875 CURVE",
"501 830 LINE"
);
}
);
width = 842;
}
);
leftKerningGroup = O;
note = Ocircumflexhookabove;
rightKerningGroup = O;
unicode = 1ED4;
},
{
glyphname = Ocircumflextilde;
lastChange = "2015-11-29 23:18:22 +0000";
layers = (
{
layerId = "B4CEBB5F-E069-4C92-9919-8A70C4320291";
name = Light;
paths = (
{
closed = 1;
nodes = (
"626 -15 OFFCURVE",
"782 131 OFFCURVE",
"782 349 CURVE SMOOTH",
"782 568 OFFCURVE",
"626 714 OFFCURVE",
"421 714 CURVE SMOOTH",
"216 714 OFFCURVE",
"60 568 OFFCURVE",
"60 349 CURVE SMOOTH",
"60 131 OFFCURVE",
"216 -15 OFFCURVE",
"421 -15 CURVE SMOOTH"
);
},
{
closed = 1;
nodes = (
"237 9 OFFCURVE",
"86 139 OFFCURVE",
"86 349 CURVE SMOOTH",
"86 558 OFFCURVE",
"234 690 OFFCURVE",
"421 690 CURVE SMOOTH",
"608 690 OFFCURVE",
"756 558 OFFCURVE",
"756 349 CURVE SMOOTH",
"756 139 OFFCURVE",
"605 9 OFFCURVE",
"421 9 CURVE SMOOTH"
);
},
{
closed = 1;
nodes = (
"491 760 OFFCURVE",
"539 808 OFFCURVE",
"539 868 CURVE",
"515 868 LINE",
"515 820 OFFCURVE",
"480 783 OFFCURVE",
"421 783 CURVE SMOOTH",
"363 783 OFFCURVE",
"327 820 OFFCURVE",
"327 868 CURVE",
"303 868 LINE",
"303 808 OFFCURVE",
"351 760 OFFCURVE",
"421 760 CURVE SMOOTH"
);
},
{
closed = 1;
nodes = (
"526 896 OFFCURVE",
"547 907 OFFCURVE",
"561 933 CURVE",
"561 963 LINE",
"542 928 OFFCURVE",
"522 918 OFFCURVE",
"492 918 CURVE SMOOTH",
"450 918 OFFCURVE",
"395 964 OFFCURVE",
"350 964 CURVE SMOOTH",
"316 964 OFFCURVE",
"295 953 OFFCURVE",
"281 927 CURVE",
"281 897 LINE",
"302 932 OFFCURVE",
"320 942 OFFCURVE",
"350 942 CURVE SMOOTH",
"391 942 OFFCURVE",
"443 896 OFFCURVE",
"492 896 CURVE SMOOTH"
);
}
);
width = 842;
}
);
leftKerningGroup = O;
note = Ocircumflextilde;
rightKerningGroup = O;
unicode = 1ED6;
},
{
glyphname = Odieresis;
lastChange = "2015-11-29 23:18:24 +0000";
layers = (
{
layerId = "B4CEBB5F-E069-4C92-9919-8A70C4320291";
name = Light;
paths = (
{
closed = 1;
nodes = (
"626 -15 OFFCURVE",
"782 131 OFFCURVE",
"782 349 CURVE SMOOTH",
"782 568 OFFCURVE",
"626 714 OFFCURVE",
"421 714 CURVE SMOOTH",
"216 714 OFFCURVE",
"60 568 OFFCURVE",
"60 349 CURVE SMOOTH",
"60 131 OFFCURVE",
"216 -15 OFFCURVE",
"421 -15 CURVE SMOOTH"
);
},
{
closed = 1;
nodes = (
"237 9 OFFCURVE",
"86 139 OFFCURVE",
"86 349 CURVE SMOOTH",
"86 558 OFFCURVE",
"234 690 OFFCURVE",
"421 690 CURVE SMOOTH",
"608 690 OFFCURVE",
"756 558 OFFCURVE",
"756 349 CURVE SMOOTH",
"756 139 OFFCURVE",
"605 9 OFFCURVE",
"421 9 CURVE SMOOTH"
);
},
{
closed = 1;
nodes = (
"337 802 OFFCURVE",
"350 815 OFFCURVE",
"350 830 CURVE SMOOTH",
"350 845 OFFCURVE",
"337 858 OFFCURVE",
"322 858 CURVE SMOOTH",
"307 858 OFFCURVE",
"294 845 OFFCURVE",
"294 830 CURVE SMOOTH",
"294 815 OFFCURVE",
"307 802 OFFCURVE",
"322 802 CURVE SMOOTH"
);
},
{
closed = 1;
nodes = (
"535 802 OFFCURVE",
"548 815 OFFCURVE",
"548 830 CURVE SMOOTH",
"548 845 OFFCURVE",
"535 858 OFFCURVE",
"520 858 CURVE SMOOTH",
"505 858 OFFCURVE",
"492 845 OFFCURVE",
"492 830 CURVE SMOOTH",
"492 815 OFFCURVE",
"505 802 OFFCURVE",
"520 802 CURVE SMOOTH"
);
}
);
width = 842;
}
);
leftKerningGroup = O;
note = Odieresis;
rightKerningGroup = O;
unicode = 00D6;
},
{
glyphname = Odotbelow;
lastChange = "2015-11-29 23:18:22 +0000";
layers = (
{
layerId = "B4CEBB5F-E069-4C92-9919-8A70C4320291";
name = Light;
paths = (
{
closed = 1;
nodes = (
"626 -15 OFFCURVE",
"782 131 OFFCURVE",
"782 349 CURVE SMOOTH",
"782 568 OFFCURVE",
"626 714 OFFCURVE",
"421 714 CURVE SMOOTH",
"216 714 OFFCURVE",
"60 568 OFFCURVE",
"60 349 CURVE SMOOTH",
"60 131 OFFCURVE",
"216 -15 OFFCURVE",
"421 -15 CURVE SMOOTH"
);
},
{
closed = 1;
nodes = (
"436 -121 OFFCURVE",
"449 -108 OFFCURVE",
"449 -93 CURVE SMOOTH",
"449 -78 OFFCURVE",
"436 -65 OFFCURVE",
"421 -65 CURVE SMOOTH",
"406 -65 OFFCURVE",
"393 -78 OFFCURVE",
"393 -93 CURVE SMOOTH",
"393 -108 OFFCURVE",
"406 -121 OFFCURVE",
"421 -121 CURVE SMOOTH"
);
},
{
closed = 1;
nodes = (
"237 9 OFFCURVE",
"86 139 OFFCURVE",
"86 349 CURVE SMOOTH",
"86 558 OFFCURVE",
"234 690 OFFCURVE",
"421 690 CURVE SMOOTH",
"608 690 OFFCURVE",
"756 558 OFFCURVE",
"756 349 CURVE SMOOTH",
"756 139 OFFCURVE",
"605 9 OFFCURVE",
"421 9 CURVE SMOOTH"
);
}
);
width = 842;
}
);
leftKerningGroup = O;
note = Odotbelow;
rightKerningGroup = O;
unicode = 1ECC;
},
{
glyphname = Ograve;
lastChange = "2015-11-29 23:18:23 +0000";
layers = (
{
layerId = "B4CEBB5F-E069-4C92-9919-8A70C4320291";
name = Light;
paths = (
{
closed = 1;
nodes = (
"626 -15 OFFCURVE",
"782 131 OFFCURVE",
"782 349 CURVE SMOOTH",
"782 568 OFFCURVE",
"626 714 OFFCURVE",
"421 714 CURVE SMOOTH",
"216 714 OFFCURVE",
"60 568 OFFCURVE",
"60 349 CURVE SMOOTH",
"60 131 OFFCURVE",
"216 -15 OFFCURVE",
"421 -15 CURVE SMOOTH"
);
},
{
closed = 1;
nodes = (
"237 9 OFFCURVE",
"86 139 OFFCURVE",
"86 349 CURVE SMOOTH",
"86 558 OFFCURVE",
"234 690 OFFCURVE",
"421 690 CURVE SMOOTH",
"608 690 OFFCURVE",
"756 558 OFFCURVE",
"756 349 CURVE SMOOTH",
"756 139 OFFCURVE",
"605 9 OFFCURVE",
"421 9 CURVE SMOOTH"
);
},
{
closed = 1;
nodes = (
"453 792 LINE",
"382 959 LINE",
"354 959 LINE",
"431 792 LINE"
);
}
);
width = 842;
}
);
leftKerningGroup = O;
note = Ograve;
rightKerningGroup = O;
unicode = 00D2;
},
{
glyphname = Ohookabove;
lastChange = "2015-11-29 23:18:23 +0000";
layers = (
{
layerId = "B4CEBB5F-E069-4C92-9919-8A70C4320291";
name = Light;
paths = (
{
closed = 1;
nodes = (
"626 -15 OFFCURVE",
"782 131 OFFCURVE",
"782 349 CURVE SMOOTH",
"782 568 OFFCURVE",
"626 714 OFFCURVE",
"421 714 CURVE SMOOTH",
"216 714 OFFCURVE",
"60 568 OFFCURVE",
"60 349 CURVE SMOOTH",
"60 131 OFFCURVE",
"216 -15 OFFCURVE",
"421 -15 CURVE SMOOTH"
);
},
{
closed = 1;
nodes = (
"237 9 OFFCURVE",
"86 139 OFFCURVE",
"86 349 CURVE SMOOTH",
"86 558 OFFCURVE",
"234 690 OFFCURVE",
"421 690 CURVE SMOOTH",
"608 690 OFFCURVE",
"756 558 OFFCURVE",
"756 349 CURVE SMOOTH",
"756 139 OFFCURVE",
"605 9 OFFCURVE",
"421 9 CURVE SMOOTH"
);
},
{
closed = 1;
nodes = (
"422 784 LINE",
"422 828 LINE",
"487 831 OFFCURVE",
"519 866 OFFCURVE",
"519 915 CURVE SMOOTH",
"519 965 OFFCURVE",
"485 1001 OFFCURVE",
"416 1001 CURVE SMOOTH",
"396 1001 OFFCURVE",
"372 997 OFFCURVE",
"361 993 CURVE",
"361 969 LINE",
"373 974 OFFCURVE",
"398 977 OFFCURVE",
"416 977 CURVE SMOOTH",
"464 977 OFFCURVE",
"493 958 OFFCURVE",
"493 914 CURVE SMOOTH",
"493 870 OFFCURVE",
"471 847 OFFCURVE",
"399 847 CURVE",
"399 784 LINE"
);
}
);
width = 842;
}
);
leftKerningGroup = O;
note = Ohookabove;
rightKerningGroup = O;
unicode = 1ECE;
},
{
glyphname = Ohorn;
lastChange = "2015-11-29 23:18:24 +0000";
layers = (
{
layerId = "B4CEBB5F-E069-4C92-9919-8A70C4320291";
name = Light;
paths = (
{
closed = 1;
nodes = (
"626 -15 OFFCURVE",
"782 131 OFFCURVE",
"782 349 CURVE SMOOTH",
"782 450 OFFCURVE",
"748 536 OFFCURVE",
"692 599 CURVE",
"750 610 OFFCURVE",
"794 657 OFFCURVE",
"794 710 CURVE SMOOTH",
"794 747 LINE",
"770 747 LINE",
"770 710 LINE SMOOTH",
"770 663 OFFCURVE",
"728 622 OFFCURVE",
"671 620 CURVE",
"607 680 OFFCURVE",
"520 714 OFFCURVE",
"421 714 CURVE SMOOTH",
"216 714 OFFCURVE",
"60 568 OFFCURVE",
"60 349 CURVE SMOOTH",
"60 131 OFFCURVE",
"216 -15 OFFCURVE",
"421 -15 CURVE SMOOTH"
);
},
{
closed = 1;
nodes = (
"237 9 OFFCURVE",
"86 139 OFFCURVE",
"86 349 CURVE SMOOTH",
"86 558 OFFCURVE",
"234 690 OFFCURVE",
"421 690 CURVE SMOOTH",
"608 690 OFFCURVE",
"756 558 OFFCURVE",
"756 349 CURVE SMOOTH",
"756 139 OFFCURVE",
"605 9 OFFCURVE",
"421 9 CURVE SMOOTH"
);
}
);
width = 824;
}
);
leftKerningGroup = O;
note = Ohorn;
rightKerningGroup = O;
unicode = 01A0;
},
{
glyphname = Ohornacute;
lastChange = "2015-11-29 23:18:23 +0000";
layers = (
{
layerId = "B4CEBB5F-E069-4C92-9919-8A70C4320291";
name = Light;
paths = (
{
closed = 1;
nodes = (
"626 -15 OFFCURVE",
"782 131 OFFCURVE",
"782 349 CURVE SMOOTH",
"782 450 OFFCURVE",
"748 536 OFFCURVE",
"692 599 CURVE",
"750 610 OFFCURVE",
"794 657 OFFCURVE",
"794 710 CURVE SMOOTH",
"794 747 LINE",
"770 747 LINE",
"770 710 LINE SMOOTH",
"770 663 OFFCURVE",
"728 622 OFFCURVE",
"671 620 CURVE",
"607 680 OFFCURVE",
"520 714 OFFCURVE",
"421 714 CURVE SMOOTH",
"216 714 OFFCURVE",
"60 568 OFFCURVE",
"60 349 CURVE SMOOTH",
"60 131 OFFCURVE",
"216 -15 OFFCURVE",
"421 -15 CURVE SMOOTH"
);
},
{
closed = 1;
nodes = (
"237 9 OFFCURVE",
"86 139 OFFCURVE",
"86 349 CURVE SMOOTH",
"86 558 OFFCURVE",
"234 690 OFFCURVE",
"421 690 CURVE SMOOTH",
"608 690 OFFCURVE",
"756 558 OFFCURVE",
"756 349 CURVE SMOOTH",
"756 139 OFFCURVE",
"605 9 OFFCURVE",
"421 9 CURVE SMOOTH"
);
},
{
closed = 1;
nodes = (
"441 783 LINE",
"518 950 LINE",
"490 950 LINE",
"419 783 LINE"
);
}
);
width = 834;
}
);
leftKerningGroup = O;
note = Ohornacute;
rightKerningGroup = O;
unicode = 1EDA;
},
{
glyphname = Ohorndotbelow;
lastChange = "2015-11-29 23:18:23 +0000";
layers = (
{
layerId = "B4CEBB5F-E069-4C92-9919-8A70C4320291";
name = Light;
paths = (
{
closed = 1;
nodes = (
"626 -15 OFFCURVE",
"782 131 OFFCURVE",
"782 349 CURVE SMOOTH",
"782 450 OFFCURVE",
"748 536 OFFCURVE",
"692 599 CURVE",
"750 610 OFFCURVE",
"794 657 OFFCURVE",
"794 710 CURVE SMOOTH",
"794 747 LINE",
"770 747 LINE",
"770 710 LINE SMOOTH",
"770 663 OFFCURVE",
"728 622 OFFCURVE",
"671 620 CURVE",
"607 680 OFFCURVE",
"520 714 OFFCURVE",
"421 714 CURVE SMOOTH",
"216 714 OFFCURVE",
"60 568 OFFCURVE",
"60 349 CURVE SMOOTH",
"60 131 OFFCURVE",
"216 -15 OFFCURVE",
"421 -15 CURVE SMOOTH"
);
},
{
closed = 1;
nodes = (
"444 -121 OFFCURVE",
"457 -108 OFFCURVE",
"457 -93 CURVE SMOOTH",
"457 -78 OFFCURVE",
"444 -65 OFFCURVE",
"429 -65 CURVE SMOOTH",
"414 -65 OFFCURVE",
"401 -78 OFFCURVE",
"401 -93 CURVE SMOOTH",
"401 -108 OFFCURVE",
"414 -121 OFFCURVE",
"429 -121 CURVE SMOOTH"
);
},
{
closed = 1;
nodes = (
"237 9 OFFCURVE",
"86 139 OFFCURVE",
"86 349 CURVE SMOOTH",
"86 558 OFFCURVE",
"234 690 OFFCURVE",
"421 690 CURVE SMOOTH",
"608 690 OFFCURVE",
"756 558 OFFCURVE",
"756 349 CURVE SMOOTH",
"756 139 OFFCURVE",
"605 9 OFFCURVE",
"421 9 CURVE SMOOTH"
);
}
);
width = 834;
}
);
leftKerningGroup = O;
note = Ohorndotbelow;
rightKerningGroup = O;
unicode = 1EE2;
},
{
glyphname = Ohorngrave;
lastChange = "2015-11-29 23:18:22 +0000";
layers = (
{
layerId = "B4CEBB5F-E069-4C92-9919-8A70C4320291";
name = Light;
paths = (
{
closed = 1;
nodes = (
"626 -15 OFFCURVE",
"782 131 OFFCURVE",
"782 349 CURVE SMOOTH",
"782 450 OFFCURVE",
"748 536 OFFCURVE",
"692 599 CURVE",
"750 610 OFFCURVE",
"794 657 OFFCURVE",
"794 710 CURVE SMOOTH",
"794 747 LINE",
"770 747 LINE",
"770 710 LINE SMOOTH",
"770 663 OFFCURVE",
"728 622 OFFCURVE",
"671 620 CURVE",
"607 680 OFFCURVE",
"520 714 OFFCURVE",
"421 714 CURVE SMOOTH",
"216 714 OFFCURVE",
"60 568 OFFCURVE",
"60 349 CURVE SMOOTH",
"60 131 OFFCURVE",
"216 -15 OFFCURVE",
"421 -15 CURVE SMOOTH"
);
},
{
closed = 1;
nodes = (
"237 9 OFFCURVE",
"86 139 OFFCURVE",
"86 349 CURVE SMOOTH",
"86 558 OFFCURVE",
"234 690 OFFCURVE",
"421 690 CURVE SMOOTH",
"608 690 OFFCURVE",
"756 558 OFFCURVE",
"756 349 CURVE SMOOTH",
"756 139 OFFCURVE",
"605 9 OFFCURVE",
"421 9 CURVE SMOOTH"
);
},
{
closed = 1;
nodes = (
"449 783 LINE",
"378 950 LINE",
"350 950 LINE",
"427 783 LINE"
);
}
);
width = 834;
}
);
leftKerningGroup = O;
note = Ohorngrave;
rightKerningGroup = O;
unicode = 1EDC;
},
{
glyphname = Ohornhookabove;
lastChange = "2015-11-29 23:18:23 +0000";
layers = (
{
layerId = "B4CEBB5F-E069-4C92-9919-8A70C4320291";
name = Light;
paths = (
{
closed = 1;
nodes = (
"626 -15 OFFCURVE",
"782 131 OFFCURVE",
"782 349 CURVE SMOOTH",
"782 450 OFFCURVE",
"748 536 OFFCURVE",
"692 599 CURVE",
"750 610 OFFCURVE",
"794 657 OFFCURVE",
"794 710 CURVE SMOOTH",
"794 747 LINE",
"770 747 LINE",
"770 710 LINE SMOOTH",
"770 663 OFFCURVE",
"728 622 OFFCURVE",
"671 620 CURVE",
"607 680 OFFCURVE",
"520 714 OFFCURVE",
"421 714 CURVE SMOOTH",
"216 714 OFFCURVE",
"60 568 OFFCURVE",
"60 349 CURVE SMOOTH",
"60 131 OFFCURVE",
"216 -15 OFFCURVE",
"421 -15 CURVE SMOOTH"
);
},
{
closed = 1;
nodes = (
"237 9 OFFCURVE",
"86 139 OFFCURVE",
"86 349 CURVE SMOOTH",
"86 558 OFFCURVE",
"234 690 OFFCURVE",
"421 690 CURVE SMOOTH",
"608 690 OFFCURVE",
"756 558 OFFCURVE",
"756 349 CURVE SMOOTH",
"756 139 OFFCURVE",
"605 9 OFFCURVE",
"421 9 CURVE SMOOTH"
);
},
{
closed = 1;
nodes = (
"440 784 LINE",
"440 828 LINE",
"505 831 OFFCURVE",
"537 866 OFFCURVE",
"537 915 CURVE SMOOTH",
"537 965 OFFCURVE",
"503 1001 OFFCURVE",
"434 1001 CURVE SMOOTH",
"414 1001 OFFCURVE",
"390 997 OFFCURVE",
"379 993 CURVE",
"379 969 LINE",
"391 974 OFFCURVE",
"416 977 OFFCURVE",
"434 977 CURVE SMOOTH",
"482 977 OFFCURVE",
"511 958 OFFCURVE",
"511 914 CURVE SMOOTH",
"511 870 OFFCURVE",
"489 847 OFFCURVE",
"417 847 CURVE",
"417 784 LINE"
);
}
);
width = 834;
}
);
leftKerningGroup = O;
note = Ohornhookabove;
rightKerningGroup = O;
unicode = 1EDE;
},
{
glyphname = Ohorntilde;
lastChange = "2015-11-29 23:18:22 +0000";
layers = (
{
layerId = "B4CEBB5F-E069-4C92-9919-8A70C4320291";
name = Light;
paths = (
{
closed = 1;
nodes = (
"626 -15 OFFCURVE",
"782 131 OFFCURVE",
"782 349 CURVE SMOOTH",
"782 450 OFFCURVE",
"748 536 OFFCURVE",
"692 599 CURVE",
"750 610 OFFCURVE",
"794 657 OFFCURVE",
"794 710 CURVE SMOOTH",
"794 747 LINE",
"770 747 LINE",
"770 710 LINE SMOOTH",
"770 663 OFFCURVE",
"728 622 OFFCURVE",
"671 620 CURVE",
"607 680 OFFCURVE",
"520 714 OFFCURVE",
"421 714 CURVE SMOOTH",
"216 714 OFFCURVE",
"60 568 OFFCURVE",
"60 349 CURVE SMOOTH",
"60 131 OFFCURVE",
"216 -15 OFFCURVE",
"421 -15 CURVE SMOOTH"
);
},
{
closed = 1;
nodes = (
"237 9 OFFCURVE",
"86 139 OFFCURVE",
"86 349 CURVE SMOOTH",
"86 558 OFFCURVE",
"234 690 OFFCURVE",
"421 690 CURVE SMOOTH",
"608 690 OFFCURVE",
"756 558 OFFCURVE",
"756 349 CURVE SMOOTH",
"756 139 OFFCURVE",
"605 9 OFFCURVE",
"421 9 CURVE SMOOTH"
);
},
{
closed = 1;
nodes = (
"284 827 OFFCURVE",
"313 838 OFFCURVE",
"346 838 CURVE SMOOTH",
"410 838 OFFCURVE",
"447 788 OFFCURVE",
"520 788 CURVE SMOOTH",
"557 788 OFFCURVE",
"590 800 OFFCURVE",
"610 833 CURVE",
"610 866 LINE",
"584 823 OFFCURVE",
"553 812 OFFCURVE",
"520 812 CURVE SMOOTH",
"455 812 OFFCURVE",
"414 862 OFFCURVE",
"346 862 CURVE SMOOTH",
"309 862 OFFCURVE",
"276 850 OFFCURVE",
"256 817 CURVE",
"256 784 LINE"
);
}
);
width = 834;
}
);
leftKerningGroup = O;
note = Ohorntilde;
rightKerningGroup = O;
unicode = 1EE0;
},
{
glyphname = Ohungarumlaut;
lastChange = "2015-11-29 23:18:22 +0000";
layers = (
{
layerId = "B4CEBB5F-E069-4C92-9919-8A70C4320291";
name = Light;
paths = (
{
closed = 1;
nodes = (
"626 -15 OFFCURVE",
"782 131 OFFCURVE",
"782 349 CURVE SMOOTH",
"782 568 OFFCURVE",
"626 714 OFFCURVE",
"421 714 CURVE SMOOTH",
"216 714 OFFCURVE",
"60 568 OFFCURVE",
"60 349 CURVE SMOOTH",
"60 131 OFFCURVE",
"216 -15 OFFCURVE",
"421 -15 CURVE SMOOTH"
);
},
{
closed = 1;
nodes = (
"237 9 OFFCURVE",
"86 139 OFFCURVE",
"86 349 CURVE SMOOTH",
"86 558 OFFCURVE",
"234 690 OFFCURVE",
"421 690 CURVE SMOOTH",
"608 690 OFFCURVE",
"756 558 OFFCURVE",
"756 349 CURVE SMOOTH",
"756 139 OFFCURVE",
"605 9 OFFCURVE",
"421 9 CURVE SMOOTH"
);
},
{
closed = 1;
nodes = (
"326 780 LINE",
"403 947 LINE",
"375 947 LINE",
"304 780 LINE"
);
},
{
closed = 1;
nodes = (
"493 780 LINE",
"570 947 LINE",
"542 947 LINE",
"471 780 LINE"
);
}
);
width = 842;
}
);
leftKerningGroup = O;
note = Ohungarumlaut;
rightKerningGroup = O;
unicode = 0150;
},
{
glyphname = Omacron;
lastChange = "2015-11-29 23:18:23 +0000";
layers = (
{
layerId = "B4CEBB5F-E069-4C92-9919-8A70C4320291";
name = Light;
paths = (
{
closed = 1;
nodes = (
"626 -15 OFFCURVE",
"782 131 OFFCURVE",
"782 349 CURVE SMOOTH",
"782 568 OFFCURVE",
"626 714 OFFCURVE",
"421 714 CURVE SMOOTH",
"216 714 OFFCURVE",
"60 568 OFFCURVE",
"60 349 CURVE SMOOTH",
"60 131 OFFCURVE",
"216 -15 OFFCURVE",
"421 -15 CURVE SMOOTH"
);
},
{
closed = 1;
nodes = (
"237 9 OFFCURVE",
"86 139 OFFCURVE",
"86 349 CURVE SMOOTH",
"86 558 OFFCURVE",
"234 690 OFFCURVE",
"421 690 CURVE SMOOTH",
"608 690 OFFCURVE",
"756 558 OFFCURVE",
"756 349 CURVE SMOOTH",
"756 139 OFFCURVE",
"605 9 OFFCURVE",
"421 9 CURVE SMOOTH"
);
},
{
closed = 1;
nodes = (
"542 813 LINE",
"542 837 LINE",
"264 837 LINE",
"264 813 LINE"
);
}
);
width = 842;
}
);
leftKerningGroup = O;
note = Omacron;
rightKerningGroup = O;
unicode = 014C;
},
{
glyphname = Oslash;
lastChange = "2015-11-29 23:18:23 +0000";
layers = (
{
layerId = "B4CEBB5F-E069-4C92-9919-8A70C4320291";
name = Light;
paths = (
{
closed = 1;
nodes = (
"267 -86 LINE",
"302 2 LINE",
"339 -9 OFFCURVE",
"379 -15 OFFCURVE",
"421 -15 CURVE SMOOTH",
"626 -15 OFFCURVE",
"782 131 OFFCURVE",
"782 349 CURVE SMOOTH",
"782 508 OFFCURVE",
"700 629 OFFCURVE",
"576 683 CURVE",
"617 784 LINE",
"589 784 LINE",
"552 692 LINE",
"511 706 OFFCURVE",
"467 714 OFFCURVE",
"421 714 CURVE SMOOTH",
"216 714 OFFCURVE",
"60 568 OFFCURVE",
"60 349 CURVE SMOOTH",
"60 185 OFFCURVE",
"147 62 OFFCURVE",
"278 11 CURVE",
"239 -86 LINE"
);
},
{
closed = 1;
nodes = (
"169 81 OFFCURVE",
"86 193 OFFCURVE",
"86 349 CURVE SMOOTH",
"86 558 OFFCURVE",
"234 690 OFFCURVE",
"421 690 CURVE SMOOTH",
"464 690 OFFCURVE",
"505 683 OFFCURVE",
"543 669 CURVE",
"287 34 LINE"
);
},
{
closed = 1;
nodes = (
"383 9 OFFCURVE",
"346 14 OFFCURVE",
"311 25 CURVE",
"567 660 LINE",
"679 610 OFFCURVE",
"756 499 OFFCURVE",
"756 349 CURVE SMOOTH",
"756 139 OFFCURVE",
"605 9 OFFCURVE",
"421 9 CURVE SMOOTH"
);
}
);
width = 842;
}
);
leftKerningGroup = O;
note = Oslash;
rightKerningGroup = O;
unicode = 00D8;
},
{
glyphname = Oslashacute;
lastChange = "2015-11-29 23:18:24 +0000";
layers = (
{
layerId = "B4CEBB5F-E069-4C92-9919-8A70C4320291";
name = Light;
paths = (
{
closed = 1;
nodes = (
"267 -86 LINE",
"302 2 LINE",
"339 -9 OFFCURVE",
"379 -15 OFFCURVE",
"421 -15 CURVE SMOOTH",
"626 -15 OFFCURVE",
"782 131 OFFCURVE",
"782 349 CURVE SMOOTH",
"782 508 OFFCURVE",
"700 629 OFFCURVE",
"576 683 CURVE",
"617 784 LINE",
"589 784 LINE",
"552 692 LINE",
"511 706 OFFCURVE",
"467 714 OFFCURVE",
"421 714 CURVE SMOOTH",
"216 714 OFFCURVE",
"60 568 OFFCURVE",
"60 349 CURVE SMOOTH",
"60 185 OFFCURVE",
"147 62 OFFCURVE",
"278 11 CURVE",
"239 -86 LINE"
);
},
{
closed = 1;
nodes = (
"169 81 OFFCURVE",
"86 193 OFFCURVE",
"86 349 CURVE SMOOTH",
"86 558 OFFCURVE",
"234 690 OFFCURVE",
"421 690 CURVE SMOOTH",
"464 690 OFFCURVE",
"505 683 OFFCURVE",
"543 669 CURVE",
"287 34 LINE"
);
},
{
closed = 1;
nodes = (
"383 9 OFFCURVE",
"346 14 OFFCURVE",
"311 25 CURVE",
"567 660 LINE",
"679 610 OFFCURVE",
"756 499 OFFCURVE",
"756 349 CURVE SMOOTH",
"756 139 OFFCURVE",
"605 9 OFFCURVE",
"421 9 CURVE SMOOTH"
);
},
{
closed = 1;
nodes = (
"441 784 LINE",
"518 951 LINE",
"490 951 LINE",
"419 784 LINE"
);
}
);
width = 842;
}
);
leftKerningGroup = O;
note = Oslashacute;
rightKerningGroup = O;
unicode = 01FE;
},
{
glyphname = Otilde;
lastChange = "2015-11-29 23:18:23 +0000";
layers = (
{
layerId = "B4CEBB5F-E069-4C92-9919-8A70C4320291";
name = Light;
paths = (
{
closed = 1;
nodes = (
"626 -15 OFFCURVE",
"782 131 OFFCURVE",
"782 349 CURVE SMOOTH",
"782 568 OFFCURVE",
"626 714 OFFCURVE",
"421 714 CURVE SMOOTH",
"216 714 OFFCURVE",
"60 568 OFFCURVE",
"60 349 CURVE SMOOTH",
"60 131 OFFCURVE",
"216 -15 OFFCURVE",
"421 -15 CURVE SMOOTH"
);
},
{
closed = 1;
nodes = (
"237 9 OFFCURVE",
"86 139 OFFCURVE",
"86 349 CURVE SMOOTH",
"86 558 OFFCURVE",
"234 690 OFFCURVE",
"421 690 CURVE SMOOTH",
"608 690 OFFCURVE",
"756 558 OFFCURVE",
"756 349 CURVE SMOOTH",
"756 139 OFFCURVE",
"605 9 OFFCURVE",
"421 9 CURVE SMOOTH"
);
},
{
closed = 1;
nodes = (
"272 853 OFFCURVE",
"301 864 OFFCURVE",
"334 864 CURVE SMOOTH",
"398 864 OFFCURVE",
"435 814 OFFCURVE",
"508 814 CURVE SMOOTH",
"545 814 OFFCURVE",
"578 826 OFFCURVE",
"598 859 CURVE",
"598 892 LINE",
"572 849 OFFCURVE",
"541 838 OFFCURVE",
"508 838 CURVE SMOOTH",
"443 838 OFFCURVE",
"402 888 OFFCURVE",
"334 888 CURVE SMOOTH",
"297 888 OFFCURVE",
"264 876 OFFCURVE",
"244 843 CURVE",
"244 810 LINE"
);
}
);
width = 842;
}
);
leftKerningGroup = O;
note = Otilde;
rightKerningGroup = O;
unicode = 00D5;
},
{
glyphname = OE;
lastChange = "2015-11-29 23:18:22 +0000";
layers = (
{
layerId = "B4CEBB5F-E069-4C92-9919-8A70C4320291";
name = Light;
paths = (
{
closed = 1;
nodes = (
"825 0 LINE",
"825 24 LINE",
"486 24 LINE",
"486 338 LINE",
"729 338 LINE",
"729 362 LINE",
"486 362 LINE",
"486 675 LINE",
"825 675 LINE",
"825 699 LINE",
"421 699 LINE SMOOTH",
"216 699 OFFCURVE",
"60 568 OFFCURVE",
"60 349 CURVE SMOOTH",
"60 131 OFFCURVE",
"216 0 OFFCURVE",
"421 0 CURVE SMOOTH"
);
},
{
closed = 1;
nodes = (
"237 24 OFFCURVE",
"86 139 OFFCURVE",
"86 349 CURVE SMOOTH",
"86 558 OFFCURVE",
"234 675 OFFCURVE",
"421 675 CURVE SMOOTH",
"458 675 LINE",
"458 24 LINE",
"421 24 LINE SMOOTH"
);
}
);
width = 885;
}
);
leftKerningGroup = O;
note = OE;
rightKerningGroup = E;
unicode = 0152;
},
{
glyphname = P;
lastChange = "2015-11-29 23:18:24 +0000";
layers = (
{
layerId = "B4CEBB5F-E069-4C92-9919-8A70C4320291";
name = Light;
paths = (
{
closed = 1;
nodes = (
"108 0 LINE",
"108 333 LINE",
"319 333 LINE SMOOTH",
"455 333 OFFCURVE",
"530 385 OFFCURVE",
"530 516 CURVE SMOOTH",
"530 647 OFFCURVE",
"455 699 OFFCURVE",
"319 699 CURVE SMOOTH",
"80 699 LINE",
"80 0 LINE"
);
},
{
closed = 1;
nodes = (
"108 675 LINE",
"322 675 LINE SMOOTH",
"424 675 OFFCURVE",
"504 646 OFFCURVE",
"504 516 CURVE SMOOTH",
"504 386 OFFCURVE",
"424 357 OFFCURVE",
"322 357 CURVE SMOOTH",
"108 357 LINE"
);
}
);
width = 570;
}
);
note = P;
unicode = 0050;
},
{
glyphname = Thorn;
lastChange = "2015-11-29 23:18:22 +0000";
layers = (
{
layerId = "B4CEBB5F-E069-4C92-9919-8A70C4320291";
name = Light;
paths = (
{
closed = 1;
nodes = (
"108 0 LINE",
"108 167 LINE",
"319 167 LINE SMOOTH",
"455 167 OFFCURVE",
"530 219 OFFCURVE",
"530 350 CURVE SMOOTH",
"530 481 OFFCURVE",
"455 533 OFFCURVE",
"319 533 CURVE SMOOTH",
"108 533 LINE",
"108 699 LINE",
"80 699 LINE",
"80 0 LINE"
);
},
{
closed = 1;
nodes = (
"108 509 LINE",
"322 509 LINE SMOOTH",
"424 509 OFFCURVE",
"504 480 OFFCURVE",
"504 350 CURVE SMOOTH",
"504 220 OFFCURVE",
"424 191 OFFCURVE",
"322 191 CURVE SMOOTH",
"108 191 LINE"
);
}
);
width = 590;
}
);
note = Thorn;
unicode = 00DE;
},
{
glyphname = Q;
lastChange = "2015-11-29 23:18:24 +0000";
layers = (
{
layerId = "B4CEBB5F-E069-4C92-9919-8A70C4320291";
name = Light;
paths = (
{
closed = 1;
nodes = (
"787 0 LINE",
"787 24 LINE",
"547 24 LINE",
"683 64 OFFCURVE",
"782 182 OFFCURVE",
"782 349 CURVE SMOOTH",
"782 568 OFFCURVE",
"626 714 OFFCURVE",
"421 714 CURVE SMOOTH",
"216 714 OFFCURVE",
"60 568 OFFCURVE",
"60 349 CURVE SMOOTH",
"60 137 OFFCURVE",
"210 0 OFFCURVE",
"426 0 CURVE SMOOTH"
);
},
{
closed = 1;
nodes = (
"237 24 OFFCURVE",
"86 139 OFFCURVE",
"86 349 CURVE SMOOTH",
"86 558 OFFCURVE",
"234 690 OFFCURVE",
"421 690 CURVE SMOOTH",
"608 690 OFFCURVE",
"756 558 OFFCURVE",
"756 349 CURVE SMOOTH",
"756 139 OFFCURVE",
"602 24 OFFCURVE",
"421 24 CURVE SMOOTH"
);
}
);
width = 847;
}
);
leftKerningGroup = O;
note = Q;
rightKerningGroup = O;
unicode = 0051;
},
{
glyphname = R;
lastChange = "2015-11-29 23:18:24 +0000";
layers = (
{
layerId = "B4CEBB5F-E069-4C92-9919-8A70C4320291";
name = Light;
paths = (
{
closed = 1;
nodes = (
"108 0 LINE",
"108 340 LINE",
"307 340 LINE",
"502 0 LINE",
"531 0 LINE",
"336 340 LINE",
"468 343 OFFCURVE",
"530 421 OFFCURVE",
"530 518 CURVE SMOOTH",
"530 639 OFFCURVE",
"466 699 OFFCURVE",
"328 699 CURVE SMOOTH",
"80 699 LINE",
"80 0 LINE"
);
},
{
closed = 1;
nodes = (
"108 675 LINE",
"332 675 LINE SMOOTH",
"434 675 OFFCURVE",
"504 638 OFFCURVE",
"504 518 CURVE SMOOTH",
"504 417 OFFCURVE",
"438 364 OFFCURVE",
"331 364 CURVE SMOOTH",
"108 364 LINE"
);
}
);
width = 591;
}
);
note = R;
rightKerningGroup = R;
unicode = 0052;
},
{
glyphname = Racute;
lastChange = "2015-11-29 23:18:24 +0000";
layers = (
{
layerId = "B4CEBB5F-E069-4C92-9919-8A70C4320291";
name = Light;
paths = (
{
closed = 1;
nodes = (
"108 0 LINE",
"108 340 LINE",
"307 340 LINE",
"502 0 LINE",
"531 0 LINE",
"336 340 LINE",
"468 343 OFFCURVE",
"530 421 OFFCURVE",
"530 518 CURVE SMOOTH",
"530 639 OFFCURVE",
"466 699 OFFCURVE",
"328 699 CURVE SMOOTH",
"80 699 LINE",
"80 0 LINE"
);
},
{
closed = 1;
nodes = (
"108 675 LINE",
"332 675 LINE SMOOTH",
"434 675 OFFCURVE",
"504 638 OFFCURVE",
"504 518 CURVE SMOOTH",
"504 417 OFFCURVE",
"438 364 OFFCURVE",
"331 364 CURVE SMOOTH",
"108 364 LINE"
);
},
{
closed = 1;
nodes = (
"254 780 LINE",
"331 947 LINE",
"303 947 LINE",
"232 780 LINE"
);
}
);
width = 591;
}
);
note = Racute;
rightKerningGroup = R;
unicode = 0154;
},
{
glyphname = Rcaron;
lastChange = "2015-11-29 23:18:23 +0000";
layers = (
{
layerId = "B4CEBB5F-E069-4C92-9919-8A70C4320291";
name = Light;
paths = (
{
closed = 1;
nodes = (
"108 0 LINE",
"108 340 LINE",
"307 340 LINE",
"502 0 LINE",
"531 0 LINE",
"336 340 LINE",
"468 343 OFFCURVE",
"530 421 OFFCURVE",
"530 518 CURVE SMOOTH",
"530 639 OFFCURVE",
"466 699 OFFCURVE",
"328 699 CURVE SMOOTH",
"80 699 LINE",
"80 0 LINE"
);
},
{
closed = 1;
nodes = (
"108 675 LINE",
"332 675 LINE SMOOTH",
"434 675 OFFCURVE",
"504 638 OFFCURVE",
"504 518 CURVE SMOOTH",
"504 417 OFFCURVE",
"438 364 OFFCURVE",
"331 364 CURVE SMOOTH",
"108 364 LINE"
);
},
{
closed = 1;
nodes = (
"290 784 LINE",
"418 935 LINE",
"387 935 LINE",
"279 806 LINE",
"171 935 LINE",
"140 935 LINE",
"268 784 LINE"
);
}
);
width = 591;
}
);
note = Rcaron;
rightKerningGroup = R;
unicode = 0158;
},
{
glyphname = Rcommaaccent;
lastChange = "2015-11-29 23:18:24 +0000";
layers = (
{
layerId = "B4CEBB5F-E069-4C92-9919-8A70C4320291";
name = Light;
paths = (
{
closed = 1;
nodes = (
"108 0 LINE",
"108 340 LINE",
"307 340 LINE",
"502 0 LINE",
"531 0 LINE",
"336 340 LINE",
"468 343 OFFCURVE",
"530 421 OFFCURVE",
"530 518 CURVE SMOOTH",
"530 639 OFFCURVE",
"466 699 OFFCURVE",
"328 699 CURVE SMOOTH",
"80 699 LINE",
"80 0 LINE"
);
},
{
closed = 1;
nodes = (
"210 -259 LINE",
"295 -70 LINE",
"264 -70 LINE",
"185 -259 LINE"
);
},
{
closed = 1;
nodes = (
"108 675 LINE",
"332 675 LINE SMOOTH",
"434 675 OFFCURVE",
"504 638 OFFCURVE",
"504 518 CURVE SMOOTH",
"504 417 OFFCURVE",
"438 364 OFFCURVE",
"331 364 CURVE SMOOTH",
"108 364 LINE"
);
}
);
width = 591;
}
);
note = Rcommaaccent;
rightKerningGroup = R;
unicode = 0156;
},
{
glyphname = Rdotbelow;
lastChange = "2015-11-29 23:18:24 +0000";
layers = (
{
layerId = "B4CEBB5F-E069-4C92-9919-8A70C4320291";
name = Light;
paths = (
{
closed = 1;
nodes = (
"108 0 LINE",
"108 340 LINE",
"307 340 LINE",
"502 0 LINE",
"531 0 LINE",
"336 340 LINE",
"468 343 OFFCURVE",
"530 421 OFFCURVE",
"530 518 CURVE SMOOTH",
"530 639 OFFCURVE",
"466 699 OFFCURVE",
"328 699 CURVE SMOOTH",
"80 699 LINE",
"80 0 LINE"
);
},
{
closed = 1;
nodes = (
"303 -121 OFFCURVE",
"316 -108 OFFCURVE",
"316 -93 CURVE SMOOTH",
"316 -78 OFFCURVE",
"303 -65 OFFCURVE",
"288 -65 CURVE SMOOTH",
"273 -65 OFFCURVE",
"260 -78 OFFCURVE",
"260 -93 CURVE SMOOTH",
"260 -108 OFFCURVE",
"273 -121 OFFCURVE",
"288 -121 CURVE SMOOTH"
);
},
{
closed = 1;
nodes = (
"108 675 LINE",
"332 675 LINE SMOOTH",
"434 675 OFFCURVE",
"504 638 OFFCURVE",
"504 518 CURVE SMOOTH",
"504 417 OFFCURVE",
"438 364 OFFCURVE",
"331 364 CURVE SMOOTH",
"108 364 LINE"
);
}
);
width = 591;
}
);
note = Rdotbelow;
rightKerningGroup = R;
unicode = 1E5A;
},
{
glyphname = Rdotbelowmacron;
lastChange = "2015-11-29 23:18:23 +0000";
layers = (
{
layerId = "B4CEBB5F-E069-4C92-9919-8A70C4320291";
name = Light;
paths = (
{
closed = 1;
nodes = (
"108 0 LINE",
"108 340 LINE",
"307 340 LINE",
"502 0 LINE",
"531 0 LINE",
"336 340 LINE",
"468 343 OFFCURVE",
"530 421 OFFCURVE",
"530 518 CURVE SMOOTH",
"530 639 OFFCURVE",
"466 699 OFFCURVE",
"328 699 CURVE SMOOTH",
"80 699 LINE",
"80 0 LINE"
);
},
{
closed = 1;
nodes = (
"279 -121 OFFCURVE",
"292 -108 OFFCURVE",
"292 -93 CURVE SMOOTH",
"292 -78 OFFCURVE",
"279 -65 OFFCURVE",
"264 -65 CURVE SMOOTH",
"249 -65 OFFCURVE",
"236 -78 OFFCURVE",
"236 -93 CURVE SMOOTH",
"236 -108 OFFCURVE",
"249 -121 OFFCURVE",
"264 -121 CURVE SMOOTH"
);
},
{
closed = 1;
nodes = (
"108 675 LINE",
"332 675 LINE SMOOTH",
"434 675 OFFCURVE",
"504 638 OFFCURVE",
"504 518 CURVE SMOOTH",
"504 417 OFFCURVE",
"438 364 OFFCURVE",
"331 364 CURVE SMOOTH",
"108 364 LINE"
);
},
{
closed = 1;
nodes = (
"406 813 LINE",
"406 837 LINE",
"128 837 LINE",
"128 813 LINE"
);
}
);
width = 591;
}
);
note = Rdotbelowmacron;
rightKerningGroup = R;
unicode = 1E5C;
},
{
glyphname = Rlinebelow;
lastChange = "2015-11-29 23:18:22 +0000";
layers = (
{
layerId = "B4CEBB5F-E069-4C92-9919-8A70C4320291";
name = Light;
paths = (
{
closed = 1;
nodes = (
"108 0 LINE",
"108 340 LINE",
"307 340 LINE",
"502 0 LINE",
"531 0 LINE",
"336 340 LINE",
"468 343 OFFCURVE",
"530 421 OFFCURVE",
"530 518 CURVE SMOOTH",
"530 639 OFFCURVE",
"466 699 OFFCURVE",
"328 699 CURVE SMOOTH",
"80 699 LINE",
"80 0 LINE"
);
},
{
closed = 1;
nodes = (
"411 -110 LINE",
"411 -86 LINE",
"133 -86 LINE",
"133 -110 LINE"
);
},
{
closed = 1;
nodes = (
"108 675 LINE",
"332 675 LINE SMOOTH",
"434 675 OFFCURVE",
"504 638 OFFCURVE",
"504 518 CURVE SMOOTH",
"504 417 OFFCURVE",
"438 364 OFFCURVE",
"331 364 CURVE SMOOTH",
"108 364 LINE"
);
}
);
width = 591;
}
);
note = Rlinebelow;
rightKerningGroup = R;
unicode = 1E5E;
},
{
glyphname = S;
lastChange = "2015-11-29 23:18:19 +0000";
layers = (
{
layerId = "B4CEBB5F-E069-4C92-9919-8A70C4320291";
name = Light;
paths = (
{
closed = 1;
nodes = (
"404 -15 OFFCURVE",
"484 49 OFFCURVE",
"484 161 CURVE SMOOTH",
"484 287 OFFCURVE",
"401 319 OFFCURVE",
"278 365 CURVE SMOOTH",
"139 417 OFFCURVE",
"95 461 OFFCURVE",
"95 547 CURVE SMOOTH",
"95 629 OFFCURVE",
"161 690 OFFCURVE",
"280 690 CURVE SMOOTH",
"347 690 OFFCURVE",
"400 679 OFFCURVE",
"455 657 CURVE",
"455 682 LINE",
"401 704 OFFCURVE",
"348 714 OFFCURVE",
"280 714 CURVE SMOOTH",
"153 714 OFFCURVE",
"69 649 OFFCURVE",
"69 547 CURVE SMOOTH",
"69 448 OFFCURVE",
"127 396 OFFCURVE",
"258 348 CURVE SMOOTH",
"397 297 OFFCURVE",
"458 264 OFFCURVE",
"458 161 CURVE SMOOTH",
"458 63 OFFCURVE",
"393 9 OFFCURVE",
"251 9 CURVE SMOOTH",
"183 9 OFFCURVE",
"119 19 OFFCURVE",
"60 42 CURVE",
"60 17 LINE",
"105 -2 OFFCURVE",
"178 -15 OFFCURVE",
"251 -15 CURVE SMOOTH"
);
}
);
width = 544;
}
);
leftKerningGroup = S;
note = S;
rightKerningGroup = S;
unicode = 0053;
},
{
glyphname = Sacute;
lastChange = "2015-11-29 23:18:23 +0000";
layers = (
{
layerId = "B4CEBB5F-E069-4C92-9919-8A70C4320291";
name = Light;
paths = (
{
closed = 1;
nodes = (
"404 -15 OFFCURVE",
"484 49 OFFCURVE",
"484 161 CURVE SMOOTH",
"484 287 OFFCURVE",
"401 319 OFFCURVE",
"278 365 CURVE SMOOTH",
"139 417 OFFCURVE",
"95 461 OFFCURVE",
"95 547 CURVE SMOOTH",
"95 629 OFFCURVE",
"161 690 OFFCURVE",
"280 690 CURVE SMOOTH",
"347 690 OFFCURVE",
"400 679 OFFCURVE",
"455 657 CURVE",
"455 682 LINE",
"401 704 OFFCURVE",
"348 714 OFFCURVE",
"280 714 CURVE SMOOTH",
"153 714 OFFCURVE",
"69 649 OFFCURVE",
"69 547 CURVE SMOOTH",
"69 448 OFFCURVE",
"127 396 OFFCURVE",
"258 348 CURVE SMOOTH",
"397 297 OFFCURVE",
"458 264 OFFCURVE",
"458 161 CURVE SMOOTH",
"458 63 OFFCURVE",
"393 9 OFFCURVE",
"251 9 CURVE SMOOTH",
"183 9 OFFCURVE",
"119 19 OFFCURVE",
"60 42 CURVE",
"60 17 LINE",
"105 -2 OFFCURVE",
"178 -15 OFFCURVE",
"251 -15 CURVE SMOOTH"
);
},
{
closed = 1;
nodes = (
"288 784 LINE",
"365 951 LINE",
"337 951 LINE",
"266 784 LINE"
);
}
);
width = 544;
}
);
leftKerningGroup = S;
note = Sacute;
rightKerningGroup = S;
unicode = 015A;
},
{
glyphname = Scaron;
lastChange = "2015-11-29 23:18:24 +0000";
layers = (
{
layerId = "B4CEBB5F-E069-4C92-9919-8A70C4320291";
name = Light;
paths = (
{
closed = 1;
nodes = (
"404 -15 OFFCURVE",
"484 49 OFFCURVE",
"484 161 CURVE SMOOTH",
"484 287 OFFCURVE",
"401 319 OFFCURVE",
"278 365 CURVE SMOOTH",
"139 417 OFFCURVE",
"95 461 OFFCURVE",
"95 547 CURVE SMOOTH",
"95 629 OFFCURVE",
"161 690 OFFCURVE",
"280 690 CURVE SMOOTH",
"347 690 OFFCURVE",
"400 679 OFFCURVE",
"455 657 CURVE",
"455 682 LINE",
"401 704 OFFCURVE",
"348 714 OFFCURVE",
"280 714 CURVE SMOOTH",
"153 714 OFFCURVE",
"69 649 OFFCURVE",
"69 547 CURVE SMOOTH",
"69 448 OFFCURVE",
"127 396 OFFCURVE",
"258 348 CURVE SMOOTH",
"397 297 OFFCURVE",
"458 264 OFFCURVE",
"458 161 CURVE SMOOTH",
"458 63 OFFCURVE",
"393 9 OFFCURVE",
"251 9 CURVE SMOOTH",
"183 9 OFFCURVE",
"119 19 OFFCURVE",
"60 42 CURVE",
"60 17 LINE",
"105 -2 OFFCURVE",
"178 -15 OFFCURVE",
"251 -15 CURVE SMOOTH"
);
},
{
closed = 1;
nodes = (
"314 784 LINE",
"442 935 LINE",
"411 935 LINE",
"303 806 LINE",
"195 935 LINE",
"164 935 LINE",
"292 784 LINE"
);
}
);
width = 544;
}
);
leftKerningGroup = S;
note = Scaron;
rightKerningGroup = S;
unicode = 0160;
},
{
glyphname = Scedilla;
lastChange = "2015-11-29 23:18:22 +0000";
layers = (
{
layerId = "B4CEBB5F-E069-4C92-9919-8A70C4320291";
name = Light;
paths = (
{
closed = 1;
nodes = (
"404 -15 OFFCURVE",
"484 49 OFFCURVE",
"484 161 CURVE SMOOTH",
"484 287 OFFCURVE",
"401 319 OFFCURVE",
"278 365 CURVE SMOOTH",
"139 417 OFFCURVE",
"95 461 OFFCURVE",
"95 547 CURVE SMOOTH",
"95 629 OFFCURVE",
"161 690 OFFCURVE",
"280 690 CURVE SMOOTH",
"347 690 OFFCURVE",
"400 679 OFFCURVE",
"455 657 CURVE",
"455 682 LINE",
"401 704 OFFCURVE",
"348 714 OFFCURVE",
"280 714 CURVE SMOOTH",
"153 714 OFFCURVE",
"69 649 OFFCURVE",
"69 547 CURVE SMOOTH",
"69 448 OFFCURVE",
"127 396 OFFCURVE",
"258 348 CURVE SMOOTH",
"397 297 OFFCURVE",
"458 264 OFFCURVE",
"458 161 CURVE SMOOTH",
"458 63 OFFCURVE",
"393 9 OFFCURVE",
"251 9 CURVE SMOOTH",
"183 9 OFFCURVE",
"119 19 OFFCURVE",
"60 42 CURVE",
"60 17 LINE",
"105 -2 OFFCURVE",
"178 -15 OFFCURVE",
"251 -15 CURVE SMOOTH"
);
},
{
closed = 1;
nodes = (
"328 -248 OFFCURVE",
"362 -212 OFFCURVE",
"362 -162 CURVE SMOOTH",
"362 -113 OFFCURVE",
"332 -77 OFFCURVE",
"265 -74 CURVE",
"294 0 LINE",
"266 0 LINE",
"230 -93 LINE",
"312 -93 OFFCURVE",
"336 -117 OFFCURVE",
"336 -161 CURVE SMOOTH",
"336 -205 OFFCURVE",
"307 -224 OFFCURVE",
"259 -224 CURVE SMOOTH",
"241 -224 OFFCURVE",
"216 -221 OFFCURVE",
"204 -216 CURVE",
"204 -240 LINE",
"215 -244 OFFCURVE",
"239 -248 OFFCURVE",
"259 -248 CURVE SMOOTH"
);
}
);
width = 544;
}
);
leftKerningGroup = S;
note = Scedilla;
rightKerningGroup = S;
unicode = 015E;
},
{
glyphname = Scircumflex;
lastChange = "2015-11-29 23:18:23 +0000";
layers = (
{
layerId = "B4CEBB5F-E069-4C92-9919-8A70C4320291";
name = Light;
paths = (
{
closed = 1;
nodes = (
"404 -15 OFFCURVE",
"484 49 OFFCURVE",
"484 161 CURVE SMOOTH",
"484 287 OFFCURVE",
"401 319 OFFCURVE",
"278 365 CURVE SMOOTH",
"139 417 OFFCURVE",
"95 461 OFFCURVE",
"95 547 CURVE SMOOTH",
"95 629 OFFCURVE",
"161 690 OFFCURVE",
"280 690 CURVE SMOOTH",
"347 690 OFFCURVE",
"400 679 OFFCURVE",
"455 657 CURVE",
"455 682 LINE",
"401 704 OFFCURVE",
"348 714 OFFCURVE",
"280 714 CURVE SMOOTH",
"153 714 OFFCURVE",
"69 649 OFFCURVE",
"69 547 CURVE SMOOTH",
"69 448 OFFCURVE",
"127 396 OFFCURVE",
"258 348 CURVE SMOOTH",
"397 297 OFFCURVE",
"458 264 OFFCURVE",
"458 161 CURVE SMOOTH",
"458 63 OFFCURVE",
"393 9 OFFCURVE",
"251 9 CURVE SMOOTH",
"183 9 OFFCURVE",
"119 19 OFFCURVE",
"60 42 CURVE",
"60 17 LINE",
"105 -2 OFFCURVE",
"178 -15 OFFCURVE",
"251 -15 CURVE SMOOTH"
);
},
{
closed = 1;
nodes = (
"171 784 LINE",
"279 913 LINE",
"387 784 LINE",
"418 784 LINE",
"290 935 LINE",
"268 935 LINE",
"140 784 LINE"
);
}
);
width = 544;
}
);
leftKerningGroup = S;
note = Scircumflex;
rightKerningGroup = S;
unicode = 015C;
},
{
glyphname = Scommaaccent;
lastChange = "2015-11-29 23:18:22 +0000";
layers = (
{
layerId = "B4CEBB5F-E069-4C92-9919-8A70C4320291";
name = Light;
paths = (
{
closed = 1;
nodes = (
"404 -15 OFFCURVE",
"484 49 OFFCURVE",
"484 161 CURVE SMOOTH",
"484 287 OFFCURVE",
"401 319 OFFCURVE",
"278 365 CURVE SMOOTH",
"139 417 OFFCURVE",
"95 461 OFFCURVE",
"95 547 CURVE SMOOTH",
"95 629 OFFCURVE",
"161 690 OFFCURVE",
"280 690 CURVE SMOOTH",
"347 690 OFFCURVE",
"400 679 OFFCURVE",
"455 657 CURVE",
"455 682 LINE",
"401 704 OFFCURVE",
"348 714 OFFCURVE",
"280 714 CURVE SMOOTH",
"153 714 OFFCURVE",
"69 649 OFFCURVE",
"69 547 CURVE SMOOTH",
"69 448 OFFCURVE",
"127 396 OFFCURVE",
"258 348 CURVE SMOOTH",
"397 297 OFFCURVE",
"458 264 OFFCURVE",
"458 161 CURVE SMOOTH",
"458 63 OFFCURVE",
"393 9 OFFCURVE",
"251 9 CURVE SMOOTH",
"183 9 OFFCURVE",
"119 19 OFFCURVE",
"60 42 CURVE",
"60 17 LINE",
"105 -2 OFFCURVE",
"178 -15 OFFCURVE",
"251 -15 CURVE SMOOTH"
);
},
{
closed = 1;
nodes = (
"223 -259 LINE",
"308 -70 LINE",
"277 -70 LINE",
"198 -259 LINE"
);
}
);
width = 544;
}
);
leftKerningGroup = S;
note = Scommaaccent;
rightKerningGroup = S;
unicode = 0218;
},
{
glyphname = Sdotaccent;
lastChange = "2015-11-29 23:18:22 +0000";
layers = (
{
layerId = "B4CEBB5F-E069-4C92-9919-8A70C4320291";
name = Light;
paths = (
{
closed = 1;
nodes = (
"404 -15 OFFCURVE",
"484 49 OFFCURVE",
"484 161 CURVE SMOOTH",
"484 287 OFFCURVE",
"401 319 OFFCURVE",
"278 365 CURVE SMOOTH",
"139 417 OFFCURVE",
"95 461 OFFCURVE",
"95 547 CURVE SMOOTH",
"95 629 OFFCURVE",
"161 690 OFFCURVE",
"280 690 CURVE SMOOTH",
"347 690 OFFCURVE",
"400 679 OFFCURVE",
"455 657 CURVE",
"455 682 LINE",
"401 704 OFFCURVE",
"348 714 OFFCURVE",
"280 714 CURVE SMOOTH",
"153 714 OFFCURVE",
"69 649 OFFCURVE",
"69 547 CURVE SMOOTH",
"69 448 OFFCURVE",
"127 396 OFFCURVE",
"258 348 CURVE SMOOTH",
"397 297 OFFCURVE",
"458 264 OFFCURVE",
"458 161 CURVE SMOOTH",
"458 63 OFFCURVE",
"393 9 OFFCURVE",
"251 9 CURVE SMOOTH",
"183 9 OFFCURVE",
"119 19 OFFCURVE",
"60 42 CURVE",
"60 17 LINE",
"105 -2 OFFCURVE",
"178 -15 OFFCURVE",
"251 -15 CURVE SMOOTH"
);
},
{
closed = 1;
nodes = (
"309 790 OFFCURVE",
"322 803 OFFCURVE",
"322 818 CURVE SMOOTH",
"322 833 OFFCURVE",
"309 846 OFFCURVE",
"294 846 CURVE SMOOTH",
"279 846 OFFCURVE",
"266 833 OFFCURVE",
"266 818 CURVE SMOOTH",
"266 803 OFFCURVE",
"279 790 OFFCURVE",
"294 790 CURVE SMOOTH"
);
}
);
width = 544;
}
);
leftKerningGroup = S;
note = Sdotaccent;
rightKerningGroup = S;
unicode = 1E60;
},
{
glyphname = Sdotbelow;
lastChange = "2015-11-29 23:18:22 +0000";
layers = (
{
layerId = "B4CEBB5F-E069-4C92-9919-8A70C4320291";
name = Light;
paths = (
{
closed = 1;
nodes = (
"404 -15 OFFCURVE",
"484 49 OFFCURVE",
"484 161 CURVE SMOOTH",
"484 287 OFFCURVE",
"401 319 OFFCURVE",
"278 365 CURVE SMOOTH",
"139 417 OFFCURVE",
"95 461 OFFCURVE",
"95 547 CURVE SMOOTH",
"95 629 OFFCURVE",
"161 690 OFFCURVE",
"280 690 CURVE SMOOTH",
"347 690 OFFCURVE",
"400 679 OFFCURVE",
"455 657 CURVE",
"455 682 LINE",
"401 704 OFFCURVE",
"348 714 OFFCURVE",
"280 714 CURVE SMOOTH",
"153 714 OFFCURVE",
"69 649 OFFCURVE",
"69 547 CURVE SMOOTH",
"69 448 OFFCURVE",
"127 396 OFFCURVE",
"258 348 CURVE SMOOTH",
"397 297 OFFCURVE",
"458 264 OFFCURVE",
"458 161 CURVE SMOOTH",
"458 63 OFFCURVE",
"393 9 OFFCURVE",
"251 9 CURVE SMOOTH",
"183 9 OFFCURVE",
"119 19 OFFCURVE",
"60 42 CURVE",
"60 17 LINE",
"105 -2 OFFCURVE",
"178 -15 OFFCURVE",
"251 -15 CURVE SMOOTH"
);
},
{
closed = 1;
nodes = (
"287 -121 OFFCURVE",
"300 -108 OFFCURVE",
"300 -93 CURVE SMOOTH",
"300 -78 OFFCURVE",
"287 -65 OFFCURVE",
"272 -65 CURVE SMOOTH",
"257 -65 OFFCURVE",
"244 -78 OFFCURVE",
"244 -93 CURVE SMOOTH",
"244 -108 OFFCURVE",
"257 -121 OFFCURVE",
"272 -121 CURVE SMOOTH"
);
}
);
width = 544;
}
);
leftKerningGroup = S;
note = Sdotbelow;
rightKerningGroup = S;
unicode = 1E62;
},
{
glyphname = Germandbls;
lastChange = "2015-11-29 23:18:19 +0000";
layers = (
{
layerId = "B4CEBB5F-E069-4C92-9919-8A70C4320291";
name = Light;
paths = (
{
closed = 1;
nodes = (
"464 -15 OFFCURVE",
"530 74 OFFCURVE",
"530 191 CURVE SMOOTH",
"530 319 OFFCURVE",
"445 387 OFFCURVE",
"293 387 CURVE",
"454 540 LINE",
"454 633 OFFCURVE",
"390 714 OFFCURVE",
"266 714 CURVE SMOOTH",
"164 714 OFFCURVE",
"75 666 OFFCURVE",
"75 502 CURVE SMOOTH",
"75 0 LINE",
"103 0 LINE",
"103 505 LINE SMOOTH",
"103 651 OFFCURVE",
"183 691 OFFCURVE",
"266 691 CURVE SMOOTH",
"358 691 OFFCURVE",
"428 637 OFFCURVE",
"428 547 CURVE",
"261 388 LINE",
"261 364 LINE",
"297 364 LINE SMOOTH",
"405 364 OFFCURVE",
"504 324 OFFCURVE",
"504 191 CURVE SMOOTH",
"504 72 OFFCURVE",
"435 8 OFFCURVE",
"321 8 CURVE SMOOTH",
"262 8 OFFCURVE",
"225 13 OFFCURVE",
"182 30 CURVE",
"182 6 LINE",
"218 -9 OFFCURVE",
"266 -15 OFFCURVE",
"321 -15 CURVE SMOOTH"
);
}
);
width = 590;
}
);
note = uni1E9E;
unicode = 1E9E;
},
{
glyphname = Schwa;
lastChange = "2015-11-29 23:18:23 +0000";
layers = (
{
layerId = "B4CEBB5F-E069-4C92-9919-8A70C4320291";
name = Light;
paths = (
{
closed = 1;
nodes = (
"635 -15 OFFCURVE",
"756 129 OFFCURVE",
"756 349 CURVE SMOOTH",
"756 580 OFFCURVE",
"619 714 OFFCURVE",
"374 714 CURVE SMOOTH",
"289 714 OFFCURVE",
"184 694 OFFCURVE",
"133 673 CURVE",
"133 649 LINE",
"194 674 OFFCURVE",
"283 691 OFFCURVE",
"374 691 CURVE SMOOTH",
"597 691 OFFCURVE",
"730 571 OFFCURVE",
"730 354 CURVE",
"60 354 LINE",
"60 328 LINE SMOOTH",
"60 134 OFFCURVE",
"177 -15 OFFCURVE",
"409 -15 CURVE SMOOTH"
);
},
{
closed = 1;
nodes = (
"185 8 OFFCURVE",
"86 152 OFFCURVE",
"86 331 CURVE",
"730 331 LINE",
"730 153 OFFCURVE",
"629 8 OFFCURVE",
"409 8 CURVE SMOOTH"
);
}
);
width = 816;
}
);
note = uni018F;
unicode = 018F;
},
{
glyphname = T;
lastChange = "2015-11-29 23:18:19 +0000";
layers = (
{
layerId = "B4CEBB5F-E069-4C92-9919-8A70C4320291";
name = Light;
paths = (
{
closed = 1;
nodes = (
"306 0 LINE",
"306 675 LINE",
"544 675 LINE",
"544 699 LINE",
"40 699 LINE",
"40 675 LINE",
"278 675 LINE",
"278 0 LINE"
);
}
);
width = 584;
}
);
leftKerningGroup = T;
note = T;
rightKerningGroup = T;
unicode = 0054;
},
{
glyphname = Tbar;
lastChange = "2015-11-29 23:18:19 +0000";
layers = (
{
layerId = "B4CEBB5F-E069-4C92-9919-8A70C4320291";
name = Light;
paths = (
{
closed = 1;
nodes = (
"306 0 LINE",
"306 331 LINE",
"447 331 LINE",
"447 355 LINE",
"306 355 LINE",
"306 675 LINE",
"544 675 LINE",
"544 699 LINE",
"40 699 LINE",
"40 675 LINE",
"278 675 LINE",
"278 355 LINE",
"135 355 LINE",
"135 331 LINE",
"278 331 LINE",
"278 0 LINE"
);
}
);
width = 584;
}
);
leftKerningGroup = T;
note = Tbar;
rightKerningGroup = T;
unicode = 0166;
},
{
glyphname = Tcaron;
lastChange = "2015-11-29 23:18:23 +0000";
layers = (
{
layerId = "B4CEBB5F-E069-4C92-9919-8A70C4320291";
name = Light;
paths = (
{
closed = 1;
nodes = (
"306 0 LINE",
"306 675 LINE",
"544 675 LINE",
"544 699 LINE",
"40 699 LINE",
"40 675 LINE",
"278 675 LINE",
"278 0 LINE"
);
},
{
closed = 1;
nodes = (
"303 784 LINE",
"431 935 LINE",
"400 935 LINE",
"292 806 LINE",
"184 935 LINE",
"153 935 LINE",
"281 784 LINE"
);
}
);
width = 584;
}
);
leftKerningGroup = T;
note = Tcaron;
rightKerningGroup = T;
unicode = 0164;
},
{
glyphname = Tcedilla;
lastChange = "2015-11-29 23:18:22 +0000";
layers = (
{
layerId = "B4CEBB5F-E069-4C92-9919-8A70C4320291";
name = Light;
paths = (
{
closed = 1;
nodes = (
"306 0 LINE",
"306 675 LINE",
"544 675 LINE",
"544 699 LINE",
"40 699 LINE",
"40 675 LINE",
"278 675 LINE",
"278 0 LINE"
);
},
{
closed = 1;
nodes = (
"340 -248 OFFCURVE",
"374 -212 OFFCURVE",
"374 -162 CURVE SMOOTH",
"374 -113 OFFCURVE",
"344 -77 OFFCURVE",
"277 -74 CURVE",
"306 0 LINE",
"278 0 LINE",
"242 -93 LINE",
"324 -93 OFFCURVE",
"348 -117 OFFCURVE",
"348 -161 CURVE SMOOTH",
"348 -205 OFFCURVE",
"319 -224 OFFCURVE",
"271 -224 CURVE SMOOTH",
"253 -224 OFFCURVE",
"228 -221 OFFCURVE",
"216 -216 CURVE",
"216 -240 LINE",
"227 -244 OFFCURVE",
"251 -248 OFFCURVE",
"271 -248 CURVE SMOOTH"
);
}
);
width = 584;
}
);
leftKerningGroup = T;
note = Tcedilla;
rightKerningGroup = T;
unicode = 0162;
},
{
glyphname = Tcommaaccent;
lastChange = "2015-11-29 23:18:24 +0000";
layers = (
{
layerId = "B4CEBB5F-E069-4C92-9919-8A70C4320291";
name = Light;
paths = (
{
closed = 1;
nodes = (
"306 0 LINE",
"306 675 LINE",
"544 675 LINE",
"544 699 LINE",
"40 699 LINE",
"40 675 LINE",
"278 675 LINE",
"278 0 LINE"
);
},
{
closed = 1;
nodes = (
"224 -259 LINE",
"309 -70 LINE",
"278 -70 LINE",
"199 -259 LINE"
);
}
);
width = 584;
}
);
leftKerningGroup = T;
note = Tcommaaccent;
rightKerningGroup = T;
unicode = 021A;
},
{
glyphname = Tdotbelow;
lastChange = "2015-11-29 23:18:22 +0000";
layers = (
{
layerId = "B4CEBB5F-E069-4C92-9919-8A70C4320291";
name = Light;
paths = (
{
closed = 1;
nodes = (
"306 0 LINE",
"306 675 LINE",
"544 675 LINE",
"544 699 LINE",
"40 699 LINE",
"40 675 LINE",
"278 675 LINE",
"278 0 LINE"
);
},
{
closed = 1;
nodes = (
"307 -121 OFFCURVE",
"320 -108 OFFCURVE",
"320 -93 CURVE SMOOTH",
"320 -78 OFFCURVE",
"307 -65 OFFCURVE",
"292 -65 CURVE SMOOTH",
"277 -65 OFFCURVE",
"264 -78 OFFCURVE",
"264 -93 CURVE SMOOTH",
"264 -108 OFFCURVE",
"277 -121 OFFCURVE",
"292 -121 CURVE SMOOTH"
);
}
);
width = 584;
}
);
leftKerningGroup = T;
note = Tdotbelow;
rightKerningGroup = T;
unicode = 1E6C;
},
{
glyphname = Tlinebelow;
lastChange = "2015-11-29 23:18:23 +0000";
layers = (
{
layerId = "B4CEBB5F-E069-4C92-9919-8A70C4320291";
name = Light;
paths = (
{
closed = 1;
nodes = (
"306 0 LINE",
"306 675 LINE",
"544 675 LINE",
"544 699 LINE",
"40 699 LINE",
"40 675 LINE",
"278 675 LINE",
"278 0 LINE"
);
},
{
closed = 1;
nodes = (
"431 -110 LINE",
"431 -86 LINE",
"153 -86 LINE",
"153 -110 LINE"
);
}
);
width = 584;
}
);
leftKerningGroup = T;
note = Tlinebelow;
rightKerningGroup = T;
unicode = 1E6E;
},
{
glyphname = U;
lastChange = "2015-11-29 23:18:19 +0000";
layers = (
{
layerId = "B4CEBB5F-E069-4C92-9919-8A70C4320291";
name = Light;
paths = (
{
closed = 1;
nodes = (
"507 -15 OFFCURVE",
"595 74 OFFCURVE",
"595 229 CURVE SMOOTH",
"595 699 LINE",
"567 699 LINE",
"567 219 LINE SMOOTH",
"567 69 OFFCURVE",
"467 9 OFFCURVE",
"335 9 CURVE SMOOTH",
"203 9 OFFCURVE",
"103 69 OFFCURVE",
"103 219 CURVE SMOOTH",
"103 699 LINE",
"75 699 LINE",
"75 229 LINE SMOOTH",
"75 74 OFFCURVE",
"163 -15 OFFCURVE",
"335 -15 CURVE SMOOTH"
);
}
);
width = 670;
}
);
leftKerningGroup = U;
note = U;
rightKerningGroup = U;
unicode = 0055;
},
{
glyphname = Uacute;
lastChange = "2015-11-29 23:18:23 +0000";
layers = (
{
layerId = "B4CEBB5F-E069-4C92-9919-8A70C4320291";
name = Light;
paths = (
{
closed = 1;
nodes = (
"507 -15 OFFCURVE",
"595 74 OFFCURVE",
"595 229 CURVE SMOOTH",
"595 699 LINE",
"567 699 LINE",
"567 219 LINE SMOOTH",
"567 69 OFFCURVE",
"467 9 OFFCURVE",
"335 9 CURVE SMOOTH",
"203 9 OFFCURVE",
"103 69 OFFCURVE",
"103 219 CURVE SMOOTH",
"103 699 LINE",
"75 699 LINE",
"75 229 LINE SMOOTH",
"75 74 OFFCURVE",
"163 -15 OFFCURVE",
"335 -15 CURVE SMOOTH"
);
},
{
closed = 1;
nodes = (
"339 792 LINE",
"416 959 LINE",
"388 959 LINE",
"317 792 LINE"
);
}
);
width = 670;
}
);
leftKerningGroup = U;
note = Uacute;
rightKerningGroup = U;
unicode = 00DA;
},
{
glyphname = Ubreve;
lastChange = "2015-11-29 23:18:24 +0000";
layers = (
{
layerId = "B4CEBB5F-E069-4C92-9919-8A70C4320291";
name = Light;
paths = (
{
closed = 1;
nodes = (
"507 -15 OFFCURVE",
"595 74 OFFCURVE",
"595 229 CURVE SMOOTH",
"595 699 LINE",
"567 699 LINE",
"567 219 LINE SMOOTH",
"567 69 OFFCURVE",
"467 9 OFFCURVE",
"335 9 CURVE SMOOTH",
"203 9 OFFCURVE",
"103 69 OFFCURVE",
"103 219 CURVE SMOOTH",
"103 699 LINE",
"75 699 LINE",
"75 229 LINE SMOOTH",
"75 74 OFFCURVE",
"163 -15 OFFCURVE",
"335 -15 CURVE SMOOTH"
);
},
{
closed = 1;
nodes = (
"405 758 OFFCURVE",
"453 806 OFFCURVE",
"453 866 CURVE",
"429 866 LINE",
"429 818 OFFCURVE",
"394 781 OFFCURVE",
"335 781 CURVE SMOOTH",
"277 781 OFFCURVE",
"241 818 OFFCURVE",
"241 866 CURVE",
"217 866 LINE",
"217 806 OFFCURVE",
"265 758 OFFCURVE",
"335 758 CURVE SMOOTH"
);
}
);
width = 670;
}
);
leftKerningGroup = U;
note = Ubreve;
rightKerningGroup = U;
unicode = 016C;
},
{
glyphname = Ucaron;
lastChange = "2015-11-29 23:18:23 +0000";
layers = (
{
layerId = "B4CEBB5F-E069-4C92-9919-8A70C4320291";
name = Light;
paths = (
{
closed = 1;
nodes = (
"507 -15 OFFCURVE",
"595 74 OFFCURVE",
"595 229 CURVE SMOOTH",
"595 699 LINE",
"567 699 LINE",
"567 219 LINE SMOOTH",
"567 69 OFFCURVE",
"467 9 OFFCURVE",
"335 9 CURVE SMOOTH",
"203 9 OFFCURVE",
"103 69 OFFCURVE",
"103 219 CURVE SMOOTH",
"103 699 LINE",
"75 699 LINE",
"75 229 LINE SMOOTH",
"75 74 OFFCURVE",
"163 -15 OFFCURVE",
"335 -15 CURVE SMOOTH"
);
},
{
closed = 1;
nodes = (
"346 784 LINE",
"474 935 LINE",
"443 935 LINE",
"335 806 LINE",
"227 935 LINE",
"196 935 LINE",
"324 784 LINE"
);
}
);
width = 670;
}
);
leftKerningGroup = U;
note = Ucaron;
rightKerningGroup = U;
unicode = 01D3;
},
{
glyphname = Ucircumflex;
lastChange = "2015-11-29 23:18:22 +0000";
layers = (
{
layerId = "B4CEBB5F-E069-4C92-9919-8A70C4320291";
name = Light;
paths = (
{
closed = 1;
nodes = (
"507 -15 OFFCURVE",
"595 74 OFFCURVE",
"595 229 CURVE SMOOTH",
"595 699 LINE",
"567 699 LINE",
"567 219 LINE SMOOTH",
"567 69 OFFCURVE",
"467 9 OFFCURVE",
"335 9 CURVE SMOOTH",
"203 9 OFFCURVE",
"103 69 OFFCURVE",
"103 219 CURVE SMOOTH",
"103 699 LINE",
"75 699 LINE",
"75 229 LINE SMOOTH",
"75 74 OFFCURVE",
"163 -15 OFFCURVE",
"335 -15 CURVE SMOOTH"
);
},
{
closed = 1;
nodes = (
"227 798 LINE",
"335 927 LINE",
"443 798 LINE",
"474 798 LINE",
"346 949 LINE",
"324 949 LINE",
"196 798 LINE"
);
}
);
width = 670;
}
);
leftKerningGroup = U;
note = Ucircumflex;
rightKerningGroup = U;
unicode = 00DB;
},
{
glyphname = Udieresis;
lastChange = "2015-11-29 23:18:24 +0000";
layers = (
{
layerId = "B4CEBB5F-E069-4C92-9919-8A70C4320291";
name = Light;
paths = (
{
closed = 1;
nodes = (
"507 -15 OFFCURVE",
"595 74 OFFCURVE",
"595 229 CURVE SMOOTH",
"595 699 LINE",
"567 699 LINE",
"567 219 LINE SMOOTH",
"567 69 OFFCURVE",
"467 9 OFFCURVE",
"335 9 CURVE SMOOTH",
"203 9 OFFCURVE",
"103 69 OFFCURVE",
"103 219 CURVE SMOOTH",
"103 699 LINE",
"75 699 LINE",
"75 229 LINE SMOOTH",
"75 74 OFFCURVE",
"163 -15 OFFCURVE",
"335 -15 CURVE SMOOTH"
);
},
{
closed = 1;
nodes = (
"251 802 OFFCURVE",
"264 815 OFFCURVE",
"264 830 CURVE SMOOTH",
"264 845 OFFCURVE",
"251 858 OFFCURVE",
"236 858 CURVE SMOOTH",
"221 858 OFFCURVE",
"208 845 OFFCURVE",
"208 830 CURVE SMOOTH",
"208 815 OFFCURVE",
"221 802 OFFCURVE",
"236 802 CURVE SMOOTH"
);
},
{
closed = 1;
nodes = (
"449 802 OFFCURVE",
"462 815 OFFCURVE",
"462 830 CURVE SMOOTH",
"462 845 OFFCURVE",
"449 858 OFFCURVE",
"434 858 CURVE SMOOTH",
"419 858 OFFCURVE",
"406 845 OFFCURVE",
"406 830 CURVE SMOOTH",
"406 815 OFFCURVE",
"419 802 OFFCURVE",
"434 802 CURVE SMOOTH"
);
}
);
width = 670;
}
);
leftKerningGroup = U;
note = Udieresis;
rightKerningGroup = U;
unicode = 00DC;
},
{
glyphname = Udieresisacute;
lastChange = "2015-11-29 23:18:22 +0000";
layers = (
{
layerId = "B4CEBB5F-E069-4C92-9919-8A70C4320291";
name = Light;
paths = (
{
closed = 1;
nodes = (
"507 -15 OFFCURVE",
"595 74 OFFCURVE",
"595 229 CURVE SMOOTH",
"595 699 LINE",
"567 699 LINE",
"567 219 LINE SMOOTH",
"567 69 OFFCURVE",
"467 9 OFFCURVE",
"335 9 CURVE SMOOTH",
"203 9 OFFCURVE",
"103 69 OFFCURVE",
"103 219 CURVE SMOOTH",
"103 699 LINE",
"75 699 LINE",
"75 229 LINE SMOOTH",
"75 74 OFFCURVE",
"163 -15 OFFCURVE",
"335 -15 CURVE SMOOTH"
);
},
{
closed = 1;
nodes = (
"255 784 OFFCURVE",
"268 797 OFFCURVE",
"268 812 CURVE SMOOTH",
"268 827 OFFCURVE",
"255 840 OFFCURVE",
"240 840 CURVE SMOOTH",
"225 840 OFFCURVE",
"212 827 OFFCURVE",
"212 812 CURVE SMOOTH",
"212 797 OFFCURVE",
"225 784 OFFCURVE",
"240 784 CURVE SMOOTH"
);
},
{
closed = 1;
nodes = (
"453 784 OFFCURVE",
"466 797 OFFCURVE",
"466 812 CURVE SMOOTH",
"466 827 OFFCURVE",
"453 840 OFFCURVE",
"438 840 CURVE SMOOTH",
"423 840 OFFCURVE",
"410 827 OFFCURVE",
"410 812 CURVE SMOOTH",
"410 797 OFFCURVE",
"423 784 OFFCURVE",
"438 784 CURVE SMOOTH"
);
},
{
closed = 1;
nodes = (
"342 831 LINE",
"408 963 LINE",
"380 963 LINE",
"320 831 LINE"
);
}
);
width = 670;
}
);
leftKerningGroup = U;
note = Udieresisacute;
rightKerningGroup = U;
unicode = 01D7;
},
{
glyphname = Udieresiscaron;
lastChange = "2015-11-29 23:18:23 +0000";
layers = (
{
layerId = "B4CEBB5F-E069-4C92-9919-8A70C4320291";
name = Light;
paths = (
{
closed = 1;
nodes = (
"507 -15 OFFCURVE",
"595 74 OFFCURVE",
"595 229 CURVE SMOOTH",
"595 699 LINE",
"567 699 LINE",
"567 219 LINE SMOOTH",
"567 69 OFFCURVE",
"467 9 OFFCURVE",
"335 9 CURVE SMOOTH",
"203 9 OFFCURVE",
"103 69 OFFCURVE",
"103 219 CURVE SMOOTH",
"103 699 LINE",
"75 699 LINE",
"75 229 LINE SMOOTH",
"75 74 OFFCURVE",
"163 -15 OFFCURVE",
"335 -15 CURVE SMOOTH"
);
},
{
closed = 1;
nodes = (
"253 784 OFFCURVE",
"266 797 OFFCURVE",
"266 812 CURVE SMOOTH",
"266 827 OFFCURVE",
"253 840 OFFCURVE",
"238 840 CURVE SMOOTH",
"223 840 OFFCURVE",
"210 827 OFFCURVE",
"210 812 CURVE SMOOTH",
"210 797 OFFCURVE",
"223 784 OFFCURVE",
"238 784 CURVE SMOOTH"
);
},
{
closed = 1;
nodes = (
"348 831 LINE",
"457 963 LINE",
"426 963 LINE",
"337 853 LINE",
"248 963 LINE",
"217 963 LINE",
"326 831 LINE"
);
},
{
closed = 1;
nodes = (
"451 784 OFFCURVE",
"464 797 OFFCURVE",
"464 812 CURVE SMOOTH",
"464 827 OFFCURVE",
"451 840 OFFCURVE",
"436 840 CURVE SMOOTH",
"421 840 OFFCURVE",
"408 827 OFFCURVE",
"408 812 CURVE SMOOTH",
"408 797 OFFCURVE",
"421 784 OFFCURVE",
"436 784 CURVE SMOOTH"
);
}
);
width = 670;
}
);
leftKerningGroup = U;
note = Udieresiscaron;
rightKerningGroup = U;
unicode = 01D9;
},
{
glyphname = Udieresisgrave;
lastChange = "2015-11-29 23:18:22 +0000";
layers = (
{
layerId = "B4CEBB5F-E069-4C92-9919-8A70C4320291";
name = Light;
paths = (
{
closed = 1;
nodes = (
"507 -15 OFFCURVE",
"595 74 OFFCURVE",
"595 229 CURVE SMOOTH",
"595 699 LINE",
"567 699 LINE",
"567 219 LINE SMOOTH",
"567 69 OFFCURVE",
"467 9 OFFCURVE",
"335 9 CURVE SMOOTH",
"203 9 OFFCURVE",
"103 69 OFFCURVE",
"103 219 CURVE SMOOTH",
"103 699 LINE",
"75 699 LINE",
"75 229 LINE SMOOTH",
"75 74 OFFCURVE",
"163 -15 OFFCURVE",
"335 -15 CURVE SMOOTH"
);
},
{
closed = 1;
nodes = (
"250 784 OFFCURVE",
"263 797 OFFCURVE",
"263 812 CURVE SMOOTH",
"263 827 OFFCURVE",
"250 840 OFFCURVE",
"235 840 CURVE SMOOTH",
"220 840 OFFCURVE",
"207 827 OFFCURVE",
"207 812 CURVE SMOOTH",
"207 797 OFFCURVE",
"220 784 OFFCURVE",
"235 784 CURVE SMOOTH"
);
},
{
closed = 1;
nodes = (
"353 831 LINE",
"293 963 LINE",
"265 963 LINE",
"331 831 LINE"
);
},
{
closed = 1;
nodes = (
"448 784 OFFCURVE",
"461 797 OFFCURVE",
"461 812 CURVE SMOOTH",
"461 827 OFFCURVE",
"448 840 OFFCURVE",
"433 840 CURVE SMOOTH",
"418 840 OFFCURVE",
"405 827 OFFCURVE",
"405 812 CURVE SMOOTH",
"405 797 OFFCURVE",
"418 784 OFFCURVE",
"433 784 CURVE SMOOTH"
);
}
);
width = 670;
}
);
leftKerningGroup = U;
note = Udieresisgrave;
rightKerningGroup = U;
unicode = 01DB;
},
{
glyphname = Udieresismacron;
lastChange = "2015-11-29 23:18:23 +0000";
layers = (
{
layerId = "B4CEBB5F-E069-4C92-9919-8A70C4320291";
name = Light;
paths = (
{
closed = 1;
nodes = (
"507 -15 OFFCURVE",
"595 74 OFFCURVE",
"595 229 CURVE SMOOTH",
"595 699 LINE",
"567 699 LINE",
"567 219 LINE SMOOTH",
"567 69 OFFCURVE",
"467 9 OFFCURVE",
"335 9 CURVE SMOOTH",
"203 9 OFFCURVE",
"103 69 OFFCURVE",
"103 219 CURVE SMOOTH",
"103 699 LINE",
"75 699 LINE",
"75 229 LINE SMOOTH",
"75 74 OFFCURVE",
"163 -15 OFFCURVE",
"335 -15 CURVE SMOOTH"
);
},
{
closed = 1;
nodes = (
"251 758 OFFCURVE",
"264 771 OFFCURVE",
"264 786 CURVE SMOOTH",
"264 801 OFFCURVE",
"251 814 OFFCURVE",
"236 814 CURVE SMOOTH",
"221 814 OFFCURVE",
"208 801 OFFCURVE",
"208 786 CURVE SMOOTH",
"208 771 OFFCURVE",
"221 758 OFFCURVE",
"236 758 CURVE SMOOTH"
);
},
{
closed = 1;
nodes = (
"449 758 OFFCURVE",
"462 771 OFFCURVE",
"462 786 CURVE SMOOTH",
"462 801 OFFCURVE",
"449 814 OFFCURVE",
"434 814 CURVE SMOOTH",
"419 814 OFFCURVE",
"406 801 OFFCURVE",
"406 786 CURVE SMOOTH",
"406 771 OFFCURVE",
"419 758 OFFCURVE",
"434 758 CURVE SMOOTH"
);
},
{
closed = 1;
nodes = (
"474 909 LINE",
"474 933 LINE",
"196 933 LINE",
"196 909 LINE"
);
}
);
width = 670;
}
);
leftKerningGroup = U;
note = Udieresismacron;
rightKerningGroup = U;
unicode = 01D5;
},
{
glyphname = Udotbelow;
lastChange = "2015-11-29 23:18:23 +0000";
layers = (
{
layerId = "B4CEBB5F-E069-4C92-9919-8A70C4320291";
name = Light;
paths = (
{
closed = 1;
nodes = (
"507 -15 OFFCURVE",
"595 74 OFFCURVE",
"595 229 CURVE SMOOTH",
"595 699 LINE",
"567 699 LINE",
"567 219 LINE SMOOTH",
"567 69 OFFCURVE",
"467 9 OFFCURVE",
"335 9 CURVE SMOOTH",
"203 9 OFFCURVE",
"103 69 OFFCURVE",
"103 219 CURVE SMOOTH",
"103 699 LINE",
"75 699 LINE",
"75 229 LINE SMOOTH",
"75 74 OFFCURVE",
"163 -15 OFFCURVE",
"335 -15 CURVE SMOOTH"
);
},
{
closed = 1;
nodes = (
"350 -121 OFFCURVE",
"363 -108 OFFCURVE",
"363 -93 CURVE SMOOTH",
"363 -78 OFFCURVE",
"350 -65 OFFCURVE",
"335 -65 CURVE SMOOTH",
"320 -65 OFFCURVE",
"307 -78 OFFCURVE",
"307 -93 CURVE SMOOTH",
"307 -108 OFFCURVE",
"320 -121 OFFCURVE",
"335 -121 CURVE SMOOTH"
);
}
);
width = 670;
}
);
leftKerningGroup = U;
note = Udotbelow;
rightKerningGroup = U;
unicode = 1EE4;
},
{
glyphname = Ugrave;
lastChange = "2015-11-29 23:18:22 +0000";
layers = (
{
layerId = "B4CEBB5F-E069-4C92-9919-8A70C4320291";
name = Light;
paths = (
{
closed = 1;
nodes = (
"507 -15 OFFCURVE",
"595 74 OFFCURVE",
"595 229 CURVE SMOOTH",
"595 699 LINE",
"567 699 LINE",
"567 219 LINE SMOOTH",
"567 69 OFFCURVE",
"467 9 OFFCURVE",
"335 9 CURVE SMOOTH",
"203 9 OFFCURVE",
"103 69 OFFCURVE",
"103 219 CURVE SMOOTH",
"103 699 LINE",
"75 699 LINE",
"75 229 LINE SMOOTH",
"75 74 OFFCURVE",
"163 -15 OFFCURVE",
"335 -15 CURVE SMOOTH"
);
},
{
closed = 1;
nodes = (
"358 792 LINE",
"287 959 LINE",
"259 959 LINE",
"336 792 LINE"
);
}
);
width = 670;
}
);
leftKerningGroup = U;
note = Ugrave;
rightKerningGroup = U;
unicode = 00D9;
},
{
glyphname = Uhookabove;
lastChange = "2015-11-29 23:18:23 +0000";
layers = (
{
layerId = "B4CEBB5F-E069-4C92-9919-8A70C4320291";
name = Light;
paths = (
{
closed = 1;
nodes = (
"507 -15 OFFCURVE",
"595 74 OFFCURVE",
"595 229 CURVE SMOOTH",
"595 699 LINE",
"567 699 LINE",
"567 219 LINE SMOOTH",
"567 69 OFFCURVE",
"467 9 OFFCURVE",
"335 9 CURVE SMOOTH",
"203 9 OFFCURVE",
"103 69 OFFCURVE",
"103 219 CURVE SMOOTH",
"103 699 LINE",
"75 699 LINE",
"75 229 LINE SMOOTH",
"75 74 OFFCURVE",
"163 -15 OFFCURVE",
"335 -15 CURVE SMOOTH"
);
},
{
closed = 1;
nodes = (
"338 744 LINE",
"338 788 LINE",
"403 791 OFFCURVE",
"435 826 OFFCURVE",
"435 875 CURVE SMOOTH",
"435 925 OFFCURVE",
"401 961 OFFCURVE",
"332 961 CURVE SMOOTH",
"312 961 OFFCURVE",
"288 957 OFFCURVE",
"277 953 CURVE",
"277 929 LINE",
"289 934 OFFCURVE",
"314 937 OFFCURVE",
"332 937 CURVE SMOOTH",
"380 937 OFFCURVE",
"409 918 OFFCURVE",
"409 874 CURVE SMOOTH",
"409 830 OFFCURVE",
"387 807 OFFCURVE",
"315 807 CURVE",
"315 744 LINE"
);
}
);
width = 670;
}
);
leftKerningGroup = U;
note = Uhookabove;
rightKerningGroup = U;
unicode = 1EE6;
},
{
glyphname = Uhorn;
lastChange = "2015-11-29 23:22:46 +0000";
layers = (
{
layerId = "B4CEBB5F-E069-4C92-9919-8A70C4320291";
name = Light;
paths = (
{
closed = 1;
nodes = (
"507 -15 OFFCURVE",
"595 74 OFFCURVE",
"595 229 CURVE SMOOTH",
"595 597 LINE",
"665 597 OFFCURVE",
"723 650 OFFCURVE",
"723 710 CURVE SMOOTH",
"723 747 LINE",
"699 747 LINE",
"699 710 LINE SMOOTH",
"699 662 OFFCURVE",
"654 620 OFFCURVE",
"595 620 CURVE",
"595 699 LINE",
"567 699 LINE",
"567 219 LINE SMOOTH",
"567 69 OFFCURVE",
"467 9 OFFCURVE",
"335 9 CURVE SMOOTH",
"203 9 OFFCURVE",
"103 69 OFFCURVE",
"103 219 CURVE SMOOTH",
"103 699 LINE",
"75 699 LINE",
"75 229 LINE SMOOTH",
"75 74 OFFCURVE",
"163 -15 OFFCURVE",
"335 -15 CURVE SMOOTH"
);
}
);
width = 763;
}
);
leftKerningGroup = U;
note = Uhorn;
rightKerningGroup = U;
unicode = 01AF;
},
{
glyphname = Uhornacute;
lastChange = "2015-11-29 23:22:49 +0000";
layers = (
{
layerId = "B4CEBB5F-E069-4C92-9919-8A70C4320291";
name = Light;
paths = (
{
closed = 1;
nodes = (
"507 -15 OFFCURVE",
"595 74 OFFCURVE",
"595 229 CURVE SMOOTH",
"595 597 LINE",
"665 597 OFFCURVE",
"723 650 OFFCURVE",
"723 710 CURVE SMOOTH",
"723 747 LINE",
"699 747 LINE",
"699 710 LINE SMOOTH",
"699 662 OFFCURVE",
"654 620 OFFCURVE",
"595 620 CURVE",
"595 699 LINE",
"567 699 LINE",
"567 219 LINE SMOOTH",
"567 69 OFFCURVE",
"467 9 OFFCURVE",
"335 9 CURVE SMOOTH",
"203 9 OFFCURVE",
"103 69 OFFCURVE",
"103 219 CURVE SMOOTH",
"103 699 LINE",
"75 699 LINE",
"75 229 LINE SMOOTH",
"75 74 OFFCURVE",
"163 -15 OFFCURVE",
"335 -15 CURVE SMOOTH"
);
},
{
closed = 1;
nodes = (
"336 784 LINE",
"413 951 LINE",
"385 951 LINE",
"314 784 LINE"
);
}
);
width = 763;
}
);
leftKerningGroup = U;
note = Uhornacute;
rightKerningGroup = U;
unicode = 1EE8;
},
{
glyphname = Uhorndotbelow;
lastChange = "2015-11-29 23:18:22 +0000";
layers = (
{
layerId = "B4CEBB5F-E069-4C92-9919-8A70C4320291";
name = Light;
paths = (
{
closed = 1;
nodes = (
"507 -15 OFFCURVE",
"595 74 OFFCURVE",
"595 229 CURVE SMOOTH",
"595 597 LINE",
"665 597 OFFCURVE",
"723 650 OFFCURVE",
"723 710 CURVE SMOOTH",
"723 747 LINE",
"699 747 LINE",
"699 710 LINE SMOOTH",
"699 662 OFFCURVE",
"654 620 OFFCURVE",
"595 620 CURVE",
"595 699 LINE",
"567 699 LINE",
"567 219 LINE SMOOTH",
"567 69 OFFCURVE",
"467 9 OFFCURVE",
"335 9 CURVE SMOOTH",
"203 9 OFFCURVE",
"103 69 OFFCURVE",
"103 219 CURVE SMOOTH",
"103 699 LINE",
"75 699 LINE",
"75 229 LINE SMOOTH",
"75 74 OFFCURVE",
"163 -15 OFFCURVE",
"335 -15 CURVE SMOOTH"
);
},
{
closed = 1;
nodes = (
"354 -121 OFFCURVE",
"367 -108 OFFCURVE",
"367 -93 CURVE SMOOTH",
"367 -78 OFFCURVE",
"354 -65 OFFCURVE",
"339 -65 CURVE SMOOTH",
"324 -65 OFFCURVE",
"311 -78 OFFCURVE",
"311 -93 CURVE SMOOTH",
"311 -108 OFFCURVE",
"324 -121 OFFCURVE",
"339 -121 CURVE SMOOTH"
);
}
);
width = 763;
}
);
leftKerningGroup = U;
note = Uhorndotbelow;
rightKerningGroup = U;
unicode = 1EF0;
},
{
glyphname = Uhorngrave;
lastChange = "2015-11-29 23:18:23 +0000";
layers = (
{
layerId = "B4CEBB5F-E069-4C92-9919-8A70C4320291";
name = Light;
paths = (
{
closed = 1;
nodes = (
"507 -15 OFFCURVE",
"595 74 OFFCURVE",
"595 229 CURVE SMOOTH",
"595 597 LINE",
"665 597 OFFCURVE",
"723 650 OFFCURVE",
"723 710 CURVE SMOOTH",
"723 747 LINE",
"699 747 LINE",
"699 710 LINE SMOOTH",
"699 662 OFFCURVE",
"654 620 OFFCURVE",
"595 620 CURVE",
"595 699 LINE",
"567 699 LINE",
"567 219 LINE SMOOTH",
"567 69 OFFCURVE",
"467 9 OFFCURVE",
"335 9 CURVE SMOOTH",
"203 9 OFFCURVE",
"103 69 OFFCURVE",
"103 219 CURVE SMOOTH",
"103 699 LINE",
"75 699 LINE",
"75 229 LINE SMOOTH",
"75 74 OFFCURVE",
"163 -15 OFFCURVE",
"335 -15 CURVE SMOOTH"
);
},
{
closed = 1;
nodes = (
"374 784 LINE",
"303 951 LINE",
"275 951 LINE",
"352 784 LINE"
);
}
);
width = 763;
}
);
leftKerningGroup = U;
note = Uhorngrave;
rightKerningGroup = U;
unicode = 1EEA;
},
{
glyphname = Uhornhookabove;
lastChange = "2015-11-29 23:18:23 +0000";
layers = (
{
layerId = "B4CEBB5F-E069-4C92-9919-8A70C4320291";
name = Light;
paths = (
{
closed = 1;
nodes = (
"507 -15 OFFCURVE",
"595 74 OFFCURVE",
"595 229 CURVE SMOOTH",
"595 597 LINE",
"665 597 OFFCURVE",
"723 650 OFFCURVE",
"723 710 CURVE SMOOTH",
"723 747 LINE",
"699 747 LINE",
"699 710 LINE SMOOTH",
"699 662 OFFCURVE",
"654 620 OFFCURVE",
"595 620 CURVE",
"595 699 LINE",
"567 699 LINE",
"567 219 LINE SMOOTH",
"567 69 OFFCURVE",
"467 9 OFFCURVE",
"335 9 CURVE SMOOTH",
"203 9 OFFCURVE",
"103 69 OFFCURVE",
"103 219 CURVE SMOOTH",
"103 699 LINE",
"75 699 LINE",
"75 229 LINE SMOOTH",
"75 74 OFFCURVE",
"163 -15 OFFCURVE",
"335 -15 CURVE SMOOTH"
);
},
{
closed = 1;
nodes = (
"346 784 LINE",
"346 828 LINE",
"411 831 OFFCURVE",
"443 866 OFFCURVE",
"443 915 CURVE SMOOTH",
"443 965 OFFCURVE",
"409 1001 OFFCURVE",
"340 1001 CURVE SMOOTH",
"320 1001 OFFCURVE",
"296 997 OFFCURVE",
"285 993 CURVE",
"285 969 LINE",
"297 974 OFFCURVE",
"322 977 OFFCURVE",
"340 977 CURVE SMOOTH",
"388 977 OFFCURVE",
"417 958 OFFCURVE",
"417 914 CURVE SMOOTH",
"417 870 OFFCURVE",
"395 847 OFFCURVE",
"323 847 CURVE",
"323 784 LINE"
);
}
);
width = 763;
}
);
leftKerningGroup = U;
note = Uhornhookabove;
rightKerningGroup = U;
unicode = 1EEC;
},
{
glyphname = Uhorntilde;
lastChange = "2015-11-29 23:18:23 +0000";
layers = (
{
layerId = "B4CEBB5F-E069-4C92-9919-8A70C4320291";
name = Light;
paths = (
{
closed = 1;
nodes = (
"507 -15 OFFCURVE",
"595 74 OFFCURVE",
"595 229 CURVE SMOOTH",
"595 597 LINE",
"665 597 OFFCURVE",
"723 650 OFFCURVE",
"723 710 CURVE SMOOTH",
"723 747 LINE",
"699 747 LINE",
"699 710 LINE SMOOTH",
"699 662 OFFCURVE",
"654 620 OFFCURVE",
"595 620 CURVE",
"595 699 LINE",
"567 699 LINE",
"567 219 LINE SMOOTH",
"567 69 OFFCURVE",
"467 9 OFFCURVE",
"335 9 CURVE SMOOTH",
"203 9 OFFCURVE",
"103 69 OFFCURVE",
"103 219 CURVE SMOOTH",
"103 699 LINE",
"75 699 LINE",
"75 229 LINE SMOOTH",
"75 74 OFFCURVE",
"163 -15 OFFCURVE",
"335 -15 CURVE SMOOTH"
);
},
{
closed = 1;
nodes = (
"191 827 OFFCURVE",
"220 838 OFFCURVE",
"253 838 CURVE SMOOTH",
"317 838 OFFCURVE",
"354 788 OFFCURVE",
"427 788 CURVE SMOOTH",
"464 788 OFFCURVE",
"497 800 OFFCURVE",
"517 833 CURVE",
"517 866 LINE",
"491 823 OFFCURVE",
"460 812 OFFCURVE",
"427 812 CURVE SMOOTH",
"362 812 OFFCURVE",
"321 862 OFFCURVE",
"253 862 CURVE SMOOTH",
"216 862 OFFCURVE",
"183 850 OFFCURVE",
"163 817 CURVE",
"163 784 LINE"
);
}
);
width = 763;
}
);
leftKerningGroup = U;
note = Uhorntilde;
rightKerningGroup = U;
unicode = 1EEE;
},
{
glyphname = Uhungarumlaut;
lastChange = "2015-11-29 23:18:22 +0000";
layers = (
{
layerId = "B4CEBB5F-E069-4C92-9919-8A70C4320291";
name = Light;
paths = (
{
closed = 1;
nodes = (
"507 -15 OFFCURVE",
"595 74 OFFCURVE",
"595 229 CURVE SMOOTH",
"595 699 LINE",
"567 699 LINE",
"567 219 LINE SMOOTH",
"567 69 OFFCURVE",
"467 9 OFFCURVE",
"335 9 CURVE SMOOTH",
"203 9 OFFCURVE",
"103 69 OFFCURVE",
"103 219 CURVE SMOOTH",
"103 699 LINE",
"75 699 LINE",
"75 229 LINE SMOOTH",
"75 74 OFFCURVE",
"163 -15 OFFCURVE",
"335 -15 CURVE SMOOTH"
);
},
{
closed = 1;
nodes = (
"246 780 LINE",
"323 947 LINE",
"295 947 LINE",
"224 780 LINE"
);
},
{
closed = 1;
nodes = (
"413 780 LINE",
"490 947 LINE",
"462 947 LINE",
"391 780 LINE"
);
}
);
width = 670;
}
);
leftKerningGroup = U;
note = Uhungarumlaut;
rightKerningGroup = U;
unicode = 0170;
},
{
glyphname = Umacron;
lastChange = "2015-11-29 23:18:22 +0000";
layers = (
{
layerId = "B4CEBB5F-E069-4C92-9919-8A70C4320291";
name = Light;
paths = (
{
closed = 1;
nodes = (
"507 -15 OFFCURVE",
"595 74 OFFCURVE",
"595 229 CURVE SMOOTH",
"595 699 LINE",
"567 699 LINE",
"567 219 LINE SMOOTH",
"567 69 OFFCURVE",
"467 9 OFFCURVE",
"335 9 CURVE SMOOTH",
"203 9 OFFCURVE",
"103 69 OFFCURVE",
"103 219 CURVE SMOOTH",
"103 699 LINE",
"75 699 LINE",
"75 229 LINE SMOOTH",
"75 74 OFFCURVE",
"163 -15 OFFCURVE",
"335 -15 CURVE SMOOTH"
);
},
{
closed = 1;
nodes = (
"474 813 LINE",
"474 837 LINE",
"196 837 LINE",
"196 813 LINE"
);
}
);
width = 670;
}
);
leftKerningGroup = U;
note = Umacron;
rightKerningGroup = U;
unicode = 016A;
},
{
glyphname = Uogonek;
lastChange = "2015-11-29 23:18:22 +0000";
layers = (
{
layerId = "B4CEBB5F-E069-4C92-9919-8A70C4320291";
name = Light;
paths = (
{
closed = 1;
nodes = (
"507 -15 OFFCURVE",
"595 74 OFFCURVE",
"595 229 CURVE SMOOTH",
"595 699 LINE",
"567 699 LINE",
"567 219 LINE SMOOTH",
"567 69 OFFCURVE",
"467 9 OFFCURVE",
"335 9 CURVE SMOOTH",
"203 9 OFFCURVE",
"103 69 OFFCURVE",
"103 219 CURVE SMOOTH",
"103 699 LINE",
"75 699 LINE",
"75 229 LINE SMOOTH",
"75 74 OFFCURVE",
"163 -15 OFFCURVE",
"335 -15 CURVE SMOOTH"
);
},
{
closed = 1;
nodes = (
"390 -206 OFFCURVE",
"405 -203 OFFCURVE",
"416 -198 CURVE",
"416 -174 LINE",
"404 -179 OFFCURVE",
"388 -182 OFFCURVE",
"370 -182 CURVE SMOOTH",
"339 -182 OFFCURVE",
"314 -164 OFFCURVE",
"314 -125 CURVE SMOOTH",
"314 -76 OFFCURVE",
"346 -36 OFFCURVE",
"393 0 CURVE",
"365 0 LINE",
"323 -27 OFFCURVE",
"288 -73 OFFCURVE",
"288 -125 CURVE SMOOTH",
"288 -179 OFFCURVE",
"327 -206 OFFCURVE",
"370 -206 CURVE SMOOTH"
);
}
);
width = 670;
}
);
leftKerningGroup = U;
note = Uogonek;
rightKerningGroup = U;
unicode = 0172;
},
{
glyphname = Uring;
lastChange = "2015-11-29 23:18:22 +0000";
layers = (
{
layerId = "B4CEBB5F-E069-4C92-9919-8A70C4320291";
name = Light;
paths = (
{
closed = 1;
nodes = (
"507 -15 OFFCURVE",
"595 74 OFFCURVE",
"595 229 CURVE SMOOTH",
"595 699 LINE",
"567 699 LINE",
"567 219 LINE SMOOTH",
"567 69 OFFCURVE",
"467 9 OFFCURVE",
"335 9 CURVE SMOOTH",
"203 9 OFFCURVE",
"103 69 OFFCURVE",
"103 219 CURVE SMOOTH",
"103 699 LINE",
"75 699 LINE",
"75 229 LINE SMOOTH",
"75 74 OFFCURVE",
"163 -15 OFFCURVE",
"335 -15 CURVE SMOOTH"
);
},
{
closed = 1;
nodes = (
"385 760 OFFCURVE",
"426 801 OFFCURVE",
"426 851 CURVE SMOOTH",
"426 901 OFFCURVE",
"385 942 OFFCURVE",
"335 942 CURVE SMOOTH",
"285 942 OFFCURVE",
"244 901 OFFCURVE",
"244 851 CURVE SMOOTH",
"244 801 OFFCURVE",
"285 760 OFFCURVE",
"335 760 CURVE SMOOTH"
);
},
{
closed = 1;
nodes = (
"297 781 OFFCURVE",
"266 813 OFFCURVE",
"266 851 CURVE SMOOTH",
"266 889 OFFCURVE",
"296 921 OFFCURVE",
"335 921 CURVE SMOOTH",
"374 921 OFFCURVE",
"404 889 OFFCURVE",
"404 851 CURVE SMOOTH",
"404 813 OFFCURVE",
"374 781 OFFCURVE",
"335 781 CURVE SMOOTH"
);
}
);
width = 670;
}
);
leftKerningGroup = U;
note = Uring;
rightKerningGroup = U;
unicode = 016E;
},
{
glyphname = Utilde;
lastChange = "2015-11-29 23:18:22 +0000";
layers = (
{
layerId = "B4CEBB5F-E069-4C92-9919-8A70C4320291";
name = Light;
paths = (
{
closed = 1;
nodes = (
"507 -15 OFFCURVE",
"595 74 OFFCURVE",
"595 229 CURVE SMOOTH",
"595 699 LINE",
"567 699 LINE",
"567 219 LINE SMOOTH",
"567 69 OFFCURVE",
"467 9 OFFCURVE",
"335 9 CURVE SMOOTH",
"203 9 OFFCURVE",
"103 69 OFFCURVE",
"103 219 CURVE SMOOTH",
"103 699 LINE",
"75 699 LINE",
"75 229 LINE SMOOTH",
"75 74 OFFCURVE",
"163 -15 OFFCURVE",
"335 -15 CURVE SMOOTH"
);
},
{
closed = 1;
nodes = (
"222 827 OFFCURVE",
"251 838 OFFCURVE",
"284 838 CURVE SMOOTH",
"348 838 OFFCURVE",
"385 788 OFFCURVE",
"458 788 CURVE SMOOTH",
"495 788 OFFCURVE",
"528 800 OFFCURVE",
"548 833 CURVE",
"548 866 LINE",
"522 823 OFFCURVE",
"491 812 OFFCURVE",
"458 812 CURVE SMOOTH",
"393 812 OFFCURVE",
"352 862 OFFCURVE",
"284 862 CURVE SMOOTH",
"247 862 OFFCURVE",
"214 850 OFFCURVE",
"194 817 CURVE",
"194 784 LINE"
);
}
);
width = 670;
}
);
leftKerningGroup = U;
note = Utilde;
rightKerningGroup = U;
unicode = 0168;
},
{
glyphname = V;
lastChange = "2015-11-29 23:18:19 +0000";
layers = (
{
layerId = "B4CEBB5F-E069-4C92-9919-8A70C4320291";
name = Light;
paths = (
{
closed = 1;
nodes = (
"361 0 LINE",
"640 699 LINE",
"612 699 LINE",
"350 42 LINE",
"88 699 LINE",
"60 699 LINE",
"339 0 LINE"
);
}
);
width = 700;
}
);
note = V;
unicode = 0056;
},
{
glyphname = W;
lastChange = "2015-11-29 23:18:19 +0000";
layers = (
{
layerId = "B4CEBB5F-E069-4C92-9919-8A70C4320291";
name = Light;
paths = (
{
closed = 1;
nodes = (
"301 0 LINE",
"506 665 LINE",
"712 0 LINE",
"734 0 LINE",
"953 699 LINE",
"925 699 LINE",
"723 47 LINE",
"521 699 LINE",
"492 699 LINE",
"290 47 LINE",
"88 699 LINE",
"60 699 LINE",
"279 0 LINE"
);
}
);
width = 1013;
}
);
leftKerningGroup = W;
note = W;
rightKerningGroup = W;
unicode = 0057;
},
{
glyphname = Wacute;
lastChange = "2015-11-29 23:18:22 +0000";
layers = (
{
layerId = "B4CEBB5F-E069-4C92-9919-8A70C4320291";
name = Light;
paths = (
{
closed = 1;
nodes = (
"301 0 LINE",
"506 665 LINE",
"712 0 LINE",
"734 0 LINE",
"953 699 LINE",
"925 699 LINE",
"723 47 LINE",
"521 699 LINE",
"492 699 LINE",
"290 47 LINE",
"88 699 LINE",
"60 699 LINE",
"279 0 LINE"
);
},
{
closed = 1;
nodes = (
"514 783 LINE",
"591 950 LINE",
"563 950 LINE",
"492 783 LINE"
);
}
);
width = 1013;
}
);
leftKerningGroup = W;
note = Wacute;
rightKerningGroup = W;
unicode = 1E82;
},
{
glyphname = Wcircumflex;
lastChange = "2015-11-29 23:18:24 +0000";
layers = (
{
layerId = "B4CEBB5F-E069-4C92-9919-8A70C4320291";
name = Light;
paths = (
{
closed = 1;
nodes = (
"301 0 LINE",
"506 665 LINE",
"712 0 LINE",
"734 0 LINE",
"953 699 LINE",
"925 699 LINE",
"723 47 LINE",
"521 699 LINE",
"492 699 LINE",
"290 47 LINE",
"88 699 LINE",
"60 699 LINE",
"279 0 LINE"
);
},
{
closed = 1;
nodes = (
"398 784 LINE",
"506 913 LINE",
"614 784 LINE",
"645 784 LINE",
"517 935 LINE",
"495 935 LINE",
"367 784 LINE"
);
}
);
width = 1013;
}
);
leftKerningGroup = W;
note = Wcircumflex;
rightKerningGroup = W;
unicode = 0174;
},
{
glyphname = Wdieresis;
lastChange = "2015-11-29 23:18:23 +0000";
layers = (
{
layerId = "B4CEBB5F-E069-4C92-9919-8A70C4320291";
name = Light;
paths = (
{
closed = 1;
nodes = (
"301 0 LINE",
"506 665 LINE",
"712 0 LINE",
"734 0 LINE",
"953 699 LINE",
"925 699 LINE",
"723 47 LINE",
"521 699 LINE",
"492 699 LINE",
"290 47 LINE",
"88 699 LINE",
"60 699 LINE",
"279 0 LINE"
);
},
{
closed = 1;
nodes = (
"422 790 OFFCURVE",
"435 803 OFFCURVE",
"435 818 CURVE SMOOTH",
"435 833 OFFCURVE",
"422 846 OFFCURVE",
"407 846 CURVE SMOOTH",
"392 846 OFFCURVE",
"379 833 OFFCURVE",
"379 818 CURVE SMOOTH",
"379 803 OFFCURVE",
"392 790 OFFCURVE",
"407 790 CURVE SMOOTH"
);
},
{
closed = 1;
nodes = (
"620 790 OFFCURVE",
"633 803 OFFCURVE",
"633 818 CURVE SMOOTH",
"633 833 OFFCURVE",
"620 846 OFFCURVE",
"605 846 CURVE SMOOTH",
"590 846 OFFCURVE",
"577 833 OFFCURVE",
"577 818 CURVE SMOOTH",
"577 803 OFFCURVE",
"590 790 OFFCURVE",
"605 790 CURVE SMOOTH"
);
}
);
width = 1013;
}
);
leftKerningGroup = W;
note = Wdieresis;
rightKerningGroup = W;
unicode = 1E84;
},
{
glyphname = Wgrave;
lastChange = "2015-11-29 23:18:24 +0000";
layers = (
{
layerId = "B4CEBB5F-E069-4C92-9919-8A70C4320291";
name = Light;
paths = (
{
closed = 1;
nodes = (
"301 0 LINE",
"506 665 LINE",
"712 0 LINE",
"734 0 LINE",
"953 699 LINE",
"925 699 LINE",
"723 47 LINE",
"521 699 LINE",
"492 699 LINE",
"290 47 LINE",
"88 699 LINE",
"60 699 LINE",
"279 0 LINE"
);
},
{
closed = 1;
nodes = (
"514 783 LINE",
"443 950 LINE",
"415 950 LINE",
"492 783 LINE"
);
}
);
width = 1013;
}
);
leftKerningGroup = W;
note = Wgrave;
rightKerningGroup = W;
unicode = 1E80;
},
{
glyphname = X;
lastChange = "2015-11-29 23:18:19 +0000";
layers = (
{
layerId = "B4CEBB5F-E069-4C92-9919-8A70C4320291";
name = Light;
paths = (
{
closed = 1;
nodes = (
"91 0 LINE",
"346 341 LINE",
"601 0 LINE",
"632 0 LINE",
"361 361 LINE",
"614 699 LINE",
"583 699 LINE",
"346 382 LINE",
"109 699 LINE",
"78 699 LINE",
"330 361 LINE",
"60 0 LINE"
);
}
);
width = 692;
}
);
note = X;
unicode = 0058;
},
{
glyphname = Y;
lastChange = "2015-11-29 23:18:19 +0000";
layers = (
{
layerId = "B4CEBB5F-E069-4C92-9919-8A70C4320291";
name = Light;
paths = (
{
closed = 1;
nodes = (
"343 0 LINE",
"343 265 LINE",
"598 699 LINE",
"570 699 LINE",
"329 289 LINE",
"88 699 LINE",
"60 699 LINE",
"315 265 LINE",
"315 0 LINE"
);
}
);
width = 658;
}
);
leftKerningGroup = Y;
note = Y;
rightKerningGroup = Y;
unicode = 0059;
},
{
glyphname = Yacute;
lastChange = "2015-11-29 23:18:23 +0000";
layers = (
{
layerId = "B4CEBB5F-E069-4C92-9919-8A70C4320291";
name = Light;
paths = (
{
closed = 1;
nodes = (
"343 0 LINE",
"343 265 LINE",
"598 699 LINE",
"570 699 LINE",
"329 289 LINE",
"88 699 LINE",
"60 699 LINE",
"315 265 LINE",
"315 0 LINE"
);
},
{
closed = 1;
nodes = (
"332 792 LINE",
"409 959 LINE",
"381 959 LINE",
"310 792 LINE"
);
}
);
width = 658;
}
);
leftKerningGroup = Y;
note = Yacute;
rightKerningGroup = Y;
unicode = 00DD;
},
{
glyphname = Ycircumflex;
lastChange = "2015-11-29 23:18:23 +0000";
layers = (
{
layerId = "B4CEBB5F-E069-4C92-9919-8A70C4320291";
name = Light;
paths = (
{
closed = 1;
nodes = (
"343 0 LINE",
"343 265 LINE",
"598 699 LINE",
"570 699 LINE",
"329 289 LINE",
"88 699 LINE",
"60 699 LINE",
"315 265 LINE",
"315 0 LINE"
);
},
{
closed = 1;
nodes = (
"221 784 LINE",
"329 913 LINE",
"437 784 LINE",
"468 784 LINE",
"340 935 LINE",
"318 935 LINE",
"190 784 LINE"
);
}
);
width = 658;
}
);
leftKerningGroup = Y;
note = Ycircumflex;
rightKerningGroup = Y;
unicode = 0176;
},
{
glyphname = Ydieresis;
lastChange = "2015-11-29 23:18:23 +0000";
layers = (
{
layerId = "B4CEBB5F-E069-4C92-9919-8A70C4320291";
name = Light;
paths = (
{
closed = 1;
nodes = (
"343 0 LINE",
"343 265 LINE",
"598 699 LINE",
"570 699 LINE",
"329 289 LINE",
"88 699 LINE",
"60 699 LINE",
"315 265 LINE",
"315 0 LINE"
);
},
{
closed = 1;
nodes = (
"245 802 OFFCURVE",
"258 815 OFFCURVE",
"258 830 CURVE SMOOTH",
"258 845 OFFCURVE",
"245 858 OFFCURVE",
"230 858 CURVE SMOOTH",
"215 858 OFFCURVE",
"202 845 OFFCURVE",
"202 830 CURVE SMOOTH",
"202 815 OFFCURVE",
"215 802 OFFCURVE",
"230 802 CURVE SMOOTH"
);
},
{
closed = 1;
nodes = (
"443 802 OFFCURVE",
"456 815 OFFCURVE",
"456 830 CURVE SMOOTH",
"456 845 OFFCURVE",
"443 858 OFFCURVE",
"428 858 CURVE SMOOTH",
"413 858 OFFCURVE",
"400 845 OFFCURVE",
"400 830 CURVE SMOOTH",
"400 815 OFFCURVE",
"413 802 OFFCURVE",
"428 802 CURVE SMOOTH"
);
}
);
width = 658;
}
);
leftKerningGroup = Y;
note = Ydieresis;
rightKerningGroup = Y;
unicode = 0178;
},
{
glyphname = Ydotaccent;
lastChange = "2015-11-29 23:18:22 +0000";
layers = (
{
layerId = "B4CEBB5F-E069-4C92-9919-8A70C4320291";
name = Light;
paths = (
{
closed = 1;
nodes = (
"343 0 LINE",
"343 265 LINE",
"598 699 LINE",
"570 699 LINE",
"329 289 LINE",
"88 699 LINE",
"60 699 LINE",
"315 265 LINE",
"315 0 LINE"
);
},
{
closed = 1;
nodes = (
"344 790 OFFCURVE",
"357 803 OFFCURVE",
"357 818 CURVE SMOOTH",
"357 833 OFFCURVE",
"344 846 OFFCURVE",
"329 846 CURVE SMOOTH",
"314 846 OFFCURVE",
"301 833 OFFCURVE",
"301 818 CURVE SMOOTH",
"301 803 OFFCURVE",
"314 790 OFFCURVE",
"329 790 CURVE SMOOTH"
);
}
);
width = 658;
}
);
leftKerningGroup = Y;
note = Ydotaccent;
rightKerningGroup = Y;
unicode = 1E8E;
},
{
glyphname = Ydotbelow;
lastChange = "2015-11-29 23:18:23 +0000";
layers = (
{
layerId = "B4CEBB5F-E069-4C92-9919-8A70C4320291";
name = Light;
paths = (
{
closed = 1;
nodes = (
"343 0 LINE",
"343 265 LINE",
"598 699 LINE",
"570 699 LINE",
"329 289 LINE",
"88 699 LINE",
"60 699 LINE",
"315 265 LINE",
"315 0 LINE"
);
},
{
closed = 1;
nodes = (
"344 -121 OFFCURVE",
"357 -108 OFFCURVE",
"357 -93 CURVE SMOOTH",
"357 -78 OFFCURVE",
"344 -65 OFFCURVE",
"329 -65 CURVE SMOOTH",
"314 -65 OFFCURVE",
"301 -78 OFFCURVE",
"301 -93 CURVE SMOOTH",
"301 -108 OFFCURVE",
"314 -121 OFFCURVE",
"329 -121 CURVE SMOOTH"
);
}
);
width = 658;
}
);
leftKerningGroup = Y;
note = Ydotbelow;
rightKerningGroup = Y;
unicode = 1EF4;
},
{
glyphname = Ygrave;
lastChange = "2015-11-29 23:18:23 +0000";
layers = (
{
layerId = "B4CEBB5F-E069-4C92-9919-8A70C4320291";
name = Light;
paths = (
{
closed = 1;
nodes = (
"343 0 LINE",
"343 265 LINE",
"598 699 LINE",
"570 699 LINE",
"329 289 LINE",
"88 699 LINE",
"60 699 LINE",
"315 265 LINE",
"315 0 LINE"
);
},
{
closed = 1;
nodes = (
"349 784 LINE",
"278 951 LINE",
"250 951 LINE",
"327 784 LINE"
);
}
);
width = 658;
}
);
leftKerningGroup = Y;
note = Ygrave;
rightKerningGroup = Y;
unicode = 1EF2;
},
{
glyphname = Yhookabove;
lastChange = "2015-11-29 23:18:23 +0000";
layers = (
{
layerId = "B4CEBB5F-E069-4C92-9919-8A70C4320291";
name = Light;
paths = (
{
closed = 1;
nodes = (
"343 0 LINE",
"343 265 LINE",
"598 699 LINE",
"570 699 LINE",
"329 289 LINE",
"88 699 LINE",
"60 699 LINE",
"315 265 LINE",
"315 0 LINE"
);
},
{
closed = 1;
nodes = (
"328 784 LINE",
"328 828 LINE",
"393 831 OFFCURVE",
"425 866 OFFCURVE",
"425 915 CURVE SMOOTH",
"425 965 OFFCURVE",
"391 1001 OFFCURVE",
"322 1001 CURVE SMOOTH",
"302 1001 OFFCURVE",
"278 997 OFFCURVE",
"267 993 CURVE",
"267 969 LINE",
"279 974 OFFCURVE",
"304 977 OFFCURVE",
"322 977 CURVE SMOOTH",
"370 977 OFFCURVE",
"399 958 OFFCURVE",
"399 914 CURVE SMOOTH",
"399 870 OFFCURVE",
"377 847 OFFCURVE",
"305 847 CURVE",
"305 784 LINE"
);
}
);
width = 658;
}
);
leftKerningGroup = Y;
note = Yhookabove;
rightKerningGroup = Y;
unicode = 1EF6;
},
{
glyphname = Ytilde;
lastChange = "2015-11-29 23:18:23 +0000";
layers = (
{
layerId = "B4CEBB5F-E069-4C92-9919-8A70C4320291";
name = Light;
paths = (
{
closed = 1;
nodes = (
"343 0 LINE",
"343 265 LINE",
"598 699 LINE",
"570 699 LINE",
"329 289 LINE",
"88 699 LINE",
"60 699 LINE",
"315 265 LINE",
"315 0 LINE"
);
},
{
closed = 1;
nodes = (
"180 827 OFFCURVE",
"209 838 OFFCURVE",
"242 838 CURVE SMOOTH",
"306 838 OFFCURVE",
"343 788 OFFCURVE",
"416 788 CURVE SMOOTH",
"453 788 OFFCURVE",
"486 800 OFFCURVE",
"506 833 CURVE",
"506 866 LINE",
"480 823 OFFCURVE",
"449 812 OFFCURVE",
"416 812 CURVE SMOOTH",
"351 812 OFFCURVE",
"310 862 OFFCURVE",
"242 862 CURVE SMOOTH",
"205 862 OFFCURVE",
"172 850 OFFCURVE",
"152 817 CURVE",
"152 784 LINE"
);
}
);
width = 658;
}
);
leftKerningGroup = Y;
note = Ytilde;
rightKerningGroup = Y;
unicode = 1EF8;
},
{
glyphname = Z;
lastChange = "2015-11-29 23:18:19 +0000";
layers = (
{
layerId = "B4CEBB5F-E069-4C92-9919-8A70C4320291";
name = Light;
paths = (
{
closed = 1;
nodes = (
"555 0 LINE",
"555 24 LINE",
"92 24 LINE",
"544 673 LINE",
"544 699 LINE",
"72 699 LINE",
"72 675 LINE",
"512 675 LINE",
"60 26 LINE",
"60 0 LINE"
);
}
);
width = 615;
}
);
leftKerningGroup = Z;
note = Z;
rightKerningGroup = Z;
unicode = 005A;
},
{
glyphname = Zacute;
lastChange = "2015-11-29 23:18:23 +0000";
layers = (
{
layerId = "B4CEBB5F-E069-4C92-9919-8A70C4320291";
name = Light;
paths = (
{
closed = 1;
nodes = (
"555 0 LINE",
"555 24 LINE",
"92 24 LINE",
"544 673 LINE",
"544 699 LINE",
"72 699 LINE",
"72 675 LINE",
"512 675 LINE",
"60 26 LINE",
"60 0 LINE"
);
},
{
closed = 1;
nodes = (
"292 784 LINE",
"369 951 LINE",
"341 951 LINE",
"270 784 LINE"
);
}
);
width = 615;
}
);
leftKerningGroup = Z;
note = Zacute;
rightKerningGroup = Z;
unicode = 0179;
},
{
glyphname = Zcaron;
lastChange = "2015-11-29 23:18:24 +0000";
layers = (
{
layerId = "B4CEBB5F-E069-4C92-9919-8A70C4320291";
name = Light;
paths = (
{
closed = 1;
nodes = (
"555 0 LINE",
"555 24 LINE",
"92 24 LINE",
"544 673 LINE",
"544 699 LINE",
"72 699 LINE",
"72 675 LINE",
"512 675 LINE",
"60 26 LINE",
"60 0 LINE"
);
},
{
closed = 1;
nodes = (
"326 784 LINE",
"454 935 LINE",
"423 935 LINE",
"315 806 LINE",
"207 935 LINE",
"176 935 LINE",
"304 784 LINE"
);
}
);
width = 615;
}
);
leftKerningGroup = Z;
note = Zcaron;
rightKerningGroup = Z;
unicode = 017D;
},
{
glyphname = Zdotaccent;
lastChange = "2015-11-29 23:18:23 +0000";
layers = (
{
layerId = "B4CEBB5F-E069-4C92-9919-8A70C4320291";
name = Light;
paths = (
{
closed = 1;
nodes = (
"555 0 LINE",
"555 24 LINE",
"92 24 LINE",
"544 673 LINE",
"544 699 LINE",
"72 699 LINE",
"72 675 LINE",
"512 675 LINE",
"60 26 LINE",
"60 0 LINE"
);
},
{
closed = 1;
nodes = (
"315 790 OFFCURVE",
"328 803 OFFCURVE",
"328 818 CURVE SMOOTH",
"328 833 OFFCURVE",
"315 846 OFFCURVE",
"300 846 CURVE SMOOTH",
"285 846 OFFCURVE",
"272 833 OFFCURVE",
"272 818 CURVE SMOOTH",
"272 803 OFFCURVE",
"285 790 OFFCURVE",
"300 790 CURVE SMOOTH"
);
}
);
width = 615;
}
);
leftKerningGroup = Z;
note = Zdotaccent;
rightKerningGroup = Z;
unicode = 017B;
},
{
glyphname = Zdotbelow;
lastChange = "2015-11-29 23:18:22 +0000";
layers = (
{
layerId = "B4CEBB5F-E069-4C92-9919-8A70C4320291";
name = Light;
paths = (
{
closed = 1;
nodes = (
"555 0 LINE",
"555 24 LINE",
"92 24 LINE",
"544 673 LINE",
"544 699 LINE",
"72 699 LINE",
"72 675 LINE",
"512 675 LINE",
"60 26 LINE",
"60 0 LINE"
);
},
{
closed = 1;
nodes = (
"331 -121 OFFCURVE",
"344 -108 OFFCURVE",
"344 -93 CURVE SMOOTH",
"344 -78 OFFCURVE",
"331 -65 OFFCURVE",
"316 -65 CURVE SMOOTH",
"301 -65 OFFCURVE",
"288 -78 OFFCURVE",
"288 -93 CURVE SMOOTH",
"288 -108 OFFCURVE",
"301 -121 OFFCURVE",
"316 -121 CURVE SMOOTH"
);
}
);
width = 615;
}
);
leftKerningGroup = Z;
note = Zdotbelow;
rightKerningGroup = Z;
unicode = 1E92;
},
{
glyphname = a;
lastChange = "2015-11-29 23:18:22 +0000";
layers = (
{
layerId = "B4CEBB5F-E069-4C92-9919-8A70C4320291";
name = Light;
paths = (
{
closed = 1;
nodes = (
"342 -15 OFFCURVE",
"411 16 OFFCURVE",
"454 77 CURVE",
"454 0 LINE",
"479 0 LINE",
"479 316 LINE SMOOTH",
"479 429 OFFCURVE",
"417 495 OFFCURVE",
"276 495 CURVE SMOOTH",
"222 495 OFFCURVE",
"164 483 OFFCURVE",
"126 467 CURVE",
"126 442 LINE",
"168 459 OFFCURVE",
"218 471 OFFCURVE",
"276 471 CURVE SMOOTH",
"400 471 OFFCURVE",
"451 420 OFFCURVE",
"451 317 CURVE SMOOTH",
"451 236 LINE",
"395 269 OFFCURVE",
"325 285 OFFCURVE",
"250 285 CURVE SMOOTH",
"129 285 OFFCURVE",
"60 238 OFFCURVE",
"60 134 CURVE SMOOTH",
"60 36 OFFCURVE",
"136 -15 OFFCURVE",
"246 -15 CURVE SMOOTH"
);
},
{
closed = 1;
nodes = (
"139 9 OFFCURVE",
"86 55 OFFCURVE",
"86 134 CURVE SMOOTH",
"86 217 OFFCURVE",
"130 261 OFFCURVE",
"250 261 CURVE SMOOTH",
"334 261 OFFCURVE",
"389 245 OFFCURVE",
"451 212 CURVE",
"451 111 LINE",
"417 46 OFFCURVE",
"342 9 OFFCURVE",
"254 9 CURVE SMOOTH"
);
}
);
width = 554;
}
);
leftKerningGroup = a;
note = a;
rightKerningGroup = a;
unicode = 0061;
},
{
glyphname = aacute;
lastChange = "2015-11-29 23:18:22 +0000";
layers = (
{
layerId = "B4CEBB5F-E069-4C92-9919-8A70C4320291";
name = Light;
paths = (
{
closed = 1;
nodes = (
"342 -15 OFFCURVE",
"411 16 OFFCURVE",
"454 77 CURVE",
"454 0 LINE",
"479 0 LINE",
"479 316 LINE SMOOTH",
"479 429 OFFCURVE",
"417 495 OFFCURVE",
"276 495 CURVE SMOOTH",
"222 495 OFFCURVE",
"164 483 OFFCURVE",
"126 467 CURVE",
"126 442 LINE",
"168 459 OFFCURVE",
"218 471 OFFCURVE",
"276 471 CURVE SMOOTH",
"400 471 OFFCURVE",
"451 420 OFFCURVE",
"451 317 CURVE SMOOTH",
"451 236 LINE",
"395 269 OFFCURVE",
"325 285 OFFCURVE",
"250 285 CURVE SMOOTH",
"129 285 OFFCURVE",
"60 238 OFFCURVE",
"60 134 CURVE SMOOTH",
"60 36 OFFCURVE",
"136 -15 OFFCURVE",
"246 -15 CURVE SMOOTH"
);
},
{
closed = 1;
nodes = (
"139 9 OFFCURVE",
"86 55 OFFCURVE",
"86 134 CURVE SMOOTH",
"86 217 OFFCURVE",
"130 261 OFFCURVE",
"250 261 CURVE SMOOTH",
"334 261 OFFCURVE",
"389 245 OFFCURVE",
"451 212 CURVE",
"451 111 LINE",
"417 46 OFFCURVE",
"342 9 OFFCURVE",
"254 9 CURVE SMOOTH"
);
},
{
closed = 1;
nodes = (
"294 562 LINE",
"371 729 LINE",
"343 729 LINE",
"272 562 LINE"
);
}
);
width = 554;
}
);
leftKerningGroup = a;
note = aacute;
rightKerningGroup = a;
unicode = 00E1;
},
{
glyphname = abreve;
lastChange = "2015-11-29 23:18:22 +0000";
layers = (
{
layerId = "B4CEBB5F-E069-4C92-9919-8A70C4320291";
name = Light;
paths = (
{
closed = 1;
nodes = (
"342 -15 OFFCURVE",
"411 16 OFFCURVE",
"454 77 CURVE",
"454 0 LINE",
"479 0 LINE",
"479 316 LINE SMOOTH",
"479 429 OFFCURVE",
"417 495 OFFCURVE",
"276 495 CURVE SMOOTH",
"222 495 OFFCURVE",
"164 483 OFFCURVE",
"126 467 CURVE",
"126 442 LINE",
"168 459 OFFCURVE",
"218 471 OFFCURVE",
"276 471 CURVE SMOOTH",
"400 471 OFFCURVE",
"451 420 OFFCURVE",
"451 317 CURVE SMOOTH",
"451 236 LINE",
"395 269 OFFCURVE",
"325 285 OFFCURVE",
"250 285 CURVE SMOOTH",
"129 285 OFFCURVE",
"60 238 OFFCURVE",
"60 134 CURVE SMOOTH",
"60 36 OFFCURVE",
"136 -15 OFFCURVE",
"246 -15 CURVE SMOOTH"
);
},
{
closed = 1;
nodes = (
"139 9 OFFCURVE",
"86 55 OFFCURVE",
"86 134 CURVE SMOOTH",
"86 217 OFFCURVE",
"130 261 OFFCURVE",
"250 261 CURVE SMOOTH",
"334 261 OFFCURVE",
"389 245 OFFCURVE",
"451 212 CURVE",
"451 111 LINE",
"417 46 OFFCURVE",
"342 9 OFFCURVE",
"254 9 CURVE SMOOTH"
);
},
{
closed = 1;
nodes = (
"375 580 OFFCURVE",
"423 628 OFFCURVE",
"423 688 CURVE",
"399 688 LINE",
"399 640 OFFCURVE",
"364 603 OFFCURVE",
"305 603 CURVE SMOOTH",
"247 603 OFFCURVE",
"211 640 OFFCURVE",
"211 688 CURVE",
"187 688 LINE",
"187 628 OFFCURVE",
"235 580 OFFCURVE",
"305 580 CURVE SMOOTH"
);
}
);
width = 554;
}
);
leftKerningGroup = a;
note = abreve;
rightKerningGroup = a;
unicode = 0103;
},
{
glyphname = abreveacute;
lastChange = "2015-11-29 23:18:22 +0000";
layers = (
{
layerId = "B4CEBB5F-E069-4C92-9919-8A70C4320291";
name = Light;
paths = (
{
closed = 1;
nodes = (
"342 -15 OFFCURVE",
"411 16 OFFCURVE",
"454 77 CURVE",
"454 0 LINE",
"479 0 LINE",
"479 316 LINE SMOOTH",
"479 429 OFFCURVE",
"417 495 OFFCURVE",
"276 495 CURVE SMOOTH",
"222 495 OFFCURVE",
"164 483 OFFCURVE",
"126 467 CURVE",
"126 442 LINE",
"168 459 OFFCURVE",
"218 471 OFFCURVE",
"276 471 CURVE SMOOTH",
"400 471 OFFCURVE",
"451 420 OFFCURVE",
"451 317 CURVE SMOOTH",
"451 236 LINE",
"395 269 OFFCURVE",
"325 285 OFFCURVE",
"250 285 CURVE SMOOTH",
"129 285 OFFCURVE",
"60 238 OFFCURVE",
"60 134 CURVE SMOOTH",
"60 36 OFFCURVE",
"136 -15 OFFCURVE",
"246 -15 CURVE SMOOTH"
);
},
{
closed = 1;
nodes = (
"139 9 OFFCURVE",
"86 55 OFFCURVE",
"86 134 CURVE SMOOTH",
"86 217 OFFCURVE",
"130 261 OFFCURVE",
"250 261 CURVE SMOOTH",
"334 261 OFFCURVE",
"389 245 OFFCURVE",
"451 212 CURVE",
"451 111 LINE",
"417 46 OFFCURVE",
"342 9 OFFCURVE",
"254 9 CURVE SMOOTH"
);
},
{
closed = 1;
nodes = (
"359 565 OFFCURVE",
"407 613 OFFCURVE",
"407 673 CURVE",
"383 673 LINE",
"383 625 OFFCURVE",
"348 588 OFFCURVE",
"289 588 CURVE SMOOTH",
"231 588 OFFCURVE",
"195 625 OFFCURVE",
"195 673 CURVE",
"171 673 LINE",
"171 613 OFFCURVE",
"219 565 OFFCURVE",
"289 565 CURVE SMOOTH"
);
},
{
closed = 1;
nodes = (
"284 639 LINE",
"344 759 LINE",
"316 759 LINE",
"262 639 LINE"
);
}
);
width = 554;
}
);
leftKerningGroup = a;
note = abreveacute;
rightKerningGroup = a;
unicode = 1EAF;
},
{
glyphname = abrevedotbelow;
lastChange = "2015-11-29 23:18:23 +0000";
layers = (
{
layerId = "B4CEBB5F-E069-4C92-9919-8A70C4320291";
name = Light;
paths = (
{
closed = 1;
nodes = (
"342 -15 OFFCURVE",
"411 16 OFFCURVE",
"454 77 CURVE",
"454 0 LINE",
"479 0 LINE",
"479 316 LINE SMOOTH",
"479 429 OFFCURVE",
"417 495 OFFCURVE",
"276 495 CURVE SMOOTH",
"222 495 OFFCURVE",
"164 483 OFFCURVE",
"126 467 CURVE",
"126 442 LINE",
"168 459 OFFCURVE",
"218 471 OFFCURVE",
"276 471 CURVE SMOOTH",
"400 471 OFFCURVE",
"451 420 OFFCURVE",
"451 317 CURVE SMOOTH",
"451 236 LINE",
"395 269 OFFCURVE",
"325 285 OFFCURVE",
"250 285 CURVE SMOOTH",
"129 285 OFFCURVE",
"60 238 OFFCURVE",
"60 134 CURVE SMOOTH",
"60 36 OFFCURVE",
"136 -15 OFFCURVE",
"246 -15 CURVE SMOOTH"
);
},
{
closed = 1;
nodes = (
"300 -121 OFFCURVE",
"313 -108 OFFCURVE",
"313 -93 CURVE SMOOTH",
"313 -78 OFFCURVE",
"300 -65 OFFCURVE",
"285 -65 CURVE SMOOTH",
"270 -65 OFFCURVE",
"257 -78 OFFCURVE",
"257 -93 CURVE SMOOTH",
"257 -108 OFFCURVE",
"270 -121 OFFCURVE",
"285 -121 CURVE SMOOTH"
);
},
{
closed = 1;
nodes = (
"139 9 OFFCURVE",
"86 55 OFFCURVE",
"86 134 CURVE SMOOTH",
"86 217 OFFCURVE",
"130 261 OFFCURVE",
"250 261 CURVE SMOOTH",
"334 261 OFFCURVE",
"389 245 OFFCURVE",
"451 212 CURVE",
"451 111 LINE",
"417 46 OFFCURVE",
"342 9 OFFCURVE",
"254 9 CURVE SMOOTH"
);
},
{
closed = 1;
nodes = (
"355 560 OFFCURVE",
"403 608 OFFCURVE",
"403 668 CURVE",
"379 668 LINE",
"379 620 OFFCURVE",
"344 583 OFFCURVE",
"285 583 CURVE SMOOTH",
"227 583 OFFCURVE",
"191 620 OFFCURVE",
"191 668 CURVE",
"167 668 LINE",
"167 608 OFFCURVE",
"215 560 OFFCURVE",
"285 560 CURVE SMOOTH"
);
}
);
width = 554;
}
);
leftKerningGroup = a;
note = abrevedotbelow;
rightKerningGroup = a;
unicode = 1EB7;
},
{
glyphname = abrevegrave;
lastChange = "2015-11-29 23:18:22 +0000";
layers = (
{
layerId = "B4CEBB5F-E069-4C92-9919-8A70C4320291";
name = Light;
paths = (
{
closed = 1;
nodes = (
"342 -15 OFFCURVE",
"411 16 OFFCURVE",
"454 77 CURVE",
"454 0 LINE",
"479 0 LINE",
"479 316 LINE SMOOTH",
"479 429 OFFCURVE",
"417 495 OFFCURVE",
"276 495 CURVE SMOOTH",
"222 495 OFFCURVE",
"164 483 OFFCURVE",
"126 467 CURVE",
"126 442 LINE",
"168 459 OFFCURVE",
"218 471 OFFCURVE",
"276 471 CURVE SMOOTH",
"400 471 OFFCURVE",
"451 420 OFFCURVE",
"451 317 CURVE SMOOTH",
"451 236 LINE",
"395 269 OFFCURVE",
"325 285 OFFCURVE",
"250 285 CURVE SMOOTH",
"129 285 OFFCURVE",
"60 238 OFFCURVE",
"60 134 CURVE SMOOTH",
"60 36 OFFCURVE",
"136 -15 OFFCURVE",
"246 -15 CURVE SMOOTH"
);
},
{
closed = 1;
nodes = (
"139 9 OFFCURVE",
"86 55 OFFCURVE",
"86 134 CURVE SMOOTH",
"86 217 OFFCURVE",
"130 261 OFFCURVE",
"250 261 CURVE SMOOTH",
"334 261 OFFCURVE",
"389 245 OFFCURVE",
"451 212 CURVE",
"451 111 LINE",
"417 46 OFFCURVE",
"342 9 OFFCURVE",
"254 9 CURVE SMOOTH"
);
},
{
closed = 1;
nodes = (
"358 565 OFFCURVE",
"406 613 OFFCURVE",
"406 673 CURVE",
"382 673 LINE",
"382 625 OFFCURVE",
"346 588 OFFCURVE",
"288 588 CURVE SMOOTH",
"229 588 OFFCURVE",
"194 625 OFFCURVE",
"194 673 CURVE",
"170 673 LINE",
"170 613 OFFCURVE",
"218 565 OFFCURVE",
"288 565 CURVE SMOOTH"
);
},
{
closed = 1;
nodes = (
"315 639 LINE",
"261 759 LINE",
"233 759 LINE",
"293 639 LINE"
);
}
);
width = 554;
}
);
leftKerningGroup = a;
note = abrevegrave;
rightKerningGroup = a;
unicode = 1EB1;
},
{
glyphname = abrevehookabove;
lastChange = "2015-11-29 23:18:24 +0000";
layers = (
{
layerId = "B4CEBB5F-E069-4C92-9919-8A70C4320291";
name = Light;
paths = (
{
closed = 1;
nodes = (
"342 -15 OFFCURVE",
"411 16 OFFCURVE",
"454 77 CURVE",
"454 0 LINE",
"479 0 LINE",
"479 316 LINE SMOOTH",
"479 429 OFFCURVE",
"417 495 OFFCURVE",
"276 495 CURVE SMOOTH",
"222 495 OFFCURVE",
"164 483 OFFCURVE",
"126 467 CURVE",
"126 442 LINE",
"168 459 OFFCURVE",
"218 471 OFFCURVE",
"276 471 CURVE SMOOTH",
"400 471 OFFCURVE",
"451 420 OFFCURVE",
"451 317 CURVE SMOOTH",
"451 236 LINE",
"395 269 OFFCURVE",
"325 285 OFFCURVE",
"250 285 CURVE SMOOTH",
"129 285 OFFCURVE",
"60 238 OFFCURVE",
"60 134 CURVE SMOOTH",
"60 36 OFFCURVE",
"136 -15 OFFCURVE",
"246 -15 CURVE SMOOTH"
);
},
{
closed = 1;
nodes = (
"139 9 OFFCURVE",
"86 55 OFFCURVE",
"86 134 CURVE SMOOTH",
"86 217 OFFCURVE",
"130 261 OFFCURVE",
"250 261 CURVE SMOOTH",
"334 261 OFFCURVE",
"389 245 OFFCURVE",
"451 212 CURVE",
"451 111 LINE",
"417 46 OFFCURVE",
"342 9 OFFCURVE",
"254 9 CURVE SMOOTH"
);
},
{
closed = 1;
nodes = (
"361 565 OFFCURVE",
"409 613 OFFCURVE",
"409 673 CURVE",
"385 673 LINE",
"385 625 OFFCURVE",
"350 588 OFFCURVE",
"291 588 CURVE SMOOTH",
"233 588 OFFCURVE",
"197 625 OFFCURVE",
"197 673 CURVE",
"173 673 LINE",
"173 613 OFFCURVE",
"221 565 OFFCURVE",
"291 565 CURVE SMOOTH"
);
},
{
closed = 1;
nodes = (
"294 624 LINE",
"294 656 LINE",
"338 658 OFFCURVE",
"364 681 OFFCURVE",
"364 716 CURVE SMOOTH",
"364 753 OFFCURVE",
"343 778 OFFCURVE",
"294 778 CURVE SMOOTH",
"276 778 OFFCURVE",
"256 774 OFFCURVE",
"245 770 CURVE",
"245 747 LINE",
"256 752 OFFCURVE",
"277 756 OFFCURVE",
"294 756 CURVE SMOOTH",
"324 756 OFFCURVE",
"340 746 OFFCURVE",
"340 716 CURVE SMOOTH",
"340 685 OFFCURVE",
"321 674 OFFCURVE",
"273 674 CURVE",
"273 624 LINE"
);
}
);
width = 554;
}
);
leftKerningGroup = a;
note = abrevehookabove;
rightKerningGroup = a;
unicode = 1EB3;
},
{
glyphname = abrevetilde;
lastChange = "2015-11-29 23:18:23 +0000";
layers = (
{
layerId = "B4CEBB5F-E069-4C92-9919-8A70C4320291";
name = Light;
paths = (
{
closed = 1;
nodes = (
"342 -15 OFFCURVE",
"411 16 OFFCURVE",
"454 77 CURVE",
"454 0 LINE",
"479 0 LINE",
"479 316 LINE SMOOTH",
"479 429 OFFCURVE",
"417 495 OFFCURVE",
"276 495 CURVE SMOOTH",
"222 495 OFFCURVE",
"164 483 OFFCURVE",
"126 467 CURVE",
"126 442 LINE",
"168 459 OFFCURVE",
"218 471 OFFCURVE",
"276 471 CURVE SMOOTH",
"400 471 OFFCURVE",
"451 420 OFFCURVE",
"451 317 CURVE SMOOTH",
"451 236 LINE",
"395 269 OFFCURVE",
"325 285 OFFCURVE",
"250 285 CURVE SMOOTH",
"129 285 OFFCURVE",
"60 238 OFFCURVE",
"60 134 CURVE SMOOTH",
"60 36 OFFCURVE",
"136 -15 OFFCURVE",
"246 -15 CURVE SMOOTH"
);
},
{
closed = 1;
nodes = (
"139 9 OFFCURVE",
"86 55 OFFCURVE",
"86 134 CURVE SMOOTH",
"86 217 OFFCURVE",
"130 261 OFFCURVE",
"250 261 CURVE SMOOTH",
"334 261 OFFCURVE",
"389 245 OFFCURVE",
"451 212 CURVE",
"451 111 LINE",
"417 46 OFFCURVE",
"342 9 OFFCURVE",
"254 9 CURVE SMOOTH"
);
},
{
closed = 1;
nodes = (
"366 565 OFFCURVE",
"414 613 OFFCURVE",
"414 673 CURVE",
"390 673 LINE",
"390 625 OFFCURVE",
"355 588 OFFCURVE",
"296 588 CURVE SMOOTH",
"238 588 OFFCURVE",
"202 625 OFFCURVE",
"202 673 CURVE",
"178 673 LINE",
"178 613 OFFCURVE",
"226 565 OFFCURVE",
"296 565 CURVE SMOOTH"
);
},
{
closed = 1;
nodes = (
"401 701 OFFCURVE",
"422 712 OFFCURVE",
"436 738 CURVE",
"436 768 LINE",
"417 733 OFFCURVE",
"397 723 OFFCURVE",
"367 723 CURVE SMOOTH",
"325 723 OFFCURVE",
"270 769 OFFCURVE",
"225 769 CURVE SMOOTH",
"191 769 OFFCURVE",
"170 758 OFFCURVE",
"156 732 CURVE",
"156 702 LINE",
"177 737 OFFCURVE",
"195 747 OFFCURVE",
"225 747 CURVE SMOOTH",
"266 747 OFFCURVE",
"318 701 OFFCURVE",
"367 701 CURVE SMOOTH"
);
}
);
width = 554;
}
);
leftKerningGroup = a;
note = abrevetilde;
rightKerningGroup = a;
unicode = 1EB5;
},
{
glyphname = acaron;
lastChange = "2015-11-29 23:18:22 +0000";
layers = (
{
layerId = "B4CEBB5F-E069-4C92-9919-8A70C4320291";
name = Light;
paths = (
{
closed = 1;
nodes = (
"342 -15 OFFCURVE",
"411 16 OFFCURVE",
"454 77 CURVE",
"454 0 LINE",
"479 0 LINE",
"479 316 LINE SMOOTH",
"479 429 OFFCURVE",
"417 495 OFFCURVE",
"276 495 CURVE SMOOTH",
"222 495 OFFCURVE",
"164 483 OFFCURVE",
"126 467 CURVE",
"126 442 LINE",
"168 459 OFFCURVE",
"218 471 OFFCURVE",
"276 471 CURVE SMOOTH",
"400 471 OFFCURVE",
"451 420 OFFCURVE",
"451 317 CURVE SMOOTH",
"451 236 LINE",
"395 269 OFFCURVE",
"325 285 OFFCURVE",
"250 285 CURVE SMOOTH",
"129 285 OFFCURVE",
"60 238 OFFCURVE",
"60 134 CURVE SMOOTH",
"60 36 OFFCURVE",
"136 -15 OFFCURVE",
"246 -15 CURVE SMOOTH"
);
},
{
closed = 1;
nodes = (
"139 9 OFFCURVE",
"86 55 OFFCURVE",
"86 134 CURVE SMOOTH",
"86 217 OFFCURVE",
"130 261 OFFCURVE",
"250 261 CURVE SMOOTH",
"334 261 OFFCURVE",
"389 245 OFFCURVE",
"451 212 CURVE",
"451 111 LINE",
"417 46 OFFCURVE",
"342 9 OFFCURVE",
"254 9 CURVE SMOOTH"
);
},
{
closed = 1;
nodes = (
"310 562 LINE",
"438 713 LINE",
"407 713 LINE",
"299 584 LINE",
"191 713 LINE",
"160 713 LINE",
"288 562 LINE"
);
}
);
width = 554;
}
);
leftKerningGroup = a;
note = acaron;
rightKerningGroup = a;
unicode = 01CE;
},
{
glyphname = acircumflex;
lastChange = "2015-11-29 23:18:22 +0000";
layers = (
{
layerId = "B4CEBB5F-E069-4C92-9919-8A70C4320291";
name = Light;
paths = (
{
closed = 1;
nodes = (
"342 -15 OFFCURVE",
"411 16 OFFCURVE",
"454 77 CURVE",
"454 0 LINE",
"479 0 LINE",
"479 316 LINE SMOOTH",
"479 429 OFFCURVE",
"417 495 OFFCURVE",
"276 495 CURVE SMOOTH",
"222 495 OFFCURVE",
"164 483 OFFCURVE",
"126 467 CURVE",
"126 442 LINE",
"168 459 OFFCURVE",
"218 471 OFFCURVE",
"276 471 CURVE SMOOTH",
"400 471 OFFCURVE",
"451 420 OFFCURVE",
"451 317 CURVE SMOOTH",
"451 236 LINE",
"395 269 OFFCURVE",
"325 285 OFFCURVE",
"250 285 CURVE SMOOTH",
"129 285 OFFCURVE",
"60 238 OFFCURVE",
"60 134 CURVE SMOOTH",
"60 36 OFFCURVE",
"136 -15 OFFCURVE",
"246 -15 CURVE SMOOTH"
);
},
{
closed = 1;
nodes = (
"139 9 OFFCURVE",
"86 55 OFFCURVE",
"86 134 CURVE SMOOTH",
"86 217 OFFCURVE",
"130 261 OFFCURVE",
"250 261 CURVE SMOOTH",
"334 261 OFFCURVE",
"389 245 OFFCURVE",
"451 212 CURVE",
"451 111 LINE",
"417 46 OFFCURVE",
"342 9 OFFCURVE",
"254 9 CURVE SMOOTH"
);
},
{
closed = 1;
nodes = (
"178 562 LINE",
"286 691 LINE",
"394 562 LINE",
"425 562 LINE",
"297 713 LINE",
"275 713 LINE",
"147 562 LINE"
);
}
);
width = 554;
}
);
leftKerningGroup = a;
note = acircumflex;
rightKerningGroup = a;
unicode = 00E2;
},
{
glyphname = acircumflexacute;
lastChange = "2015-11-29 23:18:24 +0000";
layers = (
{
layerId = "B4CEBB5F-E069-4C92-9919-8A70C4320291";
name = Light;
paths = (
{
closed = 1;
nodes = (
"342 -15 OFFCURVE",
"411 16 OFFCURVE",
"454 77 CURVE",
"454 0 LINE",
"479 0 LINE",
"479 316 LINE SMOOTH",
"479 429 OFFCURVE",
"417 495 OFFCURVE",
"276 495 CURVE SMOOTH",
"222 495 OFFCURVE",
"164 483 OFFCURVE",
"126 467 CURVE",
"126 442 LINE",
"168 459 OFFCURVE",
"218 471 OFFCURVE",
"276 471 CURVE SMOOTH",
"400 471 OFFCURVE",
"451 420 OFFCURVE",
"451 317 CURVE SMOOTH",
"451 236 LINE",
"395 269 OFFCURVE",
"325 285 OFFCURVE",
"250 285 CURVE SMOOTH",
"129 285 OFFCURVE",
"60 238 OFFCURVE",
"60 134 CURVE SMOOTH",
"60 36 OFFCURVE",
"136 -15 OFFCURVE",
"246 -15 CURVE SMOOTH"
);
},
{
closed = 1;
nodes = (
"139 9 OFFCURVE",
"86 55 OFFCURVE",
"86 134 CURVE SMOOTH",
"86 217 OFFCURVE",
"130 261 OFFCURVE",
"250 261 CURVE SMOOTH",
"334 261 OFFCURVE",
"389 245 OFFCURVE",
"451 212 CURVE",
"451 111 LINE",
"417 46 OFFCURVE",
"342 9 OFFCURVE",
"254 9 CURVE SMOOTH"
);
},
{
closed = 1;
nodes = (
"176 558 LINE",
"284 660 LINE",
"392 558 LINE",
"423 558 LINE",
"295 679 LINE",
"273 679 LINE",
"145 558 LINE"
);
},
{
closed = 1;
nodes = (
"388 641 LINE",
"459 749 LINE",
"431 749 LINE",
"366 641 LINE"
);
}
);
width = 554;
}
);
leftKerningGroup = a;
note = acircumflexacute;
rightKerningGroup = a;
unicode = 1EA5;
},
{
glyphname = acircumflexdotbelow;
lastChange = "2015-11-29 23:18:22 +0000";
layers = (
{
layerId = "B4CEBB5F-E069-4C92-9919-8A70C4320291";
name = Light;
paths = (
{
closed = 1;
nodes = (
"342 -15 OFFCURVE",
"411 16 OFFCURVE",
"454 77 CURVE",
"454 0 LINE",
"479 0 LINE",
"479 316 LINE SMOOTH",
"479 429 OFFCURVE",
"417 495 OFFCURVE",
"276 495 CURVE SMOOTH",
"222 495 OFFCURVE",
"164 483 OFFCURVE",
"126 467 CURVE",
"126 442 LINE",
"168 459 OFFCURVE",
"218 471 OFFCURVE",
"276 471 CURVE SMOOTH",
"400 471 OFFCURVE",
"451 420 OFFCURVE",
"451 317 CURVE SMOOTH",
"451 236 LINE",
"395 269 OFFCURVE",
"325 285 OFFCURVE",
"250 285 CURVE SMOOTH",
"129 285 OFFCURVE",
"60 238 OFFCURVE",
"60 134 CURVE SMOOTH",
"60 36 OFFCURVE",
"136 -15 OFFCURVE",
"246 -15 CURVE SMOOTH"
);
},
{
closed = 1;
nodes = (
"301 -121 OFFCURVE",
"314 -108 OFFCURVE",
"314 -93 CURVE SMOOTH",
"314 -78 OFFCURVE",
"301 -65 OFFCURVE",
"286 -65 CURVE SMOOTH",
"271 -65 OFFCURVE",
"258 -78 OFFCURVE",
"258 -93 CURVE SMOOTH",
"258 -108 OFFCURVE",
"271 -121 OFFCURVE",
"286 -121 CURVE SMOOTH"
);
},
{
closed = 1;
nodes = (
"139 9 OFFCURVE",
"86 55 OFFCURVE",
"86 134 CURVE SMOOTH",
"86 217 OFFCURVE",
"130 261 OFFCURVE",
"250 261 CURVE SMOOTH",
"334 261 OFFCURVE",
"389 245 OFFCURVE",
"451 212 CURVE",
"451 111 LINE",
"417 46 OFFCURVE",
"342 9 OFFCURVE",
"254 9 CURVE SMOOTH"
);
},
{
closed = 1;
nodes = (
"177 568 LINE",
"285 697 LINE",
"393 568 LINE",
"424 568 LINE",
"296 719 LINE",
"274 719 LINE",
"146 568 LINE"
);
}
);
width = 554;
}
);
leftKerningGroup = a;
note = acircumflexdotbelow;
rightKerningGroup = a;
unicode = 1EAD;
},
{
glyphname = acircumflexgrave;
lastChange = "2015-11-29 23:18:23 +0000";
layers = (
{
layerId = "B4CEBB5F-E069-4C92-9919-8A70C4320291";
name = Light;
paths = (
{
closed = 1;
nodes = (
"342 -15 OFFCURVE",
"411 16 OFFCURVE",
"454 77 CURVE",
"454 0 LINE",
"479 0 LINE",
"479 316 LINE SMOOTH",
"479 429 OFFCURVE",
"417 495 OFFCURVE",
"276 495 CURVE SMOOTH",
"222 495 OFFCURVE",
"164 483 OFFCURVE",
"126 467 CURVE",
"126 442 LINE",
"168 459 OFFCURVE",
"218 471 OFFCURVE",
"276 471 CURVE SMOOTH",
"400 471 OFFCURVE",
"451 420 OFFCURVE",
"451 317 CURVE SMOOTH",
"451 236 LINE",
"395 269 OFFCURVE",
"325 285 OFFCURVE",
"250 285 CURVE SMOOTH",
"129 285 OFFCURVE",
"60 238 OFFCURVE",
"60 134 CURVE SMOOTH",
"60 36 OFFCURVE",
"136 -15 OFFCURVE",
"246 -15 CURVE SMOOTH"
);
},
{
closed = 1;
nodes = (
"139 9 OFFCURVE",
"86 55 OFFCURVE",
"86 134 CURVE SMOOTH",
"86 217 OFFCURVE",
"130 261 OFFCURVE",
"250 261 CURVE SMOOTH",
"334 261 OFFCURVE",
"389 245 OFFCURVE",
"451 212 CURVE",
"451 111 LINE",
"417 46 OFFCURVE",
"342 9 OFFCURVE",
"254 9 CURVE SMOOTH"
);
},
{
closed = 1;
nodes = (
"209 641 LINE",
"144 749 LINE",
"116 749 LINE",
"187 641 LINE"
);
},
{
closed = 1;
nodes = (
"183 558 LINE",
"291 660 LINE",
"399 558 LINE",
"430 558 LINE",
"302 679 LINE",
"280 679 LINE",
"152 558 LINE"
);
}
);
width = 554;
}
);
leftKerningGroup = a;
note = acircumflexgrave;
rightKerningGroup = a;
unicode = 1EA7;
},
{
glyphname = acircumflexhookabove;
lastChange = "2015-11-29 23:18:22 +0000";
layers = (
{
layerId = "B4CEBB5F-E069-4C92-9919-8A70C4320291";
name = Light;
paths = (
{
closed = 1;
nodes = (
"342 -15 OFFCURVE",
"411 16 OFFCURVE",
"454 77 CURVE",
"454 0 LINE",
"479 0 LINE",
"479 316 LINE SMOOTH",
"479 429 OFFCURVE",
"417 495 OFFCURVE",
"276 495 CURVE SMOOTH",
"222 495 OFFCURVE",
"164 483 OFFCURVE",
"126 467 CURVE",
"126 442 LINE",
"168 459 OFFCURVE",
"218 471 OFFCURVE",
"276 471 CURVE SMOOTH",
"400 471 OFFCURVE",
"451 420 OFFCURVE",
"451 317 CURVE SMOOTH",
"451 236 LINE",
"395 269 OFFCURVE",
"325 285 OFFCURVE",
"250 285 CURVE SMOOTH",
"129 285 OFFCURVE",
"60 238 OFFCURVE",
"60 134 CURVE SMOOTH",
"60 36 OFFCURVE",
"136 -15 OFFCURVE",
"246 -15 CURVE SMOOTH"
);
},
{
closed = 1;
nodes = (
"139 9 OFFCURVE",
"86 55 OFFCURVE",
"86 134 CURVE SMOOTH",
"86 217 OFFCURVE",
"130 261 OFFCURVE",
"250 261 CURVE SMOOTH",
"334 261 OFFCURVE",
"389 245 OFFCURVE",
"451 212 CURVE",
"451 111 LINE",
"417 46 OFFCURVE",
"342 9 OFFCURVE",
"254 9 CURVE SMOOTH"
);
},
{
closed = 1;
nodes = (
"181 558 LINE",
"289 660 LINE",
"397 558 LINE",
"428 558 LINE",
"300 679 LINE",
"278 679 LINE",
"150 558 LINE"
);
},
{
closed = 1;
nodes = (
"394 631 LINE",
"394 658 LINE",
"438 660 OFFCURVE",
"464 683 OFFCURVE",
"464 718 CURVE SMOOTH",
"464 755 OFFCURVE",
"443 780 OFFCURVE",
"394 780 CURVE SMOOTH",
"376 780 OFFCURVE",
"356 776 OFFCURVE",
"345 772 CURVE",
"345 749 LINE",
"356 754 OFFCURVE",
"377 758 OFFCURVE",
"394 758 CURVE SMOOTH",
"424 758 OFFCURVE",
"440 748 OFFCURVE",
"440 718 CURVE SMOOTH",
"440 687 OFFCURVE",
"421 676 OFFCURVE",
"373 676 CURVE",
"373 631 LINE"
);
}
);
width = 554;
}
);
leftKerningGroup = a;
note = acircumflexhookabove;
rightKerningGroup = a;
unicode = 1EA9;
},
{
glyphname = acircumflextilde;
lastChange = "2015-11-29 23:18:23 +0000";
layers = (
{
layerId = "B4CEBB5F-E069-4C92-9919-8A70C4320291";
name = Light;
paths = (
{
closed = 1;
nodes = (
"342 -15 OFFCURVE",
"411 16 OFFCURVE",
"454 77 CURVE",
"454 0 LINE",
"479 0 LINE",
"479 316 LINE SMOOTH",
"479 429 OFFCURVE",
"417 495 OFFCURVE",
"276 495 CURVE SMOOTH",
"222 495 OFFCURVE",
"164 483 OFFCURVE",
"126 467 CURVE",
"126 442 LINE",
"168 459 OFFCURVE",
"218 471 OFFCURVE",
"276 471 CURVE SMOOTH",
"400 471 OFFCURVE",
"451 420 OFFCURVE",
"451 317 CURVE SMOOTH",
"451 236 LINE",
"395 269 OFFCURVE",
"325 285 OFFCURVE",
"250 285 CURVE SMOOTH",
"129 285 OFFCURVE",
"60 238 OFFCURVE",
"60 134 CURVE SMOOTH",
"60 36 OFFCURVE",
"136 -15 OFFCURVE",
"246 -15 CURVE SMOOTH"
);
},
{
closed = 1;
nodes = (
"139 9 OFFCURVE",
"86 55 OFFCURVE",
"86 134 CURVE SMOOTH",
"86 217 OFFCURVE",
"130 261 OFFCURVE",
"250 261 CURVE SMOOTH",
"334 261 OFFCURVE",
"389 245 OFFCURVE",
"451 212 CURVE",
"451 111 LINE",
"417 46 OFFCURVE",
"342 9 OFFCURVE",
"254 9 CURVE SMOOTH"
);
},
{
closed = 1;
nodes = (
"179 558 LINE",
"287 660 LINE",
"395 558 LINE",
"426 558 LINE",
"298 679 LINE",
"276 679 LINE",
"148 558 LINE"
);
},
{
closed = 1;
nodes = (
"392 692 OFFCURVE",
"413 703 OFFCURVE",
"427 729 CURVE",
"427 759 LINE",
"408 724 OFFCURVE",
"388 714 OFFCURVE",
"358 714 CURVE SMOOTH",
"316 714 OFFCURVE",
"261 760 OFFCURVE",
"216 760 CURVE SMOOTH",
"182 760 OFFCURVE",
"161 749 OFFCURVE",
"147 723 CURVE",
"147 693 LINE",
"168 728 OFFCURVE",
"186 738 OFFCURVE",
"216 738 CURVE SMOOTH",
"257 738 OFFCURVE",
"309 692 OFFCURVE",
"358 692 CURVE SMOOTH"
);
}
);
width = 554;
}
);
leftKerningGroup = a;
note = acircumflextilde;
rightKerningGroup = a;
unicode = 1EAB;
},
{
glyphname = adieresis;
lastChange = "2015-11-29 23:18:24 +0000";
layers = (
{
layerId = "B4CEBB5F-E069-4C92-9919-8A70C4320291";
name = Light;
paths = (
{
closed = 1;
nodes = (
"342 -15 OFFCURVE",
"411 16 OFFCURVE",
"454 77 CURVE",
"454 0 LINE",
"479 0 LINE",
"479 316 LINE SMOOTH",
"479 429 OFFCURVE",
"417 495 OFFCURVE",
"276 495 CURVE SMOOTH",
"222 495 OFFCURVE",
"164 483 OFFCURVE",
"126 467 CURVE",
"126 442 LINE",
"168 459 OFFCURVE",
"218 471 OFFCURVE",
"276 471 CURVE SMOOTH",
"400 471 OFFCURVE",
"451 420 OFFCURVE",
"451 317 CURVE SMOOTH",
"451 236 LINE",
"395 269 OFFCURVE",
"325 285 OFFCURVE",
"250 285 CURVE SMOOTH",
"129 285 OFFCURVE",
"60 238 OFFCURVE",
"60 134 CURVE SMOOTH",
"60 36 OFFCURVE",
"136 -15 OFFCURVE",
"246 -15 CURVE SMOOTH"
);
},
{
closed = 1;
nodes = (
"139 9 OFFCURVE",
"86 55 OFFCURVE",
"86 134 CURVE SMOOTH",
"86 217 OFFCURVE",
"130 261 OFFCURVE",
"250 261 CURVE SMOOTH",
"334 261 OFFCURVE",
"389 245 OFFCURVE",
"451 212 CURVE",
"451 111 LINE",
"417 46 OFFCURVE",
"342 9 OFFCURVE",
"254 9 CURVE SMOOTH"
);
},
{
closed = 1;
nodes = (
"212 572 OFFCURVE",
"225 585 OFFCURVE",
"225 600 CURVE SMOOTH",
"225 615 OFFCURVE",
"212 628 OFFCURVE",
"197 628 CURVE SMOOTH",
"182 628 OFFCURVE",
"169 615 OFFCURVE",
"169 600 CURVE SMOOTH",
"169 585 OFFCURVE",
"182 572 OFFCURVE",
"197 572 CURVE SMOOTH"
);
},
{
closed = 1;
nodes = (
"410 572 OFFCURVE",
"423 585 OFFCURVE",
"423 600 CURVE SMOOTH",
"423 615 OFFCURVE",
"410 628 OFFCURVE",
"395 628 CURVE SMOOTH",
"380 628 OFFCURVE",
"367 615 OFFCURVE",
"367 600 CURVE SMOOTH",
"367 585 OFFCURVE",
"380 572 OFFCURVE",
"395 572 CURVE SMOOTH"
);
}
);
width = 554;
}
);
leftKerningGroup = a;
note = adieresis;
rightKerningGroup = a;
unicode = 00E4;
},
{
glyphname = adotbelow;
lastChange = "2015-11-29 23:18:23 +0000";
layers = (
{
layerId = "B4CEBB5F-E069-4C92-9919-8A70C4320291";
name = Light;
paths = (
{
closed = 1;
nodes = (
"342 -15 OFFCURVE",
"411 16 OFFCURVE",
"454 77 CURVE",
"454 0 LINE",
"479 0 LINE",
"479 316 LINE SMOOTH",
"479 429 OFFCURVE",
"417 495 OFFCURVE",
"276 495 CURVE SMOOTH",
"222 495 OFFCURVE",
"164 483 OFFCURVE",
"126 467 CURVE",
"126 442 LINE",
"168 459 OFFCURVE",
"218 471 OFFCURVE",
"276 471 CURVE SMOOTH",
"400 471 OFFCURVE",
"451 420 OFFCURVE",
"451 317 CURVE SMOOTH",
"451 236 LINE",
"395 269 OFFCURVE",
"325 285 OFFCURVE",
"250 285 CURVE SMOOTH",
"129 285 OFFCURVE",
"60 238 OFFCURVE",
"60 134 CURVE SMOOTH",
"60 36 OFFCURVE",
"136 -15 OFFCURVE",
"246 -15 CURVE SMOOTH"
);
},
{
closed = 1;
nodes = (
"289 -121 OFFCURVE",
"302 -108 OFFCURVE",
"302 -93 CURVE SMOOTH",
"302 -78 OFFCURVE",
"289 -65 OFFCURVE",
"274 -65 CURVE SMOOTH",
"259 -65 OFFCURVE",
"246 -78 OFFCURVE",
"246 -93 CURVE SMOOTH",
"246 -108 OFFCURVE",
"259 -121 OFFCURVE",
"274 -121 CURVE SMOOTH"
);
},
{
closed = 1;
nodes = (
"139 9 OFFCURVE",
"86 55 OFFCURVE",
"86 134 CURVE SMOOTH",
"86 217 OFFCURVE",
"130 261 OFFCURVE",
"250 261 CURVE SMOOTH",
"334 261 OFFCURVE",
"389 245 OFFCURVE",
"451 212 CURVE",
"451 111 LINE",
"417 46 OFFCURVE",
"342 9 OFFCURVE",
"254 9 CURVE SMOOTH"
);
}
);
width = 554;
}
);
leftKerningGroup = a;
note = adotbelow;
rightKerningGroup = a;
unicode = 1EA1;
},
{
glyphname = agrave;
lastChange = "2015-11-29 23:18:24 +0000";
layers = (
{
layerId = "B4CEBB5F-E069-4C92-9919-8A70C4320291";
name = Light;
paths = (
{
closed = 1;
nodes = (
"342 -15 OFFCURVE",
"411 16 OFFCURVE",
"454 77 CURVE",
"454 0 LINE",
"479 0 LINE",
"479 316 LINE SMOOTH",
"479 429 OFFCURVE",
"417 495 OFFCURVE",
"276 495 CURVE SMOOTH",
"222 495 OFFCURVE",
"164 483 OFFCURVE",
"126 467 CURVE",
"126 442 LINE",
"168 459 OFFCURVE",
"218 471 OFFCURVE",
"276 471 CURVE SMOOTH",
"400 471 OFFCURVE",
"451 420 OFFCURVE",
"451 317 CURVE SMOOTH",
"451 236 LINE",
"395 269 OFFCURVE",
"325 285 OFFCURVE",
"250 285 CURVE SMOOTH",
"129 285 OFFCURVE",
"60 238 OFFCURVE",
"60 134 CURVE SMOOTH",
"60 36 OFFCURVE",
"136 -15 OFFCURVE",
"246 -15 CURVE SMOOTH"
);
},
{
closed = 1;
nodes = (
"139 9 OFFCURVE",
"86 55 OFFCURVE",
"86 134 CURVE SMOOTH",
"86 217 OFFCURVE",
"130 261 OFFCURVE",
"250 261 CURVE SMOOTH",
"334 261 OFFCURVE",
"389 245 OFFCURVE",
"451 212 CURVE",
"451 111 LINE",
"417 46 OFFCURVE",
"342 9 OFFCURVE",
"254 9 CURVE SMOOTH"
);
},
{
closed = 1;
nodes = (
"326 562 LINE",
"255 729 LINE",
"227 729 LINE",
"304 562 LINE"
);
}
);
width = 554;
}
);
leftKerningGroup = a;
note = agrave;
rightKerningGroup = a;
unicode = 00E0;
},
{
glyphname = ahookabove;
lastChange = "2015-11-29 23:18:24 +0000";
layers = (
{
layerId = "B4CEBB5F-E069-4C92-9919-8A70C4320291";
name = Light;
paths = (
{
closed = 1;
nodes = (
"342 -15 OFFCURVE",
"411 16 OFFCURVE",
"454 77 CURVE",
"454 0 LINE",
"479 0 LINE",
"479 316 LINE SMOOTH",
"479 429 OFFCURVE",
"417 495 OFFCURVE",
"276 495 CURVE SMOOTH",
"222 495 OFFCURVE",
"164 483 OFFCURVE",
"126 467 CURVE",
"126 442 LINE",
"168 459 OFFCURVE",
"218 471 OFFCURVE",
"276 471 CURVE SMOOTH",
"400 471 OFFCURVE",
"451 420 OFFCURVE",
"451 317 CURVE SMOOTH",
"451 236 LINE",
"395 269 OFFCURVE",
"325 285 OFFCURVE",
"250 285 CURVE SMOOTH",
"129 285 OFFCURVE",
"60 238 OFFCURVE",
"60 134 CURVE SMOOTH",
"60 36 OFFCURVE",
"136 -15 OFFCURVE",
"246 -15 CURVE SMOOTH"
);
},
{
closed = 1;
nodes = (
"139 9 OFFCURVE",
"86 55 OFFCURVE",
"86 134 CURVE SMOOTH",
"86 217 OFFCURVE",
"130 261 OFFCURVE",
"250 261 CURVE SMOOTH",
"334 261 OFFCURVE",
"389 245 OFFCURVE",
"451 212 CURVE",
"451 111 LINE",
"417 46 OFFCURVE",
"342 9 OFFCURVE",
"254 9 CURVE SMOOTH"
);
},
{
closed = 1;
nodes = (
"306 562 LINE",
"306 606 LINE",
"371 609 OFFCURVE",
"403 644 OFFCURVE",
"403 693 CURVE SMOOTH",
"403 743 OFFCURVE",
"369 779 OFFCURVE",
"300 779 CURVE SMOOTH",
"280 779 OFFCURVE",
"256 775 OFFCURVE",
"245 771 CURVE",
"245 747 LINE",
"257 752 OFFCURVE",
"282 755 OFFCURVE",
"300 755 CURVE SMOOTH",
"348 755 OFFCURVE",
"377 736 OFFCURVE",
"377 692 CURVE SMOOTH",
"377 648 OFFCURVE",
"355 625 OFFCURVE",
"283 625 CURVE",
"283 562 LINE"
);
}
);
width = 554;
}
);
leftKerningGroup = a;
note = ahookabove;
rightKerningGroup = a;
unicode = 1EA3;
},
